SplineFontDB: 3.0
FontName: Vidaloka-Regular
FullName: Vidaloka 
FamilyName: Vidaloka 
Weight: Book
Copyright: Copyright (c) 2011, Cyreal (www.cyreal.org) with Reserved Font Name "Vidaloka".
Version: 1.000
ItalicAngle: 0
UnderlinePosition: -103
UnderlineWidth: 102
Ascent: 1638
Descent: 410
sfntRevision: 0x00010000
LayerCount: 2
Layer: 0 1 "Back"  1
Layer: 1 1 "Fore"  0
XUID: [1021 288 713564382 5719676]
FSType: 0
OS2Version: 3
OS2_WeightWidthSlopeOnly: 0
OS2_UseTypoMetrics: 1
CreationTime: 1312297200
ModificationTime: 1312558586
PfmFamily: 17
TTFWeight: 400
TTFWidth: 5
LineGap: 0
VLineGap: 0
Panose: 2 0 5 4 0 0 0 2 0 4
OS2TypoAscent: 289
OS2TypoAOffset: 1
OS2TypoDescent: -150
OS2TypoDOffset: 1
OS2TypoLinegap: 0
OS2WinAscent: 0
OS2WinAOffset: 1
OS2WinDescent: 0
OS2WinDOffset: 1
HheadAscent: 0
HheadAOffset: 1
HheadDescent: 0
HheadDOffset: 1
OS2SubXSize: 1434
OS2SubYSize: 1331
OS2SubXOff: 0
OS2SubYOff: 287
OS2SupXSize: 1434
OS2SupYSize: 1331
OS2SupXOff: 0
OS2SupYOff: 977
OS2StrikeYSize: 102
OS2StrikeYPos: 512
OS2Vendor: 'pyrs'
OS2CodePages: 00000003.00000000
OS2UnicodeRanges: 800000af.40000043.00000000.00000000
Lookup: 258 0 0 "'kern' Horizontal Kerning in Latin lookup 0"  {"'kern' Horizontal Kerning in Latin lookup 0 subtable"  } ['kern' ('DFLT' <'dflt' > 'latn' <'dflt' > ) ]
DEI: 91125
TtTable: prep
PUSHW_1
 511
SCANCTRL
PUSHB_1
 4
SCANTYPE
EndTTInstrs
ShortTable: maxp 16
  1
  0
  231
  192
  14
  0
  0
  2
  0
  1
  1
  0
  64
  0
  0
  0
EndShort

StartChar: .notdef
Encoding: 65536 -1 0
Width: 1008
Flags: W
LayerCount: 2
Fore
SplineSet
80 1004 m 1,0,-1
 928 1004 l 1,1,-1
 928 0 l 1,2,-1
 80 0 l 1,3,-1
 80 1004 l 1,0,-1
160 20 m 1,4,-1
 848 20 l 1,5,-1
 848 984 l 1,6,-1
 160 984 l 1,7,-1
 160 20 l 1,4,-1
EndSplineSet
EndChar

StartChar: exclam
Encoding: 33 33 4
Width: 542
Flags: W
LayerCount: 2
Fore
SplineSet
248 366 m 1,0,1
 240 615 240 615 181 931 c 2,2,3
 181 931 181 931 142 1140 c 0,4,5
 125 1231 125 1231 125 1278 c 128,-1,6
 125 1325 125 1325 135 1355 c 128,-1,7
 145 1385 145 1385 164 1409 c 0,8,9
 206 1462 206 1462 275 1462 c 0,10,11
 343 1462 343 1462 382 1409 c 0,12,13
 416 1362 416 1362 416 1296.5 c 128,-1,14
 416 1231 416 1231 399 1140 c 2,15,-1
 360 931 l 2,16,17
 301 610 301 610 294 366 c 1,18,-1
 248 366 l 1,0,1
170 17 m 128,-1,20
 133 54 133 54 133 116 c 128,-1,21
 133 178 133 178 170 216.5 c 128,-1,22
 207 255 207 255 269 255 c 128,-1,23
 331 255 331 255 370 216.5 c 128,-1,24
 409 178 409 178 409 116 c 128,-1,25
 409 54 409 54 370 17 c 128,-1,26
 331 -20 331 -20 269 -20 c 128,-1,19
 207 -20 207 -20 170 17 c 128,-1,20
EndSplineSet
EndChar

StartChar: quotedbl
Encoding: 34 34 5
Width: 594
Flags: W
LayerCount: 2
Fore
SplineSet
422 1462 m 0,0,1
 504 1462 504 1462 504 1329 c 0,2,3
 504 1276 504 1276 484.5 1179.5 c 128,-1,4
 465 1083 465 1083 442 946 c 1,5,-1
 397 946 l 1,6,7
 374 1083 374 1083 355 1179.5 c 128,-1,8
 336 1276 336 1276 336 1329 c 0,9,10
 336 1462 336 1462 422 1462 c 0,0,1
90 1329 m 0,11,12
 90 1462 90 1462 174 1462 c 128,-1,13
 258 1462 258 1462 258 1329 c 0,14,15
 258 1276 258 1276 238.5 1179.5 c 128,-1,16
 219 1083 219 1083 196 946 c 1,17,-1
 151 946 l 1,18,19
 128 1083 128 1083 109 1179.5 c 128,-1,20
 90 1276 90 1276 90 1329 c 0,11,12
EndSplineSet
EndChar

StartChar: numbersign
Encoding: 35 35 6
Width: 1364
Flags: W
LayerCount: 2
Fore
SplineSet
254 -35 m 1,0,-1
 327 403 l 1,1,-1
 26 403 l 1,2,-1
 45 537 l 1,3,-1
 350 537 l 1,4,-1
 413 915 l 1,5,-1
 112 915 l 1,6,-1
 131 1049 l 1,7,-1
 436 1049 l 1,8,-1
 506 1462 l 1,9,-1
 629 1462 l 1,10,-1
 559 1049 l 1,11,-1
 923 1049 l 1,12,-1
 993 1462 l 1,13,-1
 1116 1462 l 1,14,-1
 1046 1049 l 1,15,-1
 1335 1049 l 1,16,-1
 1317 915 l 1,17,-1
 1023 915 l 1,18,-1
 960 537 l 1,19,-1
 1253 537 l 1,20,-1
 1235 403 l 1,21,-1
 937 403 l 1,22,-1
 864 -35 l 1,23,-1
 741 -35 l 1,24,-1
 814 403 l 1,25,-1
 450 403 l 1,26,-1
 377 -35 l 1,27,-1
 254 -35 l 1,0,-1
473 537 m 1,28,-1
 837 537 l 1,29,-1
 900 915 l 1,30,-1
 536 915 l 1,31,-1
 473 537 l 1,28,-1
EndSplineSet
EndChar

StartChar: dollar
Encoding: 36 36 7
Width: 1009
Flags: W
LayerCount: 2
Fore
SplineSet
482 -244 m 1,0,-1
 482 -34 l 1,1,2
 272 -27 272 -27 164 57 c 0,3,4
 69 130 69 130 69 248 c 0,5,6
 69 312 69 312 98 346 c 1,7,8
 152 406 152 406 220 406 c 0,9,10
 285 406 285 406 326 364 c 0,11,12
 366 322 366 322 366 255.5 c 128,-1,13
 366 189 366 189 324.5 153 c 128,-1,14
 283 117 283 117 218 117 c 1,15,-1
 218 113 l 1,16,17
 262 63 262 63 370 35 c 0,18,19
 417 23 417 23 482 20 c 1,20,-1
 482 581 l 1,21,22
 459 592 459 592 434 602 c 2,23,-1
 380 624 l 2,24,25
 61 753 61 753 61 1047 c 0,26,27
 61 1221 61 1221 180 1337 c 0,28,29
 302 1455 302 1455 482 1461 c 1,30,-1
 482 1653 l 1,31,-1
 538 1653 l 1,32,-1
 538 1461 l 1,33,34
 718 1453 718 1453 814 1368 c 0,35,36
 901 1291 901 1291 901 1174 c 0,37,38
 901 1074 901 1074 815 1036 c 0,39,40
 787 1023 787 1023 752.5 1023 c 128,-1,41
 718 1023 718 1023 691 1034 c 128,-1,42
 664 1045 664 1045 644 1064 c 0,43,44
 604 1103 604 1103 604 1152 c 128,-1,45
 604 1201 604 1201 616 1228.5 c 128,-1,46
 628 1256 628 1256 648 1274 c 0,47,48
 690 1312 690 1312 757 1312 c 1,49,-1
 757 1316 l 1,50,51
 687 1398 687 1398 538 1406 c 1,52,-1
 538 858 l 1,53,54
 760 772 760 772 859 666 c 0,55,56
 968 549 968 549 968 378 c 0,57,58
 968 231 968 231 862 110 c 0,59,60
 738 -31 738 -31 538 -35 c 1,61,-1
 538 -244 l 1,62,-1
 482 -244 l 1,0,-1
200 1145 m 0,63,64
 200 1080 200 1080 269.5 1010 c 128,-1,65
 339 940 339 940 482 880 c 1,66,-1
 482 1406 l 1,67,68
 355 1400 355 1400 278 1331 c 0,69,70
 200 1261 200 1261 200 1145 c 0,63,64
810 264 m 0,71,72
 810 308 810 308 800 342.5 c 128,-1,73
 790 377 790 377 760 411 c 0,74,75
 703 477 703 477 538 556 c 1,76,-1
 538 21 l 1,77,78
 650 31 650 31 729 102 c 0,79,80
 810 174 810 174 810 264 c 0,71,72
EndSplineSet
EndChar

StartChar: percent
Encoding: 37 37 8
Width: 1612
Flags: W
LayerCount: 2
Fore
SplineSet
1221 20 m 0,0,1
 1384 20 1384 20 1384 325 c 0,2,3
 1384 484 1384 484 1365 546 c 128,-1,4
 1346 608 1346 608 1314 640.5 c 128,-1,5
 1282 673 1282 673 1234.5 673 c 128,-1,6
 1187 673 1187 673 1160.5 658 c 128,-1,7
 1134 643 1134 643 1115.5 618 c 128,-1,8
 1097 593 1097 593 1086 561 c 128,-1,9
 1075 529 1075 529 1069 496 c 0,10,11
 1059 440 1059 440 1059 378 c 128,-1,12
 1059 316 1059 316 1062 254 c 128,-1,13
 1065 192 1065 192 1080 140 c 0,14,15
 1116 20 1116 20 1221 20 c 0,0,1
856 338 m 0,16,17
 856 411 856 411 880.5 480.5 c 128,-1,18
 905 550 905 550 953 605 c 0,19,20
 1060 728 1060 728 1231 728 c 128,-1,21
 1402 728 1402 728 1501 610 c 0,22,23
 1589 504 1589 504 1589 358 c 0,24,25
 1589 199 1589 199 1484 83 c 1,26,27
 1379 -35 1379 -35 1229 -35 c 0,28,29
 1058 -35 1058 -35 954 78 c 0,30,31
 856 184 856 184 856 338 c 0,16,17
390 754 m 0,32,33
 554 754 554 754 554 1060 c 0,34,35
 554 1218 554 1218 535 1280 c 128,-1,36
 516 1342 516 1342 484 1374.5 c 128,-1,37
 452 1407 452 1407 404.5 1407 c 128,-1,38
 357 1407 357 1407 330 1392 c 128,-1,39
 303 1377 303 1377 284.5 1352 c 128,-1,40
 266 1327 266 1327 255 1295 c 128,-1,41
 244 1263 244 1263 238 1230 c 0,42,43
 228 1175 228 1175 228 1122 c 128,-1,44
 228 1069 228 1069 229 1028.5 c 128,-1,45
 230 988 230 988 235 949 c 128,-1,46
 240 910 240 910 250 874.5 c 128,-1,47
 260 839 260 839 278 812 c 0,48,49
 317 754 317 754 390 754 c 0,32,33
26 1072 m 0,50,51
 26 1145 26 1145 50.5 1214.5 c 128,-1,52
 75 1284 75 1284 122 1339 c 0,53,54
 229 1462 229 1462 399 1462 c 0,55,56
 570 1462 570 1462 670 1344 c 0,57,58
 759 1239 759 1239 759 1092 c 0,59,60
 759 933 759 933 654 817 c 1,61,62
 549 699 549 699 398 699 c 0,63,64
 228 699 228 699 124 812 c 0,65,66
 26 918 26 918 26 1072 c 0,50,51
378 0 m 1,67,-1
 1157 1462 l 1,68,-1
 1220 1462 l 1,69,-1
 441 0 l 1,70,-1
 378 0 l 1,67,-1
EndSplineSet
EndChar

StartChar: ampersand
Encoding: 38 38 9
Width: 1499
Flags: W
LayerCount: 2
Fore
SplineSet
678 446 m 0,0,1
 673 430 673 430 673 407.5 c 128,-1,2
 673 385 673 385 694 373 c 1,3,-1
 697 373 l 1,4,5
 724 419 724 419 784 419 c 0,6,7
 856 419 856 419 883 362 c 0,8,9
 892 342 892 342 892 316.5 c 128,-1,10
 892 291 892 291 883 270.5 c 128,-1,11
 874 250 874 250 858 236 c 0,12,13
 824 206 824 206 788 206 c 128,-1,14
 752 206 752 206 724.5 215 c 128,-1,15
 697 224 697 224 674 246 c 0,16,17
 622 294 622 294 622 395 c 0,18,19
 622 620 622 620 870 682 c 0,20,21
 940 700 940 700 1040 700 c 2,22,-1
 1241 700 l 2,23,24
 1404 700 1404 700 1422 765 c 0,25,26
 1427 781 1427 781 1427 803.5 c 128,-1,27
 1427 826 1427 826 1406 838 c 1,28,-1
 1403 838 l 1,29,30
 1376 792 1376 792 1316 792 c 0,31,32
 1244 792 1244 792 1217 850 c 0,33,34
 1208 869 1208 869 1208 894.5 c 128,-1,35
 1208 920 1208 920 1217 940.5 c 128,-1,36
 1226 961 1226 961 1242 975 c 0,37,38
 1276 1005 1276 1005 1312 1005 c 128,-1,39
 1348 1005 1348 1005 1375.5 996 c 128,-1,40
 1403 987 1403 987 1426 965 c 0,41,42
 1478 915 1478 915 1478 816 c 0,43,44
 1478 618 1478 618 1285 544 c 0,45,46
 1231 524 1231 524 1154 516 c 1,47,48
 1157 483 1157 483 1157 416.5 c 128,-1,49
 1157 350 1157 350 1129 261 c 128,-1,50
 1101 172 1101 172 1042 106 c 0,51,52
 914 -35 914 -35 667 -35 c 0,53,54
 387 -35 387 -35 254 91 c 0,55,56
 140 198 140 198 140 387 c 0,57,58
 140 556 140 556 256 673 c 0,59,60
 378 797 378 797 586 814 c 1,61,-1
 586 816 l 1,62,63
 296 823 296 823 226 1011 c 0,64,65
 209 1055 209 1055 209 1101 c 128,-1,66
 209 1147 209 1147 218 1187 c 128,-1,67
 227 1227 227 1227 247.5 1265.5 c 128,-1,68
 268 1304 268 1304 301.5 1339.5 c 128,-1,69
 335 1375 335 1375 383 1402 c 0,70,71
 487 1462 487 1462 642 1462 c 0,72,73
 904 1462 904 1462 984 1284 c 0,74,75
 1006 1235 1006 1235 1006 1200 c 2,76,-1
 1006 1190 l 2,77,78
 1006 1132 1006 1132 979 1101 c 0,79,80
 930 1045 930 1045 860 1045 c 0,81,82
 770 1045 770 1045 738 1130 c 0,83,84
 728 1156 728 1156 728 1199 c 128,-1,85
 728 1242 728 1242 763 1279.5 c 128,-1,86
 798 1317 798 1317 863 1320 c 1,87,-1
 862 1324 l 1,88,89
 843 1361 843 1361 794.5 1383 c 128,-1,90
 746 1405 746 1405 686 1405 c 128,-1,91
 626 1405 626 1405 584 1385.5 c 128,-1,92
 542 1366 542 1366 514 1331 c 0,93,94
 460 1264 460 1264 460 1127.5 c 128,-1,95
 460 991 460 991 530.5 915 c 128,-1,96
 601 839 601 839 723 839 c 2,97,-1
 737 839 l 1,98,-1
 737 784 l 1,99,-1
 719 784 l 2,100,101
 490 784 490 784 429 576 c 0,102,103
 408 506 408 506 408 421 c 0,104,105
 408 232 408 232 486 131.5 c 128,-1,106
 564 31 564 31 719 31 c 0,107,108
 847 31 847 31 956 110 c 1,109,110
 1102 218 1102 218 1102 457 c 2,111,-1
 1102 484 l 2,112,113
 1102 498 1102 498 1101 512 c 1,114,115
 1090 511 1090 511 1080 511 c 2,116,-1
 859 511 l 2,117,118
 696 511 696 511 678 446 c 0,0,1
EndSplineSet
EndChar

StartChar: quotesingle
Encoding: 39 39 10
Width: 360
Flags: W
LayerCount: 2
Fore
SplineSet
86 1329 m 0,0,1
 86 1462 86 1462 180 1462 c 128,-1,2
 274 1462 274 1462 274 1329 c 0,3,4
 274 1291 274 1291 258 1211 c 1,5,-1
 228 1072 l 2,6,7
 216 1014 216 1014 205 946 c 1,8,-1
 156 946 l 1,9,10
 144 1014 144 1014 132 1072 c 2,11,-1
 110 1180 l 1,12,13
 86 1288 86 1288 86 1329 c 0,0,1
EndSplineSet
EndChar

StartChar: parenleft
Encoding: 40 40 11
Width: 552
Flags: W
LayerCount: 2
Fore
SplineSet
519 1425 m 1,0,1
 290 1104 290 1104 290 484.5 c 128,-1,2
 290 -135 290 -135 519 -459 c 1,3,-1
 480 -495 l 1,4,5
 302 -315 302 -315 189 -65 c 0,6,7
 64 211 64 211 64 481 c 256,8,9
 64 751 64 751 189 1030 c 0,10,11
 302 1282 302 1282 480 1462 c 1,12,-1
 519 1425 l 1,0,1
EndSplineSet
EndChar

StartChar: parenright
Encoding: 41 41 12
Width: 552
Flags: W
LayerCount: 2
Fore
SplineSet
33 -459 m 1,0,1
 262 -135 262 -135 262 484.5 c 128,-1,2
 262 1104 262 1104 33 1425 c 1,3,-1
 72 1462 l 1,4,5
 250 1282 250 1282 363 1030 c 0,6,7
 488 751 488 751 488 481 c 256,8,9
 488 211 488 211 363 -65 c 0,10,11
 250 -315 250 -315 72 -495 c 1,12,-1
 33 -459 l 1,0,1
EndSplineSet
EndChar

StartChar: asterisk
Encoding: 42 42 13
Width: 933
Flags: W
LayerCount: 2
Fore
SplineSet
489 1071 m 1,0,1
 557 1091 557 1091 622 1160 c 1,2,3
 622 1160 622 1160 670 1209 c 0,4,5
 693 1232 693 1232 718.5 1240 c 128,-1,6
 744 1248 744 1248 766 1248 c 128,-1,7
 788 1248 788 1248 809 1240 c 0,8,9
 855 1221 855 1221 868 1179 c 1,10,11
 879 1147 879 1147 879 1125 c 0,12,13
 879 1119 879 1119 878 1114 c 0,14,15
 874 1090 874 1090 862 1072 c 0,16,17
 840 1040 840 1040 802 1027 c 0,18,19
 773 1017 773 1017 747 1017 c 0,20,21
 740 1017 740 1017 732 1018 c 0,22,23
 700 1022 700 1022 666 1028 c 0,24,25
 624 1035 624 1035 588 1035 c 0,26,27
 543 1035 543 1035 508 1024 c 1,28,29
 547 966 547 966 632 926 c 0,30,31
 664 911 664 911 692.5 896 c 128,-1,32
 721 881 721 881 737 859 c 128,-1,33
 753 837 753 837 759.5 816 c 128,-1,34
 766 795 766 795 764 772 c 0,35,36
 761 720 761 720 725.5 695.5 c 128,-1,37
 690 671 690 671 666 668 c 0,38,39
 657 666 657 666 649 666 c 0,40,41
 635 666 635 666 622 670 c 0,42,43
 583 681 583 681 559.5 713.5 c 128,-1,44
 536 746 536 746 530 777 c 128,-1,45
 524 808 524 808 520 843 c 0,46,47
 508 935 508 935 467 993 c 1,48,49
 424 935 424 935 412 844 c 0,50,51
 408 808 408 808 402.5 776 c 128,-1,52
 397 744 397 744 381 722.5 c 128,-1,53
 365 701 365 701 347 688 c 128,-1,54
 329 675 329 675 307 670 c 0,55,56
 290 666 290 666 275 666 c 0,57,58
 246 666 246 666 222 683 c 1,59,60
 188 709 188 709 177 730.5 c 128,-1,61
 166 752 166 752 166 777 c 0,62,63
 166 816 166 816 188 848 c 0,64,65
 211 880 211 880 239 895 c 128,-1,66
 267 910 267 910 299 925 c 0,67,68
 383 964 383 964 426 1022 c 1,69,70
 382 1036 382 1036 340 1036 c 0,71,72
 317 1036 317 1036 294 1032 c 0,73,74
 231 1020 231 1020 199 1015.5 c 128,-1,75
 167 1011 167 1011 141.5 1019.5 c 128,-1,76
 116 1028 116 1028 98 1040.5 c 128,-1,77
 80 1053 80 1053 68 1072 c 0,78,79
 51 1100 51 1100 51 1128 c 0,80,81
 51 1142 51 1142 56 1156 c 0,82,83
 69 1198 69 1198 86 1215 c 128,-1,84
 103 1232 103 1232 124 1240 c 0,85,86
 143 1247 143 1247 162 1247 c 128,-1,87
 181 1247 181 1247 200 1241 c 0,88,89
 239 1229 239 1229 262.5 1207 c 128,-1,90
 286 1185 286 1185 310 1160 c 0,91,92
 375 1090 375 1090 440 1069 c 1,93,94
 440 1140 440 1140 395 1222 c 0,95,96
 378 1253 378 1253 364 1282 c 128,-1,97
 350 1311 350 1311 350 1338 c 128,-1,98
 350 1365 350 1365 356.5 1386 c 128,-1,99
 363 1407 363 1407 378 1424 c 0,100,101
 410 1462 410 1462 467 1462 c 0,102,103
 551 1462 551 1462 573 1386 c 0,104,105
 579 1365 579 1365 579 1338 c 128,-1,106
 579 1311 579 1311 565 1282.5 c 128,-1,107
 551 1254 551 1254 534 1224 c 0,108,109
 489 1143 489 1143 489 1071 c 1,0,1
EndSplineSet
EndChar

StartChar: plus
Encoding: 43 43 14
Width: 1146
Flags: W
LayerCount: 2
Fore
SplineSet
518 702 m 1,0,-1
 518 1100 l 1,1,-1
 628 1100 l 1,2,-1
 628 702 l 1,3,-1
 1029 702 l 1,4,-1
 1029 592 l 1,5,-1
 628 592 l 1,6,-1
 628 194 l 1,7,-1
 518 194 l 1,8,-1
 518 592 l 1,9,-1
 117 592 l 1,10,-1
 117 702 l 1,11,-1
 518 702 l 1,0,-1
EndSplineSet
EndChar

StartChar: comma
Encoding: 44 44 15
Width: 459
Flags: W
LayerCount: 2
Fore
SplineSet
279 -17 m 1,0,1
 250 -35 250 -35 220.5 -35 c 128,-1,2
 191 -35 191 -35 168 -25 c 128,-1,3
 145 -15 145 -15 128 4 c 0,4,5
 92 43 92 43 92 103 c 0,6,7
 92 189 92 189 162 226 c 0,8,9
 188 240 188 240 225.5 240 c 128,-1,10
 263 240 263 240 290 224.5 c 128,-1,11
 317 209 317 209 334 184 c 0,12,13
 369 133 369 133 369 75.5 c 128,-1,14
 369 18 369 18 359 -29 c 128,-1,15
 349 -76 349 -76 323 -122 c 0,16,17
 264 -227 264 -227 139 -289 c 1,18,-1
 123 -238 l 1,19,20
 249 -177 249 -177 276 -67 c 0,21,22
 283 -38 283 -38 283 -17 c 1,23,-1
 279 -17 l 1,0,1
EndSplineSet
EndChar

StartChar: hyphen
Encoding: 45 45 16
Width: 746
Flags: W
LayerCount: 2
Fore
SplineSet
629 702 m 1,0,-1
 629 592 l 1,1,-1
 117 592 l 1,2,-1
 117 702 l 1,3,-1
 629 702 l 1,0,-1
EndSplineSet
EndChar

StartChar: period
Encoding: 46 46 17
Width: 464
Flags: W
LayerCount: 2
Fore
SplineSet
132.5 2 m 128,-1,1
 94 39 94 39 94 101 c 128,-1,2
 94 163 94 163 132.5 201.5 c 128,-1,3
 171 240 171 240 233 240 c 128,-1,4
 295 240 295 240 332.5 201.5 c 128,-1,5
 370 163 370 163 370 101 c 128,-1,6
 370 39 370 39 332.5 2 c 128,-1,7
 295 -35 295 -35 233 -35 c 128,-1,0
 171 -35 171 -35 132.5 2 c 128,-1,1
EndSplineSet
EndChar

StartChar: slash
Encoding: 47 47 18
Width: 850
Flags: W
LayerCount: 2
Fore
SplineSet
-56 -495 m 1,0,-1
 785 1462 l 1,1,-1
 908 1462 l 1,2,-1
 66 -495 l 1,3,-1
 -56 -495 l 1,0,-1
EndSplineSet
EndChar

StartChar: zero
Encoding: 48 48 19
Width: 1279
Flags: W
LayerCount: 2
Fore
SplineSet
910 730 m 0,0,1
 910 1407 910 1407 643 1407 c 0,2,3
 457 1407 457 1407 392 1048 c 0,4,5
 369 918 369 918 369 745 c 128,-1,6
 369 572 369 572 385.5 442 c 128,-1,7
 402 312 402 312 435 218 c 0,8,9
 505 20 505 20 637 20 c 0,10,11
 837 20 837 20 892 428 c 0,12,13
 910 560 910 560 910 730 c 0,0,1
97 688 m 0,14,15
 97 847 97 847 130 986 c 128,-1,16
 163 1125 163 1125 230 1231 c 0,17,18
 378 1462 378 1462 637 1462 c 0,19,20
 900 1462 900 1462 1044 1265 c 0,21,22
 1182 1075 1182 1075 1182 745 c 0,23,24
 1182 420 1182 420 1064 210 c 0,25,26
 926 -35 926 -35 643 -35 c 0,27,28
 369 -35 369 -35 229 164 c 0,29,30
 97 351 97 351 97 688 c 0,14,15
EndSplineSet
EndChar

StartChar: one
Encoding: 49 49 20
Width: 736
Flags: W
LayerCount: 2
Fore
SplineSet
522 55 m 1,0,-1
 676 45 l 1,1,-1
 676 0 l 1,2,-1
 123 0 l 1,3,-1
 123 45 l 1,4,-1
 276 55 l 1,5,-1
 276 1344 l 1,6,-1
 43 1288 l 1,7,-1
 28 1341 l 1,8,-1
 467 1462 l 1,9,-1
 522 1462 l 1,10,-1
 522 55 l 1,0,-1
EndSplineSet
EndChar

StartChar: two
Encoding: 50 50 21
Width: 1071
Flags: W
LayerCount: 2
Fore
SplineSet
93 143 m 1,0,1
 145 189 145 189 201 244 c 1,2,-1
 311 358 l 1,3,4
 522 586 522 586 596 744 c 0,5,6
 660 883 660 883 669 1008 c 0,7,8
 673 1065 673 1065 673 1127.5 c 128,-1,9
 673 1190 673 1190 656.5 1244.5 c 128,-1,10
 640 1299 640 1299 610 1334 c 0,11,12
 552 1402 552 1402 446 1402 c 0,13,14
 351 1402 351 1402 278 1347 c 0,15,16
 220 1303 220 1303 205 1253 c 1,17,-1
 205 1249 l 1,18,19
 211 1250 211 1250 217 1250 c 128,-1,20
 223 1250 223 1250 229 1250 c 0,21,22
 295 1250 295 1250 334.5 1209.5 c 128,-1,23
 374 1169 374 1169 374 1121 c 128,-1,24
 374 1073 374 1073 363.5 1047 c 128,-1,25
 353 1021 353 1021 334 1002 c 0,26,27
 295 960 295 960 244 960 c 128,-1,28
 193 960 193 960 165 972 c 128,-1,29
 137 984 137 984 118 1005 c 0,30,31
 79 1048 79 1048 79 1095.5 c 128,-1,32
 79 1143 79 1143 88 1181.5 c 128,-1,33
 97 1220 97 1220 118 1259.5 c 128,-1,34
 139 1299 139 1299 172.5 1335.5 c 128,-1,35
 206 1372 206 1372 255 1400 c 0,36,37
 364 1462 364 1462 519 1462 c 0,38,39
 712 1462 712 1462 828 1370 c 0,40,41
 946 1276 946 1276 946 1119 c 0,42,43
 946 981 946 981 871 856 c 0,44,45
 796 732 796 732 603 549 c 1,46,-1
 297 254 l 1,47,-1
 219 183 l 1,48,-1
 622 188 l 2,49,50
 794 190 794 190 837.5 214.5 c 128,-1,51
 881 239 881 239 897.5 275 c 128,-1,52
 914 311 914 311 919 371 c 1,53,-1
 974 371 l 1,54,-1
 964 0 l 1,55,-1
 93 0 l 1,56,-1
 93 143 l 1,0,1
EndSplineSet
EndChar

StartChar: three
Encoding: 51 51 22
Width: 1099
Flags: W
LayerCount: 2
Fore
SplineSet
363 805 m 1,0,-1
 427 805 l 2,1,2
 558 805 558 805 620 896 c 0,3,4
 673 973 673 973 673 1105 c 0,5,6
 673 1316 673 1316 544 1380 c 0,7,8
 500 1402 500 1402 445 1402 c 128,-1,9
 390 1402 390 1402 350 1387 c 128,-1,10
 310 1372 310 1372 280 1351 c 0,11,12
 223 1311 223 1311 207 1266 c 1,13,-1
 207 1262 l 1,14,15
 221 1264 221 1264 234 1264 c 0,16,17
 283 1264 283 1264 318 1234 c 0,18,19
 361 1197 361 1197 361 1134.5 c 128,-1,20
 361 1072 361 1072 325.5 1035 c 128,-1,21
 290 998 290 998 225 998 c 128,-1,22
 160 998 160 998 125 1039 c 128,-1,23
 90 1080 90 1080 90 1144 c 0,24,25
 90 1239 90 1239 171 1334 c 0,26,27
 234 1409 234 1409 356 1444 c 0,28,29
 418 1462 418 1462 508 1462 c 128,-1,30
 598 1462 598 1462 676.5 1438.5 c 128,-1,31
 755 1415 755 1415 810 1370 c 0,32,33
 927 1274 927 1274 927 1105 c 0,34,35
 927 907 927 907 727 828 c 0,36,37
 658 800 658 800 564 789 c 1,38,-1
 564 787 l 1,39,40
 1009 744 1009 744 1009 354 c 0,41,42
 1009 193 1009 193 890 88 c 0,43,44
 751 -35 751 -35 505 -35 c 0,45,46
 294 -35 294 -35 187 42 c 0,47,48
 91 111 91 111 91 231 c 0,49,50
 91 294 91 294 120 326 c 0,51,52
 174 386 174 386 241 386 c 0,53,54
 341 386 341 386 376 300 c 0,55,56
 386 274 386 274 386 243 c 0,57,58
 386 174 386 174 344 140 c 128,-1,59
 302 106 302 106 237 106 c 1,60,-1
 237 102 l 1,61,62
 265 70 265 70 292 56 c 0,63,64
 358 22 358 22 442 22 c 128,-1,65
 526 22 526 22 577 43.5 c 128,-1,66
 628 65 628 65 664 107 c 0,67,68
 740 196 740 196 740 352 c 0,69,70
 740 590 740 590 645 679 c 0,71,72
 570 750 570 750 431 750 c 2,73,-1
 363 750 l 1,74,-1
 363 805 l 1,0,-1
EndSplineSet
EndChar

StartChar: four
Encoding: 52 52 23
Width: 1112
Flags: W
LayerCount: 2
Fore
SplineSet
827 55 m 1,0,-1
 981 45 l 1,1,-1
 981 0 l 1,2,-1
 428 0 l 1,3,-1
 428 45 l 1,4,-1
 581 55 l 1,5,-1
 581 330 l 1,6,-1
 10 330 l 1,7,-1
 10 377 l 1,8,-1
 772 1462 l 1,9,-1
 827 1462 l 1,10,-1
 827 384 l 1,11,-1
 1083 387 l 1,12,-1
 1083 330 l 1,13,-1
 827 330 l 1,14,-1
 827 55 l 1,0,-1
578 1091 m 1,15,-1
 84 380 l 1,16,-1
 84 377 l 1,17,-1
 581 382 l 1,18,-1
 581 1091 l 1,19,-1
 578 1091 l 1,15,-1
EndSplineSet
EndChar

StartChar: five
Encoding: 53 53 24
Width: 1029
Flags: W
LayerCount: 2
Fore
SplineSet
231 101 m 1,0,1
 299 22 299 22 450 22 c 0,2,3
 569 22 569 22 633 129 c 0,4,5
 692 227 692 227 692 395 c 0,6,7
 692 642 692 642 610 730 c 0,8,9
 541 805 541 805 415 805 c 0,10,11
 287 805 287 805 198 711 c 1,12,-1
 153 737 l 1,13,-1
 149 1427 l 1,14,-1
 542 1427 l 2,15,16
 713 1427 713 1427 747 1443 c 128,-1,17
 781 1459 781 1459 793 1488 c 128,-1,18
 805 1517 805 1517 811 1569 c 1,19,-1
 866 1569 l 1,20,-1
 856 1239 l 1,21,-1
 203 1245 l 1,22,-1
 203 786 l 1,23,24
 322 865 322 865 466.5 865 c 128,-1,25
 611 865 611 865 705 825 c 128,-1,26
 799 785 799 785 856 719 c 0,27,28
 960 597 960 597 960 397 c 0,29,30
 960 232 960 232 846 109 c 0,31,32
 712 -35 712 -35 483 -35 c 0,33,34
 298 -35 298 -35 190 42 c 0,35,36
 86 116 86 116 86 231 c 0,37,38
 86 293 86 293 115 326 c 0,39,40
 168 386 168 386 235 386 c 0,41,42
 337 386 337 386 370 304 c 0,43,44
 381 278 381 278 381 245 c 128,-1,45
 381 212 381 212 369.5 185.5 c 128,-1,46
 358 159 358 159 338 141 c 0,47,48
 298 105 298 105 231 105 c 1,49,-1
 231 101 l 1,0,1
EndSplineSet
EndChar

StartChar: six
Encoding: 54 54 25
Width: 1123
Flags: W
LayerCount: 2
Fore
SplineSet
360 786 m 1,0,-1
 361 755 l 1,1,-1
 363 755 l 1,2,3
 401 814 401 814 468 849.5 c 128,-1,4
 535 885 535 885 636 885 c 128,-1,5
 737 885 737 885 815 847.5 c 128,-1,6
 893 810 893 810 942 747 c 0,7,8
 1035 627 1035 627 1035 428 c 0,9,10
 1035 256 1035 256 932 124 c 1,11,12
 806 -35 806 -35 566 -35 c 0,13,14
 277 -35 277 -35 174 191 c 0,15,16
 103 347 103 347 103 621 c 0,17,18
 103 1037 103 1037 234.5 1249.5 c 128,-1,19
 366 1462 366 1462 622 1462 c 0,20,21
 877 1462 877 1462 953 1299 c 0,22,23
 977 1248 977 1248 977 1207 c 128,-1,24
 977 1166 977 1166 969.5 1139 c 128,-1,25
 962 1112 962 1112 945 1091 c 0,26,27
 906 1043 906 1043 836 1043 c 0,28,29
 780 1043 780 1043 752 1070 c 0,30,31
 703 1117 703 1117 703 1177 c 128,-1,32
 703 1237 703 1237 740 1275 c 128,-1,33
 777 1313 777 1313 836 1318 c 1,34,-1
 836 1322 l 1,35,36
 815 1375 815 1375 722 1399 c 0,37,38
 690 1407 690 1407 650 1407 c 0,39,40
 365 1407 365 1407 365 1030 c 1,41,-1
 360 786 l 1,0,-1
682 780.5 m 128,-1,43
 643 815 643 815 591 815 c 128,-1,44
 539 815 539 815 504.5 802 c 128,-1,45
 470 789 470 789 441 766 c 0,46,47
 377 715 377 715 361 641 c 1,48,49
 360 622 360 622 360 604 c 2,50,-1
 360 569 l 2,51,52
 360 121 360 121 480 43 c 0,53,54
 516 20 516 20 564.5 20 c 128,-1,55
 613 20 613 20 653.5 50.5 c 128,-1,56
 694 81 694 81 720 134 c 0,57,58
 770 236 770 236 770 408 c 0,59,60
 770 603 770 603 745.5 674.5 c 128,-1,42
 721 746 721 746 682 780.5 c 128,-1,43
EndSplineSet
EndChar

StartChar: seven
Encoding: 55 55 26
Width: 865
Flags: W
LayerCount: 2
Fore
SplineSet
368 -50 m 0,0,1
 258 -50 258 -50 258 107 c 0,2,3
 258 274 258 274 401 593 c 2,4,-1
 494 799 l 1,5,6
 585 997 585 997 655.5 1106.5 c 128,-1,7
 726 1216 726 1216 749 1242 c 1,8,-1
 749 1244 l 1,9,-1
 386 1239 l 2,10,11
 219 1237 219 1237 179.5 1212.5 c 128,-1,12
 140 1188 140 1188 126 1152.5 c 128,-1,13
 112 1117 112 1117 107 1057 c 1,14,-1
 52 1057 l 1,15,-1
 62 1427 l 1,16,-1
 851 1427 l 1,17,-1
 851 1284 l 1,18,19
 548 885 548 885 502 379 c 0,20,21
 489 237 489 237 489 160.5 c 128,-1,22
 489 84 489 84 483.5 56 c 128,-1,23
 478 28 478 28 464 4 c 0,24,25
 433 -50 433 -50 368 -50 c 0,0,1
EndSplineSet
EndChar

StartChar: eight
Encoding: 56 56 27
Width: 1135
Flags: W
LayerCount: 2
Fore
SplineSet
656 838 m 1,0,1
 812 960 812 960 812 1145 c 0,2,3
 812 1339 812 1339 659 1391 c 0,4,5
 612 1407 612 1407 562 1407 c 128,-1,6
 512 1407 512 1407 471.5 1394 c 128,-1,7
 431 1381 431 1381 400 1357 c 0,8,9
 332 1304 332 1304 332 1235 c 128,-1,10
 332 1166 332 1166 361 1114 c 128,-1,11
 390 1062 390 1062 434.5 1016 c 128,-1,12
 479 970 479 970 534 929 c 2,13,-1
 656 838 l 1,0,1
117 309 m 0,14,15
 117 516 117 516 402 688 c 1,16,17
 200 834 200 834 146 1006 c 0,18,19
 131 1055 131 1055 131 1115.5 c 128,-1,20
 131 1176 131 1176 164 1243 c 128,-1,21
 197 1310 197 1310 256 1358 c 1,22,23
 380 1462 380 1462 571 1462 c 0,24,25
 725 1462 725 1462 840 1376 c 1,26,27
 956 1287 956 1287 956 1163 c 0,28,29
 956 995 956 995 798 876 c 0,30,31
 752 841 752 841 700 808 c 1,32,-1
 825 718 l 1,33,34
 1047 556 1047 556 1047 348 c 0,35,36
 1047 190 1047 190 935 84 c 0,37,38
 808 -35 808 -35 586 -35 c 0,39,40
 248 -35 248 -35 149 162 c 0,41,42
 117 226 117 226 117 309 c 0,14,15
458 650 m 1,43,44
 285 510 285 510 285 319 c 0,45,46
 285 207 285 207 348 125 c 0,47,48
 428 20 428 20 586 20 c 0,49,50
 698 20 698 20 775 79 c 0,51,52
 859 143 859 143 859 250 c 0,53,54
 859 337 859 337 776 417 c 0,55,56
 731 461 731 461 654 516 c 1,57,-1
 458 650 l 1,43,44
EndSplineSet
EndChar

StartChar: nine
Encoding: 57 57 28
Width: 1122
Flags: W
LayerCount: 2
Fore
SplineSet
564 1462 m 0,0,1
 662 1462 662 1462 738 1432.5 c 128,-1,2
 814 1403 814 1403 865.5 1352.5 c 128,-1,3
 917 1302 917 1302 947 1236 c 128,-1,4
 977 1170 977 1170 993 1098 c 0,5,6
 1018 984 1018 984 1018 806 c 0,7,8
 1018 390 1018 390 895 177.5 c 128,-1,9
 772 -35 772 -35 509 -35 c 0,10,11
 253 -35 253 -35 177 128 c 0,12,13
 153 179 153 179 153 220 c 128,-1,14
 153 261 153 261 161 287.5 c 128,-1,15
 169 314 169 314 186 336 c 0,16,17
 225 385 225 385 289.5 385 c 128,-1,18
 354 385 354 385 391 348 c 128,-1,19
 428 311 428 311 428 250.5 c 128,-1,20
 428 190 428 190 391 152 c 128,-1,21
 354 114 354 114 295 109 c 1,22,-1
 295 105 l 1,23,24
 316 52 316 52 418 28 c 0,25,26
 451 20 451 20 504.5 20 c 128,-1,27
 558 20 558 20 604 43 c 128,-1,28
 650 66 650 66 679.5 108 c 128,-1,29
 709 150 709 150 725.5 209 c 128,-1,30
 742 268 742 268 750 341 c 0,31,32
 760 443 760 443 760 675 c 1,33,34
 722 615 722 615 654.5 578.5 c 128,-1,35
 587 542 587 542 485.5 542 c 128,-1,36
 384 542 384 542 306 579.5 c 128,-1,37
 228 617 228 617 179 680 c 0,38,39
 86 800 86 800 86 999 c 0,40,41
 86 1171 86 1171 190 1302 c 1,42,43
 315 1462 315 1462 564 1462 c 0,0,1
760 786 m 1,44,-1
 761 858 l 1,45,46
 761 1306 761 1306 640 1384 c 0,47,48
 605 1407 605 1407 556.5 1407 c 128,-1,49
 508 1407 508 1407 467.5 1376.5 c 128,-1,50
 427 1346 427 1346 401 1293 c 0,51,52
 351 1191 351 1191 351 1019 c 0,53,54
 351 821 351 821 375 751 c 128,-1,55
 399 681 399 681 438.5 646.5 c 128,-1,56
 478 612 478 612 529.5 612 c 128,-1,57
 581 612 581 612 615.5 625 c 128,-1,58
 650 638 650 638 680 661 c 0,59,60
 744 712 744 712 760 786 c 1,44,-1
EndSplineSet
EndChar

StartChar: colon
Encoding: 58 58 29
Width: 510
Flags: W
LayerCount: 2
Fore
SplineSet
155.5 2 m 128,-1,1
 117 39 117 39 117 101 c 128,-1,2
 117 163 117 163 155.5 201.5 c 128,-1,3
 194 240 194 240 256 240 c 128,-1,4
 318 240 318 240 355.5 201.5 c 128,-1,5
 393 163 393 163 393 101 c 128,-1,6
 393 39 393 39 355.5 2 c 128,-1,7
 318 -35 318 -35 256 -35 c 128,-1,0
 194 -35 194 -35 155.5 2 c 128,-1,1
155.5 796 m 128,-1,9
 117 833 117 833 117 895 c 128,-1,10
 117 957 117 957 155.5 995.5 c 128,-1,11
 194 1034 194 1034 256 1034 c 128,-1,12
 318 1034 318 1034 355.5 995.5 c 128,-1,13
 393 957 393 957 393 895 c 128,-1,14
 393 833 393 833 355.5 796 c 128,-1,15
 318 759 318 759 256 759 c 128,-1,8
 194 759 194 759 155.5 796 c 128,-1,9
EndSplineSet
EndChar

StartChar: semicolon
Encoding: 59 59 30
Width: 518
Flags: W
LayerCount: 2
Fore
SplineSet
155.5 796 m 128,-1,1
 117 833 117 833 117 895 c 128,-1,2
 117 957 117 957 155.5 995.5 c 128,-1,3
 194 1034 194 1034 256 1034 c 128,-1,4
 318 1034 318 1034 355.5 995.5 c 128,-1,5
 393 957 393 957 393 895 c 128,-1,6
 393 833 393 833 355.5 796 c 128,-1,7
 318 759 318 759 256 759 c 128,-1,0
 194 759 194 759 155.5 796 c 128,-1,1
310 -17 m 1,8,9
 282 -35 282 -35 252 -35 c 128,-1,10
 222 -35 222 -35 199 -25 c 128,-1,11
 176 -15 176 -15 159 4 c 0,12,13
 123 43 123 43 123 103 c 0,14,15
 123 189 123 189 194 226 c 0,16,17
 219 240 219 240 256.5 240 c 128,-1,18
 294 240 294 240 321 224.5 c 128,-1,19
 348 209 348 209 366 184 c 1,20,21
 400 133 400 133 400 75.5 c 128,-1,22
 400 18 400 18 390 -29 c 128,-1,23
 380 -76 380 -76 354 -122 c 0,24,25
 295 -227 295 -227 170 -289 c 1,26,-1
 154 -238 l 1,27,28
 280 -177 280 -177 307 -67 c 0,29,30
 314 -38 314 -38 314 -17 c 1,31,-1
 310 -17 l 1,8,9
EndSplineSet
EndChar

StartChar: less
Encoding: 60 60 31
Width: 1018
Flags: W
LayerCount: 2
Fore
SplineSet
16 669 m 1,0,-1
 928 1114 l 1,1,-1
 928 992 l 1,2,-1
 181 645 l 1,3,-1
 181 643 l 1,4,-1
 928 297 l 1,5,-1
 928 174 l 1,6,-1
 16 611 l 1,7,-1
 16 669 l 1,0,-1
EndSplineSet
EndChar

StartChar: equal
Encoding: 61 61 32
Width: 1146
Flags: W
LayerCount: 2
Fore
SplineSet
1029 908 m 1,0,-1
 1029 798 l 1,1,-1
 117 798 l 1,2,-1
 117 908 l 1,3,-1
 1029 908 l 1,0,-1
1029 508 m 1,4,-1
 1029 398 l 1,5,-1
 117 398 l 1,6,-1
 117 508 l 1,7,-1
 1029 508 l 1,4,-1
EndSplineSet
EndChar

StartChar: greater
Encoding: 62 62 33
Width: 1018
Flags: W
LayerCount: 2
Fore
SplineSet
1002 619 m 1,0,-1
 90 174 l 1,1,-1
 90 296 l 1,2,-1
 837 643 l 1,3,-1
 837 645 l 1,4,-1
 90 991 l 1,5,-1
 90 1114 l 1,6,-1
 1002 677 l 1,7,-1
 1002 619 l 1,0,-1
EndSplineSet
EndChar

StartChar: question
Encoding: 63 63 34
Width: 847
Flags: W
LayerCount: 2
Fore
SplineSet
151 1270 m 2,0,1
 279 1270 279 1270 279 1148 c 0,2,3
 279 1094 279 1094 244 1057.5 c 128,-1,4
 209 1021 209 1021 163.5 1021 c 128,-1,5
 118 1021 118 1021 93.5 1032.5 c 128,-1,6
 69 1044 69 1044 52 1062 c 0,7,8
 18 1101 18 1101 18 1153 c 128,-1,9
 18 1205 18 1205 40 1258.5 c 128,-1,10
 62 1312 62 1312 110 1357 c 0,11,12
 224 1462 224 1462 430 1462 c 0,13,14
 613 1462 613 1462 718 1359 c 0,15,16
 813 1265 813 1265 813 1123 c 0,17,18
 813 961 813 961 617 770 c 0,19,20
 497 654 497 654 459 588 c 128,-1,21
 421 522 421 522 421 479 c 128,-1,22
 421 436 421 436 431 406 c 1,23,-1
 377 406 l 1,24,25
 357 450 357 450 357 497.5 c 128,-1,26
 357 545 357 545 374 591.5 c 128,-1,27
 391 638 391 638 416 686.5 c 128,-1,28
 441 735 441 735 470.5 786 c 128,-1,29
 500 837 500 837 525 892 c 0,30,31
 584 1022 584 1022 584 1147.5 c 128,-1,32
 584 1273 584 1273 525 1338.5 c 128,-1,33
 466 1404 466 1404 362 1404 c 0,34,35
 279 1404 279 1404 208 1358 c 1,36,37
 146 1316 146 1316 137 1276 c 1,38,-1
 137 1270 l 1,39,-1
 151 1270 l 2,0,1
328.5 -2 m 128,-1,41
 294 31 294 31 294 86.5 c 128,-1,42
 294 142 294 142 328.5 176.5 c 128,-1,43
 363 211 363 211 418.5 211 c 128,-1,44
 474 211 474 211 507.5 176.5 c 128,-1,45
 541 142 541 142 541 86.5 c 128,-1,46
 541 31 541 31 507.5 -2 c 128,-1,47
 474 -35 474 -35 418.5 -35 c 128,-1,40
 363 -35 363 -35 328.5 -2 c 128,-1,41
EndSplineSet
EndChar

StartChar: at
Encoding: 64 64 35
Width: 1508
Flags: W
LayerCount: 2
Fore
SplineSet
759 1017 m 0,0,1
 871 1017 871 1017 946 950 c 1,2,-1
 952 1000 l 1,3,-1
 1100 985 l 1,4,-1
 1054 604 l 1,5,-1
 1040 484 l 2,6,7
 1027 364 1027 364 1027 306 c 0,8,9
 1027 201 1027 201 1114 201 c 0,10,11
 1219 201 1219 201 1301 328 c 0,12,13
 1385 457 1385 457 1385 613.5 c 128,-1,14
 1385 770 1385 770 1343.5 884.5 c 128,-1,15
 1302 999 1302 999 1224 1082 c 0,16,17
 1057 1258 1057 1258 775 1258 c 0,18,19
 594 1258 594 1258 444 1158 c 0,20,21
 305 1066 305 1066 223 904 c 0,22,23
 143 746 143 746 143 585.5 c 128,-1,24
 143 425 143 425 181 297.5 c 128,-1,25
 219 170 219 170 298 73 c 0,26,27
 471 -140 471 -140 785 -140 c 128,-1,28
 1099 -140 1099 -140 1287 66 c 1,29,-1
 1324 32 l 1,30,31
 1115 -195 1115 -195 792 -195 c 0,32,33
 455 -195 455 -195 262 15 c 0,34,35
 78 215 78 215 78 546 c 0,36,37
 78 875 78 875 270 1089 c 0,38,39
 473 1314 473 1314 805 1314 c 0,40,41
 1087 1314 1087 1314 1271 1124 c 0,42,43
 1453 937 1453 937 1453 650 c 0,44,45
 1453 410 1453 410 1334 269 c 0,46,47
 1230 147 1230 147 1078 147 c 128,-1,48
 926 147 926 147 890 264 c 1,49,50
 810 158 810 158 671 158 c 0,51,52
 547 158 547 158 474 243 c 0,53,54
 398 332 398 332 398 488 c 0,55,56
 398 693 398 693 474 838 c 0,57,58
 568 1017 568 1017 759 1017 c 0,0,1
939 890 m 1,59,60
 879 960 879 960 779 960 c 0,61,62
 660 960 660 960 600 806 c 1,63,64
 551 677 551 677 551 477 c 0,65,66
 551 308 551 308 646 252 c 0,67,68
 678 233 678 233 720 233 c 0,69,70
 806 233 806 233 882 323 c 1,71,72
 882 385 882 385 896 512 c 2,73,-1
 939 890 l 1,59,60
979 825 m 1,74,75
 978 825 978 825 978 824.5 c 128,-1,76
 978 824 978 824 979 824 c 1,77,-1
 979 825 l 1,74,75
EndSplineSet
EndChar

StartChar: A
Encoding: 65 65 36
Width: 1237
Flags: W
LayerCount: 2
Fore
SplineSet
736 414 m 1,0,-1
 288 414 l 1,1,-1
 172 55 l 1,2,-1
 307 45 l 1,3,-1
 307 0 l 1,4,-1
 -6 0 l 1,5,-1
 -6 45 l 1,6,-1
 115 55 l 1,7,-1
 588 1468 l 1,8,-1
 633 1468 l 1,9,-1
 1122 55 l 1,10,-1
 1254 45 l 1,11,-1
 1254 0 l 1,12,-1
 719 0 l 1,13,-1
 719 45 l 1,14,-1
 854 55 l 1,15,-1
 736 414 l 1,0,-1
306 474 m 1,16,-1
 714 482 l 1,17,-1
 514 1096 l 1,18,-1
 510 1096 l 1,19,-1
 306 474 l 1,16,-1
EndSplineSet
EndChar

StartChar: B
Encoding: 66 66 37
Width: 1282
Flags: W
LayerCount: 2
Fore
SplineSet
73 1382 m 1,0,-1
 73 1427 l 1,1,-1
 608 1427 l 2,2,3
 842 1427 842 1427 966 1366 c 1,4,5
 1123 1287 1123 1287 1123 1106 c 0,6,7
 1123 923 1123 923 896 831 c 0,8,9
 814 798 814 798 723 786 c 1,10,-1
 723 782 l 1,11,12
 1050 782 1050 782 1157 569 c 0,13,14
 1193 497 1193 497 1193 411 c 128,-1,15
 1193 325 1193 325 1171.5 267 c 128,-1,16
 1150 209 1150 209 1112 164.5 c 128,-1,17
 1074 120 1074 120 1022 89 c 128,-1,18
 970 58 970 58 910 38 c 0,19,20
 796 0 796 0 651 0 c 2,21,-1
 73 0 l 1,22,-1
 73 45 l 1,23,-1
 227 55 l 1,24,-1
 227 1372 l 1,25,-1
 73 1382 l 1,0,-1
722 722 m 0,26,27
 656 745 656 745 590.5 745 c 128,-1,28
 525 745 525 745 483 738 c 1,29,-1
 483 65 l 1,30,31
 536 55 536 55 601.5 55 c 128,-1,32
 667 55 667 55 730 79 c 128,-1,33
 793 103 793 103 837 148 c 0,34,35
 927 239 927 239 927 397 c 0,36,37
 927 652 927 652 722 722 c 0,26,27
712 1352 m 0,38,39
 659 1372 659 1372 597.5 1372 c 128,-1,40
 536 1372 536 1372 483 1362 c 1,41,-1
 483 806 l 1,42,43
 525 800 525 800 560 800 c 0,44,45
 863 800 863 800 863 1100 c 0,46,47
 863 1296 863 1296 712 1352 c 0,38,39
EndSplineSet
EndChar

StartChar: C
Encoding: 67 67 38
Width: 1253
Flags: W
LayerCount: 2
Fore
SplineSet
876 1393 m 0,0,1
 834 1405 834 1405 762 1405 c 128,-1,2
 690 1405 690 1405 613.5 1356.5 c 128,-1,3
 537 1308 537 1308 482 1218 c 0,4,5
 364 1027 364 1027 364 717 c 0,6,7
 364 437 364 437 456 250 c 1,8,9
 559 38 559 38 754 38 c 0,10,11
 895 38 895 38 1008 128 c 0,12,13
 1104 204 1104 204 1165 339 c 1,14,-1
 1212 317 l 1,15,16
 1068 -35 1068 -35 731 -35 c 0,17,18
 279 -35 279 -35 149 340 c 0,19,20
 98 486 98 486 98 688 c 0,21,22
 98 990 98 990 256 1210 c 0,23,24
 367 1366 367 1366 551 1430 c 0,25,26
 645 1462 645 1462 741.5 1462 c 128,-1,27
 838 1462 838 1462 909 1439 c 128,-1,28
 980 1416 980 1416 1035 1377 c 0,29,30
 1155 1292 1155 1292 1155 1174 c 0,31,32
 1155 1080 1155 1080 1075 1043 c 0,33,34
 1049 1031 1049 1031 1000.5 1031 c 128,-1,35
 952 1031 952 1031 913.5 1069.5 c 128,-1,36
 875 1108 875 1108 875 1152 c 128,-1,37
 875 1196 875 1196 885 1221 c 128,-1,38
 895 1246 895 1246 912 1264 c 0,39,40
 948 1304 948 1304 1004 1304 c 0,41,42
 1008 1304 1008 1304 1012 1304 c 128,-1,43
 1016 1304 1016 1304 1020 1303 c 1,44,-1
 1020 1307 l 1,45,46
 990 1360 990 1360 876 1393 c 0,0,1
EndSplineSet
EndChar

StartChar: D
Encoding: 68 68 39
Width: 1418
Flags: W
LayerCount: 2
Fore
SplineSet
483 65 m 1,0,1
 536 55 536 55 581 55 c 0,2,3
 827 55 827 55 946 246 c 0,4,5
 1050 414 1050 414 1050 723 c 0,6,7
 1050 1030 1050 1030 963 1183 c 0,8,9
 856 1372 856 1372 593 1372 c 0,10,11
 536 1372 536 1372 483 1362 c 1,12,-1
 483 65 l 1,0,1
73 0 m 1,13,-1
 73 45 l 1,14,-1
 227 55 l 1,15,-1
 227 1372 l 1,16,-1
 73 1382 l 1,17,-1
 73 1427 l 1,18,-1
 577 1427 l 2,19,20
 971 1427 971 1427 1154 1228 c 0,21,22
 1316 1053 1316 1053 1316 707 c 0,23,24
 1316 213 1316 213 932 55 c 0,25,26
 798 0 798 0 610 0 c 2,27,-1
 73 0 l 1,13,-1
EndSplineSet
EndChar

StartChar: E
Encoding: 69 69 40
Width: 1210
Flags: W
LayerCount: 2
Fore
SplineSet
692 1372 m 0,0,1
 599 1372 599 1372 483 1362 c 1,2,-1
 483 768 l 1,3,4
 494 767 494 767 509 766.5 c 128,-1,5
 524 766 524 766 539 765.5 c 128,-1,6
 554 765 554 765 568 765 c 2,7,-1
 592 765 l 2,8,9
 697 765 697 765 740 814 c 0,10,11
 787 868 787 868 787 1004 c 1,12,-1
 842 1004 l 1,13,-1
 842 467 l 1,14,-1
 787 467 l 1,15,16
 787 663 787 663 680 698 c 0,17,18
 643 710 643 710 614 710 c 2,19,-1
 572 710 l 2,20,21
 559 710 559 710 543 709.5 c 128,-1,22
 527 709 527 709 511 708.5 c 128,-1,23
 495 708 495 708 483 707 c 1,24,-1
 483 65 l 1,25,26
 628 55 628 55 727 55 c 128,-1,27
 826 55 826 55 882.5 78 c 128,-1,28
 939 101 939 101 975 146 c 0,29,30
 1031 216 1031 216 1067 408 c 1,31,-1
 1110 408 l 1,32,-1
 1099 0 l 1,33,-1
 73 0 l 1,34,-1
 73 45 l 1,35,-1
 227 55 l 1,36,-1
 227 1372 l 1,37,-1
 73 1382 l 1,38,-1
 73 1427 l 1,39,-1
 1058 1427 l 1,40,-1
 1068 1020 l 1,41,-1
 1026 1020 l 1,42,43
 993 1199 993 1199 936 1272 c 0,44,45
 859 1372 859 1372 692 1372 c 0,0,1
EndSplineSet
EndChar

StartChar: F
Encoding: 70 70 41
Width: 1080
Flags: W
LayerCount: 2
Fore
SplineSet
642 1372 m 0,0,1
 539 1372 539 1372 483 1362 c 1,2,-1
 483 746 l 1,3,-1
 512 745 l 1,4,5
 651 745 651 745 699 784 c 0,6,7
 757 832 757 832 757 985 c 1,8,-1
 812 985 l 1,9,-1
 812 448 l 1,10,-1
 757 448 l 1,11,12
 757 646 757 646 650 680 c 0,13,14
 613 691 613 691 583 691 c 2,15,-1
 530 691 l 2,16,17
 507 691 507 691 483 690 c 1,18,-1
 483 55 l 1,19,-1
 677 45 l 1,20,-1
 677 0 l 1,21,-1
 73 0 l 1,22,-1
 73 45 l 1,23,-1
 227 55 l 1,24,-1
 227 1372 l 1,25,-1
 73 1382 l 1,26,-1
 73 1427 l 1,27,-1
 1018 1427 l 1,28,-1
 1028 1020 l 1,29,-1
 972 1020 l 1,30,31
 956 1193 956 1193 896 1274 c 0,32,33
 822 1372 822 1372 642 1372 c 0,0,1
EndSplineSet
EndChar

StartChar: G
Encoding: 71 71 42
Width: 1407
Flags: W
LayerCount: 2
Fore
SplineSet
642 54 m 0,0,1
 710 23 710 23 801 23 c 128,-1,2
 892 23 892 23 989 53 c 1,3,-1
 989 598 l 1,4,-1
 841 609 l 1,5,-1
 841 654 l 1,6,-1
 1365 654 l 1,7,-1
 1365 609 l 1,8,-1
 1218 598 l 1,9,-1
 1218 68 l 1,10,11
 1048 -35 1048 -35 748 -35 c 0,12,13
 372 -35 372 -35 219 196 c 0,14,15
 98 379 98 379 98 684 c 0,16,17
 98 972 98 972 254 1200 c 0,18,19
 364 1361 364 1361 548 1428 c 0,20,21
 641 1462 641 1462 751 1462 c 128,-1,22
 861 1462 861 1462 947 1438 c 128,-1,23
 1033 1414 1033 1414 1094 1374 c 0,24,25
 1224 1291 1224 1291 1224 1173 c 0,26,27
 1224 1073 1224 1073 1138 1034 c 0,28,29
 1110 1022 1110 1022 1075.5 1022 c 128,-1,30
 1041 1022 1041 1022 1014 1033 c 128,-1,31
 987 1044 987 1044 968 1063 c 0,32,33
 927 1102 927 1102 927 1151 c 128,-1,34
 927 1200 927 1200 939 1227 c 128,-1,35
 951 1254 951 1254 972 1272 c 1,36,37
 1013 1310 1013 1310 1080 1310 c 1,38,-1
 1080 1314 l 1,39,40
 1038 1362 1038 1362 920 1391 c 0,41,42
 874 1402 874 1402 817 1402 c 0,43,44
 606 1402 606 1402 483 1210 c 0,45,46
 364 1025 364 1025 364 717 c 0,47,48
 364 177 364 177 642 54 c 0,0,1
EndSplineSet
EndChar

StartChar: H
Encoding: 72 72 43
Width: 1504
Flags: W
LayerCount: 2
Fore
SplineSet
1431 1382 m 1,0,-1
 1277 1372 l 1,1,-1
 1277 55 l 1,2,-1
 1431 45 l 1,3,-1
 1431 0 l 1,4,-1
 867 0 l 1,5,-1
 867 45 l 1,6,-1
 1021 55 l 1,7,-1
 1021 702 l 1,8,-1
 483 702 l 1,9,-1
 483 55 l 1,10,-1
 637 45 l 1,11,-1
 637 0 l 1,12,-1
 73 0 l 1,13,-1
 73 45 l 1,14,-1
 227 55 l 1,15,-1
 227 1372 l 1,16,-1
 73 1382 l 1,17,-1
 73 1427 l 1,18,-1
 637 1427 l 1,19,-1
 637 1382 l 1,20,-1
 483 1372 l 1,21,-1
 483 762 l 1,22,-1
 1021 770 l 1,23,-1
 1021 1372 l 1,24,-1
 867 1382 l 1,25,-1
 867 1427 l 1,26,-1
 1431 1427 l 1,27,-1
 1431 1382 l 1,0,-1
EndSplineSet
EndChar

StartChar: I
Encoding: 73 73 44
Width: 710
Flags: W
LayerCount: 2
Fore
SplineSet
637 1382 m 1,0,-1
 483 1372 l 1,1,-1
 483 55 l 1,2,-1
 637 45 l 1,3,-1
 637 0 l 1,4,-1
 73 0 l 1,5,-1
 73 45 l 1,6,-1
 227 55 l 1,7,-1
 227 1372 l 1,8,-1
 73 1382 l 1,9,-1
 73 1427 l 1,10,-1
 637 1427 l 1,11,-1
 637 1382 l 1,0,-1
EndSplineSet
EndChar

StartChar: J
Encoding: 74 74 45
Width: 821
Flags: W
LayerCount: 2
Fore
SplineSet
149 -229 m 1,0,1
 166 -252 166 -252 197.5 -252 c 128,-1,2
 229 -252 229 -252 253 -247 c 128,-1,3
 277 -242 277 -242 298 -217 c 0,4,5
 348 -157 348 -157 348 8 c 2,6,-1
 348 1372 l 1,7,-1
 154 1382 l 1,8,-1
 154 1427 l 1,9,-1
 758 1427 l 1,10,-1
 758 1382 l 1,11,-1
 604 1372 l 1,12,-1
 604 221 l 2,13,14
 604 -170 604 -170 360 -274 c 0,15,16
 285 -307 285 -307 215 -307 c 128,-1,17
 145 -307 145 -307 99 -295 c 128,-1,18
 53 -283 53 -283 18 -258 c 0,19,20
 -59 -205 -59 -205 -59 -113 c 0,21,22
 -59 -52 -59 -52 -30 -20 c 0,23,24
 21 35 21 35 84 35 c 0,25,26
 185 35 185 35 216 -50 c 0,27,28
 225 -75 225 -75 225 -96 c 128,-1,29
 225 -117 225 -117 220 -135 c 128,-1,30
 215 -153 215 -153 206 -170 c 0,31,32
 184 -211 184 -211 149 -229 c 1,0,1
EndSplineSet
EndChar

StartChar: K
Encoding: 75 75 46
Width: 1381
Flags: W
LayerCount: 2
Fore
SplineSet
637 1382 m 1,0,-1
 483 1372 l 1,1,-1
 483 764 l 1,2,-1
 485 764 l 1,3,-1
 1052 1372 l 1,4,-1
 923 1382 l 1,5,-1
 923 1427 l 1,6,-1
 1247 1427 l 1,7,-1
 1247 1382 l 1,8,-1
 1130 1372 l 1,9,-1
 665 881 l 1,10,-1
 1300 55 l 1,11,-1
 1408 45 l 1,12,-1
 1408 0 l 1,13,-1
 837 0 l 1,14,-1
 837 45 l 1,15,-1
 966 55 l 1,16,-1
 485 712 l 1,17,-1
 483 712 l 1,18,-1
 483 55 l 1,19,-1
 637 45 l 1,20,-1
 637 0 l 1,21,-1
 73 0 l 1,22,-1
 73 45 l 1,23,-1
 227 55 l 1,24,-1
 227 1372 l 1,25,-1
 73 1382 l 1,26,-1
 73 1427 l 1,27,-1
 637 1427 l 1,28,-1
 637 1382 l 1,0,-1
EndSplineSet
EndChar

StartChar: L
Encoding: 76 76 47
Width: 1166
Flags: W
LayerCount: 2
Fore
SplineSet
483 65 m 1,0,1
 637 54 637 54 725.5 54 c 128,-1,2
 814 54 814 54 878.5 69.5 c 128,-1,3
 943 85 943 85 981.5 125 c 128,-1,4
 1020 165 1020 165 1041.5 233.5 c 128,-1,5
 1063 302 1063 302 1086 408 c 1,6,-1
 1120 408 l 1,7,-1
 1120 0 l 1,8,-1
 73 0 l 1,9,-1
 73 45 l 1,10,-1
 227 55 l 1,11,-1
 227 1372 l 1,12,-1
 73 1382 l 1,13,-1
 73 1427 l 1,14,-1
 637 1427 l 1,15,-1
 637 1382 l 1,16,-1
 483 1372 l 1,17,-1
 483 65 l 1,0,1
EndSplineSet
EndChar

StartChar: M
Encoding: 77 77 48
Width: 1795
Flags: W
LayerCount: 2
Fore
SplineSet
1722 1382 m 1,0,-1
 1568 1372 l 1,1,-1
 1568 55 l 1,2,-1
 1722 45 l 1,3,-1
 1722 0 l 1,4,-1
 1158 0 l 1,5,-1
 1158 45 l 1,6,-1
 1312 55 l 1,7,-1
 1314 1278 l 1,8,-1
 1312 1278 l 1,9,-1
 837 -20 l 1,10,-1
 800 -20 l 1,11,-1
 272 1325 l 1,12,-1
 270 1325 l 1,13,-1
 285 55 l 1,14,-1
 436 45 l 1,15,-1
 436 0 l 1,16,-1
 73 0 l 1,17,-1
 73 45 l 1,18,-1
 227 55 l 1,19,-1
 227 1372 l 1,20,-1
 73 1382 l 1,21,-1
 73 1427 l 1,22,-1
 501 1427 l 1,23,-1
 918 363 l 1,24,-1
 920 363 l 1,25,-1
 1312 1427 l 1,26,-1
 1722 1427 l 1,27,-1
 1722 1382 l 1,0,-1
EndSplineSet
EndChar

StartChar: N
Encoding: 78 78 49
Width: 1414
Flags: W
LayerCount: 2
Fore
SplineSet
296 55 m 1,0,-1
 449 45 l 1,1,-1
 449 0 l 1,2,-1
 79 0 l 1,3,-1
 79 45 l 1,4,-1
 233 55 l 1,5,-1
 222 1372 l 1,6,-1
 69 1382 l 1,7,-1
 69 1427 l 1,8,-1
 283 1427 l 1,9,-1
 1141 387 l 1,10,-1
 1143 387 l 1,11,-1
 1129 1372 l 1,12,-1
 976 1382 l 1,13,-1
 976 1427 l 1,14,-1
 1346 1427 l 1,15,-1
 1346 1382 l 1,16,-1
 1192 1372 l 1,17,-1
 1203 -20 l 1,18,-1
 1142 -20 l 1,19,-1
 284 1023 l 1,20,-1
 282 1023 l 1,21,-1
 296 55 l 1,0,-1
EndSplineSet
EndChar

StartChar: O
Encoding: 79 79 50
Width: 1441
Flags: W
LayerCount: 2
Fore
SplineSet
393.5 1038 m 128,-1,1
 364 910 364 910 364 748 c 128,-1,2
 364 586 364 586 386.5 457 c 128,-1,3
 409 328 409 328 454 231 c 0,4,5
 550 20 550 20 718 20 c 128,-1,6
 886 20 886 20 983 218 c 0,7,8
 1077 409 1077 409 1077 733 c 0,9,10
 1077 1238 1077 1238 870 1366 c 0,11,12
 804 1407 804 1407 728.5 1407 c 128,-1,13
 653 1407 653 1407 587.5 1368.5 c 128,-1,14
 522 1330 522 1330 472.5 1248 c 128,-1,0
 423 1166 423 1166 393.5 1038 c 128,-1,1
138.5 407 m 128,-1,16
 96 544 96 544 96 677.5 c 128,-1,17
 96 811 96 811 115.5 906.5 c 128,-1,18
 135 1002 135 1002 172 1086 c 128,-1,19
 209 1170 209 1170 263 1239 c 128,-1,20
 317 1308 317 1308 386 1358 c 0,21,22
 532 1462 532 1462 718 1462 c 0,23,24
 1001 1462 1001 1462 1173 1263 c 128,-1,25
 1345 1064 1345 1064 1345 741 c 0,26,27
 1345 425 1345 425 1194 208 c 1,28,29
 1023 -35 1023 -35 724 -35 c 0,30,31
 430 -35 430 -35 262 172 c 1,32,15
 181 270 181 270 138.5 407 c 128,-1,16
EndSplineSet
EndChar

StartChar: P
Encoding: 80 80 51
Width: 1207
Flags: W
LayerCount: 2
Fore
SplineSet
775 593 m 128,-1,1
 666 568 666 568 591.5 568 c 128,-1,2
 517 568 517 568 483 570 c 1,3,-1
 483 55 l 1,4,-1
 637 45 l 1,5,-1
 637 0 l 1,6,-1
 73 0 l 1,7,-1
 73 45 l 1,8,-1
 227 55 l 1,9,-1
 227 1372 l 1,10,-1
 73 1382 l 1,11,-1
 73 1427 l 1,12,-1
 616 1427 l 2,13,14
 846 1427 846 1427 988 1332 c 0,15,16
 1148 1226 1148 1226 1148 1022 c 0,17,18
 1148 791 1148 791 966 672 c 0,19,0
 884 618 884 618 775 593 c 128,-1,1
704 1350 m 0,20,21
 650 1366 650 1366 592 1366 c 128,-1,22
 534 1366 534 1366 483 1358 c 1,23,-1
 483 627 l 1,24,25
 517 624 517 624 554 624 c 0,26,27
 882 624 882 624 882 1024 c 0,28,29
 882 1297 882 1297 704 1350 c 0,20,21
EndSplineSet
EndChar

StartChar: Q
Encoding: 81 81 52
Width: 1441
Flags: W
LayerCount: 2
Fore
SplineSet
517.5 -189 m 128,-1,1
 474 -189 474 -189 424 -213 c 1,2,-1
 404 -173 l 1,3,4
 525 -73 525 -73 656 -73 c 0,5,6
 768 -73 768 -73 880 -139 c 0,7,8
 931 -169 931 -169 986.5 -207.5 c 128,-1,9
 1042 -246 1042 -246 1096 -276 c 0,10,11
 1184 -325 1184 -325 1222.5 -325 c 128,-1,12
 1261 -325 1261 -325 1280 -316 c 128,-1,13
 1299 -307 1299 -307 1311 -293 c 0,14,15
 1334 -266 1334 -266 1334 -226 c 0,16,17
 1334 -222 1334 -222 1333.5 -219 c 128,-1,18
 1333 -216 1333 -216 1333 -212 c 1,19,-1
 1330 -213 l 1,20,21
 1310 -249 1310 -249 1262 -249 c 128,-1,22
 1214 -249 1214 -249 1186 -219 c 128,-1,23
 1158 -189 1158 -189 1158 -142.5 c 128,-1,24
 1158 -96 1158 -96 1189 -67.5 c 128,-1,25
 1220 -39 1220 -39 1258.5 -39 c 128,-1,26
 1297 -39 1297 -39 1321 -52 c 128,-1,27
 1345 -65 1345 -65 1361 -88 c 0,28,29
 1393 -132 1393 -132 1393 -185 c 128,-1,30
 1393 -238 1393 -238 1376 -282 c 128,-1,31
 1359 -326 1359 -326 1326 -364 c 1,32,33
 1247 -451 1247 -451 1127 -451 c 0,34,35
 1063 -451 1063 -451 1026 -439 c 0,36,37
 920 -405 920 -405 746 -290 c 0,38,39
 647 -225 647 -225 604 -207 c 128,-1,0
 561 -189 561 -189 517.5 -189 c 128,-1,1
393.5 1038 m 128,-1,41
 364 910 364 910 364 748 c 128,-1,42
 364 586 364 586 386.5 457 c 128,-1,43
 409 328 409 328 454 231 c 0,44,45
 550 20 550 20 718 20 c 128,-1,46
 886 20 886 20 983 218 c 0,47,48
 1077 409 1077 409 1077 733 c 0,49,50
 1077 1238 1077 1238 870 1366 c 0,51,52
 804 1407 804 1407 728.5 1407 c 128,-1,53
 653 1407 653 1407 587.5 1368.5 c 128,-1,54
 522 1330 522 1330 472.5 1248 c 128,-1,40
 423 1166 423 1166 393.5 1038 c 128,-1,41
138.5 407 m 128,-1,56
 96 544 96 544 96 677.5 c 128,-1,57
 96 811 96 811 115.5 906.5 c 128,-1,58
 135 1002 135 1002 172 1086 c 128,-1,59
 209 1170 209 1170 263 1239 c 128,-1,60
 317 1308 317 1308 386 1358 c 0,61,62
 532 1462 532 1462 718 1462 c 0,63,64
 1001 1462 1001 1462 1173 1263 c 128,-1,65
 1345 1064 1345 1064 1345 741 c 0,66,67
 1345 425 1345 425 1194 208 c 1,68,69
 1023 -35 1023 -35 724 -35 c 0,70,71
 430 -35 430 -35 262 172 c 1,72,55
 181 270 181 270 138.5 407 c 128,-1,56
EndSplineSet
EndChar

StartChar: R
Encoding: 82 82 53
Width: 1289
Flags: W
LayerCount: 2
Fore
SplineSet
683 1357.5 m 128,-1,1
 634 1371 634 1371 584 1371 c 128,-1,2
 534 1371 534 1371 483 1363 c 1,3,-1
 483 727 l 1,4,5
 491 726 491 726 500 726 c 2,6,-1
 524 726 l 2,7,8
 784 726 784 726 832 926 c 0,9,10
 847 990 847 990 847 1074.5 c 128,-1,11
 847 1159 847 1159 826 1217 c 128,-1,12
 805 1275 805 1275 768.5 1309.5 c 128,-1,0
 732 1344 732 1344 683 1357.5 c 128,-1,1
558 671 m 2,13,-1
 514 671 l 2,14,15
 500 671 500 671 483 670 c 1,16,-1
 483 55 l 1,17,-1
 637 45 l 1,18,-1
 637 0 l 1,19,-1
 73 0 l 1,20,-1
 73 45 l 1,21,-1
 227 55 l 1,22,-1
 227 1372 l 1,23,-1
 73 1382 l 1,24,-1
 73 1427 l 1,25,-1
 606 1427 l 2,26,27
 966 1427 966 1427 1075 1238 c 0,28,29
 1114 1170 1114 1170 1114 1076.5 c 128,-1,30
 1114 983 1114 983 1081.5 915.5 c 128,-1,31
 1049 848 1049 848 992 801 c 0,32,33
 883 711 883 711 688 683 c 1,34,-1
 688 681 l 1,35,36
 866 678 866 678 951 564 c 0,37,38
 992 508 992 508 1024 438 c 2,39,-1
 1070 336 l 2,40,41
 1143 172 1143 172 1194 116 c 0,42,43
 1240 66 1240 66 1273 60.5 c 128,-1,44
 1306 55 1306 55 1325 55 c 1,45,-1
 1325 0 l 1,46,-1
 1159 0 l 2,47,48
 1058 0 1058 0 1017.5 16 c 128,-1,49
 977 32 977 32 951 54.5 c 128,-1,50
 925 77 925 77 900 114 c 0,51,52
 856 179 856 179 811 289 c 2,53,-1
 740 460 l 1,54,55
 649 671 649 671 558 671 c 2,13,-1
EndSplineSet
EndChar

StartChar: S
Encoding: 83 83 54
Width: 1120
Flags: W
LayerCount: 2
Fore
SplineSet
821 1315 m 1,0,1
 729 1407 729 1407 553 1407 c 0,2,3
 346 1407 346 1407 280 1272 c 0,4,5
 259 1230 259 1230 259 1179 c 128,-1,6
 259 1128 259 1128 271.5 1091 c 128,-1,7
 284 1054 284 1054 319 1020 c 0,8,9
 380 961 380 961 541.5 888.5 c 128,-1,10
 703 816 703 816 791.5 766 c 128,-1,11
 880 716 880 716 936 660 c 1,12,13
 1040 553 1040 553 1040 366 c 0,14,15
 1040 207 1040 207 924 93 c 1,16,17
 792 -35 792 -35 569 -35 c 0,18,19
 325 -35 325 -35 202 53 c 0,20,21
 100 126 100 126 100 241 c 0,22,23
 100 348 100 348 188 386 c 0,24,25
 216 399 216 399 250.5 399 c 128,-1,26
 285 399 285 399 312 387.5 c 128,-1,27
 339 376 339 376 358 356 c 0,28,29
 397 315 397 315 397 248.5 c 128,-1,30
 397 182 397 182 356 146 c 128,-1,31
 315 110 315 110 250 110 c 1,32,-1
 250 106 l 1,33,34
 293 57 293 57 424 32 c 0,35,36
 478 21 478 21 544.5 21 c 128,-1,37
 611 21 611 21 670.5 37 c 128,-1,38
 730 53 730 53 776 83 c 0,39,40
 881 150 881 150 881 253 c 0,41,42
 881 352 881 352 797 426 c 0,43,44
 704 507 704 507 432 628 c 0,45,46
 248 710 248 710 176 806 c 0,47,48
 105 901 105 901 105 1067 c 0,49,50
 105 1235 105 1235 228 1346 c 0,51,52
 355 1462 355 1462 555 1462 c 0,53,54
 751 1462 751 1462 864 1374 c 0,55,56
 965 1296 965 1296 965 1173 c 0,57,58
 965 1073 965 1073 879 1034 c 0,59,60
 851 1022 851 1022 816.5 1022 c 128,-1,61
 782 1022 782 1022 755 1033 c 128,-1,62
 728 1044 728 1044 708 1063 c 0,63,64
 668 1102 668 1102 668 1151 c 128,-1,65
 668 1200 668 1200 680 1227.5 c 128,-1,66
 692 1255 692 1255 712 1274 c 1,67,68
 754 1311 754 1311 821 1311 c 1,69,-1
 821 1315 l 1,0,1
EndSplineSet
EndChar

StartChar: T
Encoding: 84 84 55
Width: 1232
Flags: W
LayerCount: 2
Fore
SplineSet
485 1371 m 1,0,-1
 446 1372 l 1,1,2
 357 1372 357 1372 302.5 1348.5 c 128,-1,3
 248 1325 248 1325 213.5 1273 c 128,-1,4
 179 1221 179 1221 158 1138 c 128,-1,5
 137 1055 137 1055 115 937 c 1,6,-1
 60 937 l 1,7,-1
 70 1427 l 1,8,-1
 1162 1427 l 1,9,-1
 1172 938 l 1,10,-1
 1117 938 l 1,11,12
 1082 1123 1082 1123 1061 1181 c 128,-1,13
 1040 1239 1040 1239 1017.5 1273.5 c 128,-1,14
 995 1308 995 1308 964 1330 c 0,15,16
 902 1373 902 1373 786 1373 c 1,17,-1
 747 1372 l 1,18,-1
 747 55 l 1,19,-1
 902 45 l 1,20,-1
 902 0 l 1,21,-1
 338 0 l 1,22,-1
 338 45 l 1,23,-1
 491 55 l 1,24,-1
 485 1371 l 1,0,-1
EndSplineSet
EndChar

StartChar: U
Encoding: 85 85 56
Width: 1431
Flags: W
LayerCount: 2
Fore
SplineSet
202 1372 m 1,0,-1
 49 1382 l 1,1,-1
 49 1427 l 1,2,-1
 613 1427 l 1,3,-1
 613 1382 l 1,4,-1
 458 1372 l 1,5,-1
 458 438 l 2,6,7
 458 195 458 195 570 104 c 1,8,9
 654 34 654 34 783 34 c 128,-1,10
 912 34 912 34 981.5 72 c 128,-1,11
 1051 110 1051 110 1092 172 c 1,12,13
 1165 286 1165 286 1165 478 c 2,14,-1
 1165 1372 l 1,15,-1
 1012 1382 l 1,16,-1
 1012 1427 l 1,17,-1
 1382 1427 l 1,18,-1
 1382 1382 l 1,19,-1
 1229 1372 l 1,20,-1
 1229 456 l 2,21,22
 1229 74 1229 74 936 -14 c 0,23,24
 867 -35 867 -35 754.5 -35 c 128,-1,25
 642 -35 642 -35 548 -14 c 128,-1,26
 454 7 454 7 390.5 43.5 c 128,-1,27
 327 80 327 80 289.5 129 c 128,-1,28
 252 178 252 178 232 236 c 0,29,30
 202 325 202 325 202 479 c 2,31,-1
 202 1372 l 1,0,-1
EndSplineSet
EndChar

StartChar: V
Encoding: 86 86 57
Width: 1314
Flags: W
LayerCount: 2
Fore
SplineSet
778 358 m 1,0,-1
 782 358 l 1,1,-1
 1130 1372 l 1,2,-1
 995 1382 l 1,3,-1
 995 1427 l 1,4,-1
 1314 1427 l 1,5,-1
 1314 1382 l 1,6,-1
 1193 1372 l 1,7,-1
 718 -20 l 1,8,-1
 673 -20 l 1,9,-1
 112 1372 l 1,10,-1
 -39 1382 l 1,11,-1
 -39 1427 l 1,12,-1
 516 1427 l 1,13,-1
 516 1382 l 1,14,-1
 380 1372 l 1,15,-1
 778 358 l 1,0,-1
EndSplineSet
EndChar

StartChar: W
Encoding: 87 87 58
Width: 1844
Flags: W
LayerCount: 2
Fore
SplineSet
1376 377 m 1,0,-1
 1380 377 l 1,1,-1
 1666 1372 l 1,2,-1
 1531 1382 l 1,3,-1
 1531 1427 l 1,4,-1
 1848 1427 l 1,5,-1
 1848 1382 l 1,6,-1
 1727 1372 l 1,7,-1
 1321 -20 l 1,8,-1
 1276 -20 l 1,9,-1
 908 1023 l 1,10,-1
 906 1023 l 1,11,-1
 600 -20 l 1,12,-1
 555 -20 l 1,13,-1
 124 1372 l 1,14,-1
 -27 1382 l 1,15,-1
 -27 1427 l 1,16,-1
 528 1427 l 1,17,-1
 528 1382 l 1,18,-1
 392 1372 l 1,19,-1
 658 373 l 1,20,-1
 662 373 l 1,21,-1
 971 1448 l 1,22,-1
 1016 1448 l 1,23,-1
 1376 377 l 1,0,-1
EndSplineSet
EndChar

StartChar: X
Encoding: 88 88 59
Width: 1345
Flags: W
LayerCount: 2
Fore
SplineSet
595 587 m 1,0,-1
 593 587 l 1,1,-1
 274 55 l 1,2,-1
 424 45 l 1,3,-1
 424 0 l 1,4,-1
 69 0 l 1,5,-1
 69 45 l 1,6,-1
 200 55 l 1,7,-1
 556 647 l 1,8,-1
 112 1372 l 1,9,-1
 -11 1382 l 1,10,-1
 -11 1427 l 1,11,-1
 549 1427 l 1,12,-1
 549 1382 l 1,13,-1
 399 1372 l 1,14,-1
 713 862 l 1,15,-1
 715 862 l 1,16,-1
 1022 1372 l 1,17,-1
 893 1382 l 1,18,-1
 893 1427 l 1,19,-1
 1224 1427 l 1,20,-1
 1224 1382 l 1,21,-1
 1093 1372 l 1,22,-1
 752 802 l 1,23,-1
 1216 55 l 1,24,-1
 1370 45 l 1,25,-1
 1370 0 l 1,26,-1
 745 0 l 1,27,-1
 745 45 l 1,28,-1
 919 55 l 1,29,-1
 595 587 l 1,0,-1
EndSplineSet
EndChar

StartChar: Y
Encoding: 89 89 60
Width: 1219
Flags: W
LayerCount: 2
Fore
SplineSet
-37 1382 m 1,0,-1
 -37 1427 l 1,1,-1
 550 1427 l 1,2,-1
 550 1382 l 1,3,-1
 395 1372 l 1,4,-1
 732 765 l 1,5,-1
 737 765 l 1,6,-1
 1019 1372 l 1,7,-1
 878 1382 l 1,8,-1
 878 1427 l 1,9,-1
 1211 1427 l 1,10,-1
 1211 1382 l 1,11,-1
 1087 1372 l 1,12,-1
 775 703 l 1,13,-1
 775 55 l 1,14,-1
 929 45 l 1,15,-1
 929 0 l 1,16,-1
 366 0 l 1,17,-1
 366 45 l 1,18,-1
 519 55 l 1,19,-1
 519 644 l 1,20,-1
 98 1372 l 1,21,-1
 -37 1382 l 1,0,-1
EndSplineSet
EndChar

StartChar: Z
Encoding: 90 90 61
Width: 1187
Flags: W
LayerCount: 2
Fore
SplineSet
98 55 m 1,0,-1
 825 1378 l 1,1,-1
 488 1372 l 1,2,3
 328 1368 328 1368 248 1266 c 0,4,5
 171 1168 171 1168 140 958 c 1,6,-1
 95 958 l 1,7,-1
 126 1427 l 1,8,-1
 1054 1427 l 1,9,-1
 1054 1374 l 1,10,-1
 363 51 l 1,11,-1
 744 45 l 2,12,13
 746 45 746 45 748 45 c 0,14,15
 953 45 953 45 1022 350 c 0,16,17
 1042 438 1042 438 1054 530 c 1,18,-1
 1099 530 l 1,19,-1
 1068 0 l 1,20,-1
 98 0 l 1,21,-1
 98 55 l 1,0,-1
EndSplineSet
EndChar

StartChar: bracketleft
Encoding: 91 91 62
Width: 547
Flags: W
LayerCount: 2
Fore
SplineSet
153 1462 m 1,0,-1
 506 1462 l 1,1,-1
 506 1402 l 1,2,-1
 347 1401 l 1,3,-1
 347 -434 l 1,4,-1
 510 -435 l 1,5,-1
 510 -495 l 1,6,-1
 152 -495 l 1,7,-1
 153 1462 l 1,0,-1
EndSplineSet
EndChar

StartChar: backslash
Encoding: 92 92 63
Width: 850
Flags: W
LayerCount: 2
Fore
SplineSet
784 -495 m 1,0,-1
 -58 1462 l 1,1,-1
 65 1462 l 1,2,-1
 906 -495 l 1,3,-1
 784 -495 l 1,0,-1
EndSplineSet
EndChar

StartChar: bracketright
Encoding: 93 93 64
Width: 547
Flags: W
LayerCount: 2
Fore
SplineSet
395 -495 m 1,0,-1
 37 -495 l 1,1,-1
 37 -435 l 1,2,-1
 200 -434 l 1,3,-1
 200 1401 l 1,4,-1
 41 1402 l 1,5,-1
 41 1462 l 1,6,-1
 394 1462 l 1,7,-1
 395 -495 l 1,0,-1
EndSplineSet
EndChar

StartChar: asciicircum
Encoding: 94 94 65
Width: 1299
Flags: W
LayerCount: 2
Fore
SplineSet
672 1462 m 1,0,-1
 1219 950 l 1,1,-1
 1090 950 l 1,2,-1
 649 1354 l 1,3,-1
 647 1354 l 1,4,-1
 207 950 l 1,5,-1
 80 950 l 1,6,-1
 634 1462 l 1,7,-1
 672 1462 l 1,0,-1
EndSplineSet
EndChar

StartChar: underscore
Encoding: 95 95 66
Width: 1091
Flags: W
LayerCount: 2
Fore
SplineSet
66 -111 m 1,0,-1
 1025 -111 l 1,1,-1
 1025 -197 l 1,2,-1
 66 -197 l 1,3,-1
 66 -111 l 1,0,-1
EndSplineSet
EndChar

StartChar: grave
Encoding: 96 96 67
Width: 488
Flags: W
LayerCount: 2
Fore
SplineSet
115 1409 m 2,0,1
 85 1441 85 1441 85 1484.5 c 128,-1,2
 85 1528 85 1528 110.5 1555 c 128,-1,3
 136 1582 136 1582 171 1582 c 128,-1,4
 206 1582 206 1582 230.5 1562 c 128,-1,5
 255 1542 255 1542 264 1513 c 1,6,-1
 375 1195 l 1,7,-1
 338 1169 l 1,8,-1
 115 1409 l 2,0,1
EndSplineSet
EndChar

StartChar: a
Encoding: 97 97 68
Width: 1005
Flags: W
LayerCount: 2
Fore
SplineSet
611 490 m 1,0,1
 566 495 566 495 529 495 c 128,-1,2
 492 495 492 495 453.5 480.5 c 128,-1,3
 415 466 415 466 389.5 443.5 c 128,-1,4
 364 421 364 421 349 392 c 128,-1,5
 334 363 334 363 326 334 c 0,6,7
 314 292 314 292 314 246 c 128,-1,8
 314 200 314 200 321 167.5 c 128,-1,9
 328 135 328 135 343 111 c 0,10,11
 376 59 376 59 432 59 c 0,12,13
 499 59 499 59 554 142 c 1,14,15
 611 230 611 230 611 352 c 2,16,-1
 611 490 l 1,0,1
434 987 m 0,17,18
 286 987 286 987 221 872 c 1,19,-1
 221 868 l 1,20,21
 237 871 237 871 252 871 c 0,22,23
 303 871 303 871 333.5 840 c 128,-1,24
 364 809 364 809 364 765 c 128,-1,25
 364 721 364 721 354.5 698.5 c 128,-1,26
 345 676 345 676 328 660 c 1,27,28
 293 624 293 624 250 624 c 128,-1,29
 207 624 207 624 183.5 635.5 c 128,-1,30
 160 647 160 647 144 666 c 0,31,32
 111 704 111 704 111 761.5 c 128,-1,33
 111 819 111 819 141.5 870 c 128,-1,34
 172 921 172 921 222 958 c 0,35,36
 328 1034 328 1034 462 1034 c 128,-1,37
 596 1034 596 1034 672.5 1003 c 128,-1,38
 749 972 749 972 790 914.5 c 128,-1,39
 831 857 831 857 843.5 775 c 128,-1,40
 856 693 856 693 856 590 c 2,41,-1
 856 51 l 1,42,-1
 959 41 l 1,43,-1
 959 0 l 1,44,-1
 641 0 l 1,45,-1
 613 158 l 1,46,-1
 611 158 l 1,47,48
 563 64 563 64 494.5 17 c 128,-1,49
 426 -30 426 -30 342.5 -30 c 128,-1,50
 259 -30 259 -30 211.5 -8.5 c 128,-1,51
 164 13 164 13 133 48 c 0,52,53
 72 115 72 115 72 217 c 0,54,55
 72 349 72 349 176 438 c 0,56,57
 296 540 296 540 518 540 c 0,58,59
 561 540 561 540 611 536 c 1,60,-1
 611 674 l 2,61,62
 611 840 611 840 588.5 891.5 c 128,-1,63
 566 943 566 943 530.5 965 c 128,-1,64
 495 987 495 987 434 987 c 0,17,18
EndSplineSet
EndChar

StartChar: b
Encoding: 98 98 69
Width: 1089
Flags: W
LayerCount: 2
Fore
SplineSet
392 865 m 1,0,-1
 396 865 l 1,1,2
 477 1003 477 1003 594 1026 c 0,3,4
 631 1034 631 1034 666 1034 c 128,-1,5
 701 1034 701 1034 736.5 1027 c 128,-1,6
 772 1020 772 1020 809 1000 c 128,-1,7
 846 980 846 980 881.5 943.5 c 128,-1,8
 917 907 917 907 944 849 c 0,9,10
 1005 721 1005 721 1005 510 c 0,11,12
 1005 276 1005 276 909 131 c 0,13,14
 802 -30 802 -30 607 -30 c 0,15,16
 518 -30 518 -30 442 26 c 0,17,18
 414 46 414 46 392 78 c 1,19,-1
 188 -10 l 1,20,-1
 147 -10 l 1,21,-1
 147 1348 l 1,22,-1
 24 1348 l 1,23,-1
 24 1389 l 1,24,-1
 233 1411 l 1,25,-1
 374 1448 l 1,26,-1
 392 1419 l 1,27,-1
 392 865 l 1,0,-1
647 935 m 128,-1,29
 615 954 615 954 576.5 954 c 128,-1,30
 538 954 538 954 504.5 931.5 c 128,-1,31
 471 909 471 909 446 872 c 0,32,33
 392 794 392 794 392 695 c 2,34,-1
 392 215 l 2,35,36
 392 143 392 143 440 87 c 0,37,38
 490 30 490 30 545.5 30 c 128,-1,39
 601 30 601 30 634 53 c 128,-1,40
 667 76 667 76 688.5 115 c 128,-1,41
 710 154 710 154 722.5 204.5 c 128,-1,42
 735 255 735 255 740 310 c 0,43,44
 749 394 749 394 749 522 c 128,-1,45
 749 650 749 650 736.5 734 c 128,-1,46
 724 818 724 818 701.5 867 c 128,-1,28
 679 916 679 916 647 935 c 128,-1,29
EndSplineSet
EndChar

StartChar: c
Encoding: 99 99 70
Width: 946
Flags: W
LayerCount: 2
Fore
SplineSet
892 193 m 1,0,1
 768 -30 768 -30 540 -30 c 0,2,3
 81 -30 81 -30 81 496 c 0,4,5
 81 697 81 697 193 854 c 0,6,7
 271 964 271 964 401 1010 c 0,8,9
 467 1034 467 1034 543 1034 c 128,-1,10
 619 1034 619 1034 678 1012.5 c 128,-1,11
 737 991 737 991 780 955 c 0,12,13
 870 880 870 880 870 770 c 0,14,15
 870 717 870 717 846 690 c 0,16,17
 802 641 802 641 744.5 641 c 128,-1,18
 687 641 687 641 652.5 676 c 128,-1,19
 618 711 618 711 618 749.5 c 128,-1,20
 618 788 618 788 626.5 810.5 c 128,-1,21
 635 833 635 833 650 850 c 0,22,23
 683 886 683 886 734 886 c 0,24,25
 745 886 745 886 759 884 c 1,26,-1
 759 889 l 1,27,28
 702 984 702 984 585 984 c 0,29,30
 456 984 456 984 392 844 c 0,31,32
 337 722 337 722 337 500 c 0,33,34
 337 136 337 136 488 61 c 0,35,36
 533 39 533 39 571 39 c 128,-1,37
 609 39 609 39 641 43.5 c 128,-1,38
 673 48 673 48 708 66 c 0,39,40
 788 107 788 107 853 216 c 1,41,-1
 892 193 l 1,0,1
EndSplineSet
EndChar

StartChar: d
Encoding: 100 100 71
Width: 1106
Flags: W
LayerCount: 2
Fore
SplineSet
696 142 m 1,0,1
 612 1 612 1 501 -22 c 0,2,3
 465 -30 465 -30 433 -30 c 128,-1,4
 401 -30 401 -30 366.5 -23 c 128,-1,5
 332 -16 332 -16 294 4 c 128,-1,6
 256 24 256 24 218 59.5 c 128,-1,7
 180 95 180 95 150 151 c 0,8,9
 82 278 82 278 82 477 c 0,10,11
 82 709 82 709 188 862 c 0,12,13
 307 1034 307 1034 525 1034 c 0,14,15
 590 1034 590 1034 634.5 1016 c 128,-1,16
 679 998 679 998 697 983 c 1,17,-1
 697 1348 l 1,18,-1
 574 1348 l 1,19,-1
 574 1389 l 1,20,-1
 783 1411 l 1,21,-1
 924 1448 l 1,22,-1
 943 1419 l 1,23,-1
 943 51 l 1,24,-1
 1045 41 l 1,25,-1
 1045 0 l 1,26,-1
 711 0 l 1,27,-1
 698 142 l 1,28,-1
 696 142 l 1,0,1
338 487 m 0,29,30
 338 54 338 54 517 54 c 0,31,32
 588 54 588 54 644 140 c 1,33,34
 697 225 697 225 697 321 c 2,35,-1
 697 934 l 1,36,37
 640 977 640 977 577.5 977 c 128,-1,38
 515 977 515 977 476 952.5 c 128,-1,39
 437 928 437 928 411.5 887.5 c 128,-1,40
 386 847 386 847 371 795 c 128,-1,41
 356 743 356 743 349 688 c 0,42,43
 338 603 338 603 338 487 c 0,29,30
EndSplineSet
EndChar

StartChar: e
Encoding: 101 101 72
Width: 982
Flags: W
LayerCount: 2
Fore
SplineSet
905 187 m 1,0,1
 777 -30 777 -30 538 -30 c 0,2,3
 309 -30 309 -30 191 117 c 0,4,5
 81 254 81 254 81 502 c 0,6,7
 81 712 81 712 182 862 c 1,8,9
 296 1034 296 1034 510 1034 c 0,10,11
 712 1034 712 1034 810 898 c 0,12,13
 896 777 896 777 896 557 c 1,14,-1
 869 532 l 1,15,-1
 337 532 l 1,16,-1
 337 471 l 2,17,18
 337 35 337 35 585 35 c 0,19,20
 761 35 761 35 866 211 c 1,21,-1
 905 187 l 1,0,1
663 688 m 0,22,23
 663 989 663 989 514 989 c 0,24,25
 379 989 379 989 349 737 c 0,26,27
 340 662 340 662 337 577 c 1,28,-1
 660 590 l 1,29,30
 663 641 663 641 663 688 c 0,22,23
EndSplineSet
EndChar

StartChar: f
Encoding: 102 102 73
Width: 680
Flags: W
LayerCount: 2
Fore
SplineSet
562 1378 m 1,0,1
 554 1403 554 1403 518 1403 c 128,-1,2
 482 1403 482 1403 465.5 1387 c 128,-1,3
 449 1371 449 1371 441 1346 c 0,4,5
 429 1310 429 1310 429 1237 c 2,6,-1
 429 1004 l 1,7,-1
 670 1004 l 1,8,-1
 670 961 l 1,9,-1
 429 951 l 1,10,-1
 429 51 l 1,11,-1
 572 41 l 1,12,-1
 572 0 l 1,13,-1
 81 0 l 1,14,-1
 81 41 l 1,15,-1
 183 51 l 1,16,-1
 183 951 l 1,17,-1
 36 961 l 1,18,-1
 36 1004 l 1,19,-1
 183 1004 l 1,20,21
 185 1197 185 1197 253 1310 c 0,22,23
 304 1394 304 1394 396 1428 c 0,24,25
 449 1448 449 1448 513.5 1448 c 128,-1,26
 578 1448 578 1448 620 1435 c 128,-1,27
 662 1422 662 1422 690 1400 c 0,28,29
 748 1354 748 1354 748 1280 c 0,30,31
 748 1231 748 1231 725 1205 c 0,32,33
 685 1161 685 1161 644.5 1161 c 128,-1,34
 604 1161 604 1161 583 1171 c 128,-1,35
 562 1181 562 1181 548 1198 c 1,36,37
 519 1230 519 1230 519 1288.5 c 128,-1,38
 519 1347 519 1347 562 1374 c 1,39,-1
 562 1378 l 1,0,1
EndSplineSet
EndChar

StartChar: g
Encoding: 103 103 74
Width: 1121
Flags: W
LayerCount: 2
Fore
SplineSet
289 -45 m 1,0,1
 103 9 103 9 103 156 c 0,2,3
 103 244 103 244 172 312 c 1,4,5
 227 368 227 368 300 390 c 1,6,-1
 300 392 l 1,7,8
 206 436 206 436 160.5 513.5 c 128,-1,9
 115 591 115 591 115 675.5 c 128,-1,10
 115 760 115 760 147 823.5 c 128,-1,11
 179 887 179 887 235 934 c 0,12,13
 354 1034 354 1034 524 1034 c 128,-1,14
 694 1034 694 1034 805 947 c 1,15,16
 885 1100 885 1100 1000 1100 c 0,17,18
 1060 1100 1060 1100 1091.5 1066.5 c 128,-1,19
 1123 1033 1123 1033 1123 985.5 c 128,-1,20
 1123 938 1123 938 1097 907.5 c 128,-1,21
 1071 877 1071 877 1027.5 877 c 128,-1,22
 984 877 984 877 955 901.5 c 128,-1,23
 926 926 926 926 926 964.5 c 128,-1,24
 926 1003 926 1003 937 1022 c 1,25,-1
 937 1026 l 1,26,27
 911 1021 911 1021 885 989.5 c 128,-1,28
 859 958 859 958 842 913 c 1,29,30
 933 816 933 816 933 687 c 0,31,32
 933 537 933 537 818 442 c 0,33,34
 702 347 702 347 527 347 c 0,35,36
 430 347 430 347 351 372 c 1,37,38
 291 351 291 351 257 320 c 128,-1,39
 223 289 223 289 223 254 c 0,40,41
 223 162 223 162 555 162 c 0,42,43
 823 162 823 162 922 98 c 0,44,45
 1023 33 1023 33 1023 -141 c 0,46,47
 1023 -277 1023 -277 915 -376 c 0,48,49
 785 -495 785 -495 541 -495 c 0,50,51
 179 -495 179 -495 88 -344 c 0,52,53
 66 -307 66 -307 66 -252 c 128,-1,54
 66 -197 66 -197 92 -157 c 128,-1,55
 118 -117 118 -117 154 -93 c 0,56,57
 223 -47 223 -47 289 -47 c 1,58,-1
 289 -45 l 1,0,1
889 -313.5 m 128,-1,60
 912 -274 912 -274 912 -223.5 c 128,-1,61
 912 -173 912 -173 886 -141.5 c 128,-1,62
 860 -110 860 -110 816 -94.5 c 128,-1,63
 772 -79 772 -79 714 -74.5 c 128,-1,64
 656 -70 656 -70 591 -69 c 0,65,66
 398 -66 398 -66 330 -55 c 1,67,68
 329 -56 329 -56 315.5 -66 c 128,-1,69
 302 -76 302 -76 286 -97 c 0,70,71
 244 -152 244 -152 244 -221 c 128,-1,72
 244 -290 244 -290 274 -332 c 128,-1,73
 304 -374 304 -374 352 -398 c 0,74,75
 439 -443 439 -443 547.5 -443 c 128,-1,76
 656 -443 656 -443 718 -427 c 128,-1,77
 780 -411 780 -411 823 -382 c 128,-1,59
 866 -353 866 -353 889 -313.5 c 128,-1,60
361 691 m 0,78,79
 361 392 361 392 524 392 c 128,-1,80
 687 392 687 392 687 685 c 0,81,82
 687 841 687 841 651 915 c 128,-1,83
 615 989 615 989 531 989 c 128,-1,84
 447 989 447 989 404 911 c 128,-1,85
 361 833 361 833 361 691 c 0,78,79
EndSplineSet
EndChar

StartChar: h
Encoding: 104 104 75
Width: 1149
Flags: W
LayerCount: 2
Fore
SplineSet
409 860 m 1,0,1
 527 1034 527 1034 717 1034 c 0,2,3
 931 1034 931 1034 984 828 c 0,4,5
 997 775 997 775 997 702 c 2,6,-1
 997 51 l 1,7,-1
 1099 41 l 1,8,-1
 1099 0 l 1,9,-1
 649 0 l 1,10,-1
 649 41 l 1,11,-1
 751 51 l 1,12,-1
 751 731 l 2,13,14
 751 865 751 865 696 916 c 1,15,16
 664 944 664 944 616.5 944 c 128,-1,17
 569 944 569 944 531.5 922.5 c 128,-1,18
 494 901 494 901 467 862 c 0,19,20
 409 778 409 778 409 647 c 2,21,-1
 409 51 l 1,22,-1
 512 41 l 1,23,-1
 512 0 l 1,24,-1
 61 0 l 1,25,-1
 61 41 l 1,26,-1
 164 51 l 1,27,-1
 164 1348 l 1,28,-1
 41 1348 l 1,29,-1
 41 1389 l 1,30,-1
 250 1411 l 1,31,-1
 391 1448 l 1,32,-1
 405 1419 l 1,33,-1
 405 860 l 1,34,-1
 409 860 l 1,0,1
EndSplineSet
EndChar

StartChar: i
Encoding: 105 105 76
Width: 586
Flags: W
LayerCount: 2
Fore
SplineSet
425 51 m 1,0,-1
 528 41 l 1,1,-1
 528 0 l 1,2,-1
 77 0 l 1,3,-1
 77 41 l 1,4,-1
 180 51 l 1,5,-1
 180 924 l 1,6,-1
 57 924 l 1,7,-1
 57 965 l 1,8,-1
 266 987 l 1,9,-1
 407 1024 l 1,10,-1
 425 995 l 1,11,-1
 425 51 l 1,0,-1
298 1511 m 256,12,13
 353 1511 353 1511 392 1472 c 128,-1,14
 431 1433 431 1433 431 1392 c 128,-1,15
 431 1351 431 1351 420.5 1327 c 128,-1,16
 410 1303 410 1303 392 1285 c 0,17,18
 353 1246 353 1246 298 1246 c 256,19,20
 243 1246 243 1246 204 1285 c 0,21,22
 166 1323 166 1323 166 1364 c 0,23,24
 166 1434 166 1434 204.5 1472.5 c 128,-1,25
 243 1511 243 1511 298 1511 c 256,12,13
EndSplineSet
EndChar

StartChar: j
Encoding: 106 106 77
Width: 561
Flags: W
LayerCount: 2
Fore
SplineSet
24 -427 m 1,0,1
 38 -450 38 -450 62.5 -450 c 128,-1,2
 87 -450 87 -450 103.5 -445 c 128,-1,3
 120 -440 120 -440 134 -420 c 0,4,5
 169 -371 169 -371 169 -245 c 2,6,-1
 169 924 l 1,7,-1
 46 924 l 1,8,-1
 46 965 l 1,9,-1
 255 987 l 1,10,-1
 397 1024 l 1,11,-1
 415 995 l 1,12,-1
 415 -45 l 2,13,14
 415 -243 415 -243 338 -357 c 0,15,16
 246 -495 246 -495 48 -495 c 0,17,18
 -62 -495 -62 -495 -116 -443 c 0,19,20
 -160 -401 -160 -401 -160 -333 c 0,21,22
 -160 -283 -160 -283 -136 -256 c 0,23,24
 -92 -208 -92 -208 -51.5 -208 c 128,-1,25
 -11 -208 -11 -208 10.5 -218 c 128,-1,26
 32 -228 32 -228 46 -245 c 0,27,28
 75 -278 75 -278 75 -327 c 0,29,30
 75 -367 75 -367 56 -391 c 128,-1,31
 37 -415 37 -415 24 -423 c 1,32,-1
 24 -427 l 1,0,1
288 1511 m 256,33,34
 343 1511 343 1511 382 1472 c 128,-1,35
 421 1433 421 1433 421 1392 c 128,-1,36
 421 1351 421 1351 410.5 1327 c 128,-1,37
 400 1303 400 1303 382 1285 c 0,38,39
 343 1246 343 1246 288 1246 c 256,40,41
 233 1246 233 1246 194 1285 c 0,42,43
 156 1323 156 1323 156 1364 c 0,44,45
 156 1434 156 1434 194.5 1472.5 c 128,-1,46
 233 1511 233 1511 288 1511 c 256,33,34
EndSplineSet
EndChar

StartChar: k
Encoding: 107 107 78
Width: 1080
Flags: W
LayerCount: 2
Fore
SplineSet
585 647 m 1,0,-1
 987 51 l 1,1,-1
 1091 41 l 1,2,-1
 1091 0 l 1,3,-1
 633 0 l 1,4,-1
 633 41 l 1,5,-1
 714 51 l 1,6,-1
 409 522 l 1,7,-1
 409 51 l 1,8,-1
 512 41 l 1,9,-1
 512 0 l 1,10,-1
 61 0 l 1,11,-1
 61 41 l 1,12,-1
 164 51 l 1,13,-1
 164 1350 l 1,14,-1
 43 1348 l 1,15,-1
 41 1389 l 1,16,-1
 250 1411 l 1,17,-1
 391 1448 l 1,18,-1
 409 1419 l 1,19,-1
 409 547 l 1,20,-1
 798 952 l 1,21,-1
 686 963 l 1,22,-1
 686 1004 l 1,23,-1
 985 1004 l 1,24,-1
 985 963 l 1,25,-1
 872 952 l 1,26,-1
 585 647 l 1,0,-1
EndSplineSet
EndChar

StartChar: l
Encoding: 108 108 79
Width: 572
Flags: W
LayerCount: 2
Fore
SplineSet
409 51 m 1,0,-1
 512 41 l 1,1,-1
 512 0 l 1,2,-1
 61 0 l 1,3,-1
 61 41 l 1,4,-1
 164 51 l 1,5,-1
 164 1348 l 1,6,-1
 41 1348 l 1,7,-1
 41 1389 l 1,8,-1
 250 1411 l 1,9,-1
 391 1448 l 1,10,-1
 409 1419 l 1,11,-1
 409 51 l 1,0,-1
EndSplineSet
EndChar

StartChar: m
Encoding: 109 109 80
Width: 1700
Flags: W
LayerCount: 2
Fore
SplineSet
965 847 m 1,0,1
 1099 1034 1099 1034 1277 1034 c 0,2,3
 1453 1034 1453 1034 1521 872 c 0,4,5
 1549 806 1549 806 1549 696 c 2,6,-1
 1549 51 l 1,7,-1
 1652 41 l 1,8,-1
 1652 0 l 1,9,-1
 1201 0 l 1,10,-1
 1201 41 l 1,11,-1
 1303 51 l 1,12,-1
 1303 731 l 2,13,14
 1303 865 1303 865 1252 916 c 0,15,16
 1224 944 1224 944 1186 944 c 128,-1,17
 1148 944 1148 944 1114 927.5 c 128,-1,18
 1080 911 1080 911 1051 876 c 0,19,20
 982 794 982 794 982 667 c 2,21,-1
 982 51 l 1,22,-1
 1085 41 l 1,23,-1
 1085 0 l 1,24,-1
 634 0 l 1,25,-1
 634 41 l 1,26,-1
 736 51 l 1,27,-1
 736 731 l 2,28,29
 736 866 736 866 686 916 c 0,30,31
 658 944 658 944 620 944 c 128,-1,32
 582 944 582 944 549.5 922.5 c 128,-1,33
 517 901 517 901 489 862 c 0,34,35
 425 773 425 773 425 647 c 2,36,-1
 425 51 l 1,37,-1
 528 41 l 1,38,-1
 528 0 l 1,39,-1
 77 0 l 1,40,-1
 77 41 l 1,41,-1
 180 51 l 1,42,-1
 180 924 l 1,43,-1
 57 924 l 1,44,-1
 57 965 l 1,45,-1
 266 987 l 1,46,-1
 407 1024 l 1,47,-1
 421 995 l 1,48,-1
 421 860 l 1,49,-1
 425 860 l 1,50,51
 543 1034 543 1034 712 1034 c 0,52,53
 840 1034 840 1034 915 942 c 0,54,55
 945 906 945 906 963 847 c 1,56,-1
 965 847 l 1,0,1
EndSplineSet
EndChar

StartChar: n
Encoding: 110 110 81
Width: 1164
Flags: W
LayerCount: 2
Fore
SplineSet
424 860 m 1,0,1
 542 1034 542 1034 732 1034 c 0,2,3
 946 1034 946 1034 998 828 c 0,4,5
 1012 775 1012 775 1012 702 c 2,6,-1
 1012 51 l 1,7,-1
 1114 41 l 1,8,-1
 1114 0 l 1,9,-1
 664 0 l 1,10,-1
 664 41 l 1,11,-1
 766 51 l 1,12,-1
 766 731 l 2,13,14
 766 865 766 865 710 916 c 0,15,16
 679 944 679 944 631.5 944 c 128,-1,17
 584 944 584 944 546.5 922.5 c 128,-1,18
 509 901 509 901 482 862 c 0,19,20
 424 778 424 778 424 647 c 2,21,-1
 424 51 l 1,22,-1
 527 41 l 1,23,-1
 527 0 l 1,24,-1
 76 0 l 1,25,-1
 76 41 l 1,26,-1
 179 51 l 1,27,-1
 179 926 l 1,28,-1
 58 924 l 1,29,-1
 56 965 l 1,30,-1
 265 987 l 1,31,-1
 406 1024 l 1,32,-1
 424 995 l 1,33,-1
 420 860 l 1,34,-1
 424 860 l 1,0,1
EndSplineSet
EndChar

StartChar: o
Encoding: 111 111 82
Width: 1071
Flags: W
LayerCount: 2
Fore
SplineSet
548 1034 m 0,0,1
 655 1034 655 1034 740 988.5 c 128,-1,2
 825 943 825 943 881 868 c 0,3,4
 992 719 992 719 992 502 c 0,5,6
 992 276 992 276 868 125 c 1,7,8
 739 -30 739 -30 539 -30 c 0,9,10
 310 -30 310 -30 189 126 c 0,11,12
 80 266 80 266 80 496 c 128,-1,13
 80 726 80 726 209 880 c 0,14,15
 339 1034 339 1034 548 1034 c 0,0,1
336 508 m 0,16,17
 336 15 336 15 536 15 c 128,-1,18
 736 15 736 15 736 496 c 0,19,20
 736 866 736 866 632 956 c 0,21,22
 593 989 593 989 537 989 c 128,-1,23
 481 989 481 989 443 952.5 c 128,-1,24
 405 916 405 916 381 852 c 0,25,26
 336 732 336 732 336 508 c 0,16,17
EndSplineSet
EndChar

StartChar: p
Encoding: 112 112 83
Width: 1114
Flags: W
LayerCount: 2
Fore
SplineSet
586 -30 m 0,0,1
 479 -30 479 -30 414 21 c 1,2,-1
 414 -424 l 1,3,-1
 517 -434 l 1,4,-1
 517 -475 l 1,5,-1
 66 -475 l 1,6,-1
 66 -434 l 1,7,-1
 169 -424 l 1,8,-1
 169 924 l 1,9,-1
 46 924 l 1,10,-1
 46 965 l 1,11,-1
 255 987 l 1,12,-1
 396 1024 l 1,13,-1
 410 995 l 1,14,-1
 410 865 l 1,15,-1
 414 865 l 1,16,17
 495 1003 495 1003 608 1026 c 0,18,19
 644 1034 644 1034 676 1034 c 128,-1,20
 708 1034 708 1034 743 1027 c 128,-1,21
 778 1020 778 1020 816.5 999.5 c 128,-1,22
 855 979 855 979 893.5 943 c 128,-1,23
 932 907 932 907 962 849 c 0,24,25
 1031 719 1031 719 1031 512 c 0,26,27
 1031 277 1031 277 920 130 c 0,28,29
 799 -30 799 -30 586 -30 c 0,0,1
414 74 m 1,30,31
 471 23 471 23 532.5 23 c 128,-1,32
 594 23 594 23 634 47 c 128,-1,33
 674 71 674 71 700.5 111.5 c 128,-1,34
 727 152 727 152 742 204 c 128,-1,35
 757 256 757 256 764 312 c 0,36,37
 775 390 775 390 775 521 c 128,-1,38
 775 652 775 652 762.5 734.5 c 128,-1,39
 750 817 750 817 727 866 c 0,40,41
 686 954 686 954 599 954 c 0,42,43
 521 954 521 954 466 870 c 0,44,45
 414 790 414 790 414 688 c 2,46,-1
 414 74 l 1,30,31
EndSplineSet
EndChar

StartChar: q
Encoding: 113 113 84
Width: 1100
Flags: W
LayerCount: 2
Fore
SplineSet
1055 -434 m 1,0,-1
 1055 -475 l 1,1,-1
 605 -475 l 1,2,-1
 605 -434 l 1,3,-1
 707 -424 l 1,4,-1
 707 142 l 1,5,-1
 703 142 l 1,6,7
 620 1 620 1 508 -22 c 0,8,9
 471 -30 471 -30 439 -30 c 128,-1,10
 407 -30 407 -30 372 -24 c 128,-1,11
 337 -18 337 -18 298.5 1 c 128,-1,12
 260 20 260 20 221.5 54.5 c 128,-1,13
 183 89 183 89 152 146 c 0,14,15
 84 274 84 274 84 481 c 0,16,17
 84 715 84 715 185 866 c 0,18,19
 297 1034 297 1034 492 1034 c 0,20,21
 583 1034 583 1034 658 977 c 0,22,23
 685 956 685 956 707 925 c 1,24,-1
 912 1004 l 1,25,-1
 953 1004 l 1,26,-1
 953 -424 l 1,27,-1
 1055 -434 l 1,0,-1
455.5 68 m 128,-1,29
 487 51 487 51 520.5 51 c 128,-1,30
 554 51 554 51 588.5 74.5 c 128,-1,31
 623 98 623 98 650 136 c 0,32,33
 707 217 707 217 707 318 c 2,34,-1
 707 791 l 1,35,36
 701 865 701 865 656 918 c 0,37,38
 609 974 609 974 552.5 974 c 128,-1,39
 496 974 496 974 461.5 950 c 128,-1,40
 427 926 427 926 404 885.5 c 128,-1,41
 381 845 381 845 368 793 c 128,-1,42
 355 741 355 741 349 685 c 0,43,44
 340 601 340 601 340 471 c 128,-1,45
 340 341 340 341 356.5 259.5 c 128,-1,46
 373 178 373 178 398.5 131.5 c 128,-1,28
 424 85 424 85 455.5 68 c 128,-1,29
EndSplineSet
EndChar

StartChar: r
Encoding: 114 114 85
Width: 868
Flags: W
LayerCount: 2
Fore
SplineSet
607 824.5 m 128,-1,1
 598 847 598 847 598 884 c 128,-1,2
 598 921 598 921 620 950 c 1,3,-1
 620 956 l 1,4,5
 547 940 547 940 492 846 c 0,6,7
 425 731 425 731 425 549 c 2,8,-1
 425 51 l 1,9,-1
 528 41 l 1,10,-1
 528 0 l 1,11,-1
 77 0 l 1,12,-1
 77 41 l 1,13,-1
 180 51 l 1,14,-1
 180 924 l 1,15,-1
 57 924 l 1,16,-1
 57 965 l 1,17,-1
 266 987 l 1,18,-1
 407 1024 l 1,19,-1
 421 995 l 1,20,-1
 421 823 l 1,21,-1
 425 823 l 1,22,23
 493 958 493 958 606 1014 c 0,24,25
 646 1034 646 1034 707 1034 c 128,-1,26
 768 1034 768 1034 810.5 992.5 c 128,-1,27
 853 951 853 951 853 882 c 0,28,29
 853 792 853 792 780 758 c 0,30,31
 756 747 756 747 726.5 747 c 128,-1,32
 697 747 697 747 673 757 c 128,-1,33
 649 767 649 767 632.5 784.5 c 128,-1,0
 616 802 616 802 607 824.5 c 128,-1,1
EndSplineSet
EndChar

StartChar: s
Encoding: 115 115 86
Width: 912
Flags: W
LayerCount: 2
Fore
SplineSet
418 17 m 0,0,1
 532 17 532 17 586.5 59 c 128,-1,2
 641 101 641 101 641 164 c 128,-1,3
 641 227 641 227 596 272 c 0,4,5
 557 311 557 311 471 357 c 2,6,-1
 324 436 l 1,7,8
 92 555 92 555 92 736 c 0,9,10
 92 871 92 871 194 953 c 0,11,12
 295 1034 295 1034 457 1034 c 0,13,14
 588 1034 588 1034 681 976 c 0,15,16
 783 913 783 913 783 806 c 0,17,18
 783 730 783 730 716 698 c 0,19,20
 695 687 695 687 652 687 c 128,-1,21
 609 687 609 687 580 719 c 128,-1,22
 551 751 551 751 551 788.5 c 128,-1,23
 551 826 551 826 559 846.5 c 128,-1,24
 567 867 567 867 580 880 c 0,25,26
 607 907 607 907 647 907 c 2,27,-1
 656 907 l 1,28,-1
 656 909 l 1,29,30
 634 941 634 941 584.5 965 c 128,-1,31
 535 989 535 989 467.5 989 c 128,-1,32
 400 989 400 989 360 975 c 128,-1,33
 320 961 320 961 295 940 c 0,34,35
 247 898 247 898 247 841 c 0,36,37
 247 786 247 786 283 757 c 0,38,39
 337 714 337 714 435 663 c 2,40,-1
 598 579 l 1,41,42
 842 451 842 451 842 264 c 0,43,44
 842 54 842 54 610 -8 c 0,45,46
 531 -30 531 -30 451 -30 c 128,-1,47
 371 -30 371 -30 312.5 -17 c 128,-1,48
 254 -4 254 -4 204 24 c 0,49,50
 90 90 90 90 90 210 c 0,51,52
 90 268 90 268 116 299 c 1,53,54
 160 355 160 355 220 355 c 0,55,56
 299 355 299 355 326 284 c 0,57,58
 334 263 334 263 334.5 237 c 128,-1,59
 335 211 335 211 325 189.5 c 128,-1,60
 315 168 315 168 299 154 c 0,61,62
 266 125 266 125 222 125 c 2,63,-1
 214 125 l 2,64,65
 209 125 209 125 205 126 c 1,66,-1
 205 124 l 1,67,68
 236 54 236 54 339 26 c 0,69,70
 374 17 374 17 418 17 c 0,0,1
EndSplineSet
EndChar

StartChar: t
Encoding: 116 116 87
Width: 753
Flags: W
LayerCount: 2
Fore
SplineSet
261 1234 m 1,0,-1
 402 1271 l 1,1,-1
 421 1242 l 1,2,-1
 421 1004 l 1,3,-1
 640 1004 l 1,4,-1
 640 961 l 1,5,-1
 421 952 l 1,6,-1
 421 248 l 2,7,8
 421 135 421 135 472 92 c 0,9,10
 500 68 500 68 537.5 68 c 128,-1,11
 575 68 575 68 602.5 83 c 128,-1,12
 630 98 630 98 652.5 120.5 c 128,-1,13
 675 143 675 143 693 170 c 2,14,-1
 726 221 l 1,15,-1
 769 195 l 1,16,-1
 730 133 l 1,17,18
 671 43 671 43 578 -4 c 0,19,20
 527 -30 527 -30 475 -30 c 128,-1,21
 423 -30 423 -30 388.5 -25.5 c 128,-1,22
 354 -21 354 -21 322.5 -8 c 128,-1,23
 291 5 291 5 264 28 c 128,-1,24
 237 51 237 51 218 88 c 0,25,26
 175 170 175 170 175 305 c 2,27,-1
 175 952 l 1,28,-1
 5 961 l 1,29,-1
 5 1004 l 1,30,-1
 175 1004 l 1,31,-1
 175 1225 l 1,32,-1
 261 1234 l 1,0,-1
EndSplineSet
EndChar

StartChar: u
Encoding: 117 117 88
Width: 1142
Flags: W
LayerCount: 2
Fore
SplineSet
740 154 m 1,0,-1
 736 154 l 1,1,2
 681 73 681 73 637 38 c 0,3,4
 550 -30 550 -30 451 -30 c 0,5,6
 229 -30 229 -30 172 175 c 0,7,8
 158 228 158 228 158 301 c 2,9,-1
 158 924 l 1,10,-1
 35 924 l 1,11,-1
 35 965 l 1,12,-1
 244 987 l 1,13,-1
 385 1024 l 1,14,-1
 404 995 l 1,15,-1
 404 273 l 2,16,17
 404 140 404 140 464 90 c 0,18,19
 496 63 496 63 539 63 c 128,-1,20
 582 63 582 63 615.5 85.5 c 128,-1,21
 649 108 649 108 676 148 c 0,22,23
 736 238 736 238 736 369 c 2,24,-1
 736 924 l 1,25,-1
 613 924 l 1,26,-1
 613 965 l 1,27,-1
 822 987 l 1,28,-1
 963 1024 l 1,29,-1
 981 995 l 1,30,-1
 981 51 l 1,31,-1
 1084 41 l 1,32,-1
 1084 0 l 1,33,-1
 770 0 l 1,34,-1
 740 154 l 1,0,-1
EndSplineSet
EndChar

StartChar: v
Encoding: 118 118 89
Width: 963
Flags: W
LayerCount: 2
Fore
SplineSet
699 963 m 1,0,-1
 699 1004 l 1,1,-1
 973 1004 l 1,2,-1
 973 963 l 1,3,-1
 869 952 l 1,4,-1
 534 -10 l 1,5,-1
 488 -10 l 1,6,-1
 87 952 l 1,7,-1
 -12 963 l 1,8,-1
 -12 1004 l 1,9,-1
 461 1004 l 1,10,-1
 461 963 l 1,11,-1
 353 952 l 1,12,-1
 589 322 l 1,13,-1
 593 322 l 1,14,-1
 809 952 l 1,15,-1
 699 963 l 1,0,-1
EndSplineSet
EndChar

StartChar: w
Encoding: 119 119 90
Width: 1476
Flags: W
LayerCount: 2
Fore
SplineSet
1210 963 m 1,0,-1
 1210 1004 l 1,1,-1
 1486 1004 l 1,2,-1
 1486 963 l 1,3,-1
 1382 952 l 1,4,-1
 1053 -10 l 1,5,-1
 1008 -10 l 1,6,-1
 745 690 l 1,7,-1
 503 -10 l 1,8,-1
 457 -10 l 1,9,-1
 86 952 l 1,10,-1
 -12 963 l 1,11,-1
 -12 1004 l 1,12,-1
 453 1004 l 1,13,-1
 453 963 l 1,14,-1
 353 952 l 1,15,-1
 558 328 l 1,16,-1
 562 328 l 1,17,-1
 717 764 l 1,18,-1
 646 952 l 1,19,-1
 556 963 l 1,20,-1
 556 1004 l 1,21,-1
 1003 1004 l 1,22,-1
 1003 963 l 1,23,-1
 894 952 l 1,24,-1
 1106 319 l 1,25,-1
 1110 319 l 1,26,-1
 1325 952 l 1,27,-1
 1210 963 l 1,0,-1
EndSplineSet
EndChar

StartChar: x
Encoding: 120 120 91
Width: 1034
Flags: W
LayerCount: 2
Fore
SplineSet
1037 41 m 1,0,-1
 1037 0 l 1,1,-1
 556 0 l 1,2,-1
 556 41 l 1,3,-1
 665 51 l 1,4,-1
 454 388 l 1,5,-1
 232 51 l 1,6,-1
 343 41 l 1,7,-1
 343 0 l 1,8,-1
 62 0 l 1,9,-1
 62 41 l 1,10,-1
 167 51 l 1,11,-1
 421 440 l 1,12,-1
 101 952 l 1,13,-1
 3 963 l 1,14,-1
 3 1004 l 1,15,-1
 480 1004 l 1,16,-1
 480 963 l 1,17,-1
 372 952 l 1,18,-1
 577 625 l 1,19,-1
 785 952 l 1,20,-1
 674 963 l 1,21,-1
 674 1004 l 1,22,-1
 955 1004 l 1,23,-1
 955 963 l 1,24,-1
 850 952 l 1,25,-1
 609 575 l 1,26,-1
 939 51 l 1,27,-1
 1037 41 l 1,0,-1
EndSplineSet
EndChar

StartChar: y
Encoding: 121 121 92
Width: 965
Flags: W
LayerCount: 2
Fore
SplineSet
512 -34 m 1,0,-1
 87 952 l 1,1,-1
 -12 963 l 1,2,-1
 -12 1004 l 1,3,-1
 461 1004 l 1,4,-1
 461 963 l 1,5,-1
 353 952 l 1,6,-1
 613 300 l 1,7,-1
 809 952 l 1,8,-1
 699 963 l 1,9,-1
 699 1004 l 1,10,-1
 971 1004 l 1,11,-1
 971 963 l 1,12,-1
 867 952 l 1,13,-1
 535 -172 l 1,14,15
 442 -448 442 -448 318 -484 c 0,16,17
 282 -495 282 -495 246 -495 c 128,-1,18
 210 -495 210 -495 179 -483.5 c 128,-1,19
 148 -472 148 -472 126 -452 c 0,20,21
 80 -412 80 -412 80 -347 c 0,22,23
 80 -288 80 -288 106 -259 c 0,24,25
 152 -208 152 -208 194 -208 c 128,-1,26
 236 -208 236 -208 258 -218.5 c 128,-1,27
 280 -229 280 -229 294 -246 c 0,28,29
 322 -282 322 -282 322 -333 c 0,30,31
 322 -367 322 -367 305 -391 c 128,-1,32
 288 -415 288 -415 277 -423 c 1,33,-1
 277 -427 l 1,34,35
 369 -425 369 -425 438 -259 c 0,36,37
 455 -218 455 -218 467 -186 c 1,38,-1
 512 -34 l 1,0,-1
EndSplineSet
EndChar

StartChar: z
Encoding: 122 122 93
Width: 961
Flags: W
LayerCount: 2
Fore
SplineSet
866 334 m 1,0,-1
 866 0 l 1,1,-1
 75 0 l 1,2,-1
 57 29 l 1,3,-1
 599 952 l 1,4,-1
 356 961 l 2,5,6
 352 961 352 961 347 961 c 0,7,8
 237 961 237 961 186 864 c 0,9,10
 147 790 147 790 147 670 c 1,11,-1
 106 670 l 1,12,-1
 106 1004 l 1,13,-1
 873 1004 l 1,14,-1
 892 975 l 1,15,-1
 329 52 l 1,16,-1
 614 43 l 2,17,18
 617 43 617 43 620 43 c 0,19,20
 769 43 769 43 810 202 c 0,21,22
 825 258 825 258 825 334 c 1,23,-1
 866 334 l 1,0,-1
EndSplineSet
EndChar

StartChar: braceleft
Encoding: 123 123 94
Width: 684
Flags: W
LayerCount: 2
Fore
SplineSet
232 750 m 1,0,-1
 221 1038 l 1,1,2
 221 1355 221 1355 438 1434 c 0,3,4
 514 1462 514 1462 619 1462 c 2,5,-1
 676 1462 l 1,6,-1
 676 1408 l 1,7,-1
 664 1408 l 2,8,9
 469 1408 469 1408 432 1242 c 0,10,11
 420 1189 420 1189 420 1143 c 128,-1,12
 420 1097 420 1097 423 1067.5 c 128,-1,13
 426 1038 426 1038 430 996 c 0,14,15
 439 884 439 884 439 794 c 128,-1,16
 439 704 439 704 416 656.5 c 128,-1,17
 393 609 393 609 352 574 c 0,18,19
 277 510 277 510 139 486 c 1,20,-1
 139 482 l 1,21,22
 351 445 351 445 416 312 c 0,23,24
 439 264 439 264 439 194 c 128,-1,25
 439 124 439 124 436 68 c 128,-1,26
 433 12 433 12 429.5 -29 c 128,-1,27
 426 -70 426 -70 423 -100 c 128,-1,28
 420 -130 420 -130 420 -176 c 128,-1,29
 420 -222 420 -222 432 -275 c 128,-1,30
 444 -328 444 -328 472 -365 c 0,31,32
 531 -441 531 -441 664 -441 c 2,33,-1
 676 -441 l 1,34,-1
 676 -495 l 1,35,-1
 619 -495 l 2,36,37
 312 -495 312 -495 244 -252 c 0,38,39
 221 -173 221 -173 221 -70 c 1,40,-1
 232 218 l 1,41,42
 232 323 232 323 203.5 368 c 128,-1,43
 175 413 175 413 137 433.5 c 128,-1,44
 99 454 99 454 38 454 c 2,45,-1
 -9 454 l 1,46,-1
 -9 514 l 1,47,-1
 38 514 l 2,48,49
 198 514 198 514 224 664 c 0,50,51
 232 706 232 706 232 750 c 1,0,-1
EndSplineSet
EndChar

StartChar: bar
Encoding: 124 124 95
Width: 426
Flags: W
LayerCount: 2
Fore
SplineSet
152 -495 m 1,0,-1
 152 1462 l 1,1,-1
 274 1462 l 1,2,-1
 274 -495 l 1,3,-1
 152 -495 l 1,0,-1
EndSplineSet
EndChar

StartChar: braceright
Encoding: 125 125 96
Width: 685
Flags: W
LayerCount: 2
Fore
SplineSet
453 217 m 1,0,-1
 464 -71 l 1,1,2
 464 -388 464 -388 246 -468 c 0,3,4
 171 -495 171 -495 66 -495 c 2,5,-1
 9 -495 l 1,6,-1
 9 -441 l 1,7,-1
 21 -441 l 2,8,9
 216 -441 216 -441 253 -276 c 0,10,11
 265 -222 265 -222 265 -176 c 128,-1,12
 265 -130 265 -130 262 -100.5 c 128,-1,13
 259 -71 259 -71 256 -30 c 0,14,15
 246 83 246 83 246 173 c 128,-1,16
 246 263 246 263 269 310.5 c 128,-1,17
 292 358 292 358 332 392 c 0,18,19
 408 457 408 457 546 481 c 1,20,-1
 546 485 l 1,21,22
 334 522 334 522 269 656 c 0,23,24
 246 703 246 703 246 772.5 c 128,-1,25
 246 842 246 842 249 898.5 c 128,-1,26
 252 955 252 955 255.5 996 c 128,-1,27
 259 1037 259 1037 262 1067 c 128,-1,28
 265 1097 265 1097 265 1142.5 c 128,-1,29
 265 1188 265 1188 253 1241.5 c 128,-1,30
 241 1295 241 1295 212 1332 c 0,31,32
 154 1408 154 1408 21 1408 c 2,33,-1
 9 1408 l 1,34,-1
 9 1462 l 1,35,-1
 66 1462 l 2,36,37
 373 1462 373 1462 442 1220 c 0,38,39
 464 1140 464 1140 464 1037 c 1,40,-1
 453 749 l 1,41,42
 453 644 453 644 481.5 599 c 128,-1,43
 510 554 510 554 548 533.5 c 128,-1,44
 586 513 586 513 647 513 c 2,45,-1
 694 513 l 1,46,-1
 694 453 l 1,47,-1
 647 453 l 2,48,49
 487 453 487 453 460 304 c 0,50,51
 453 261 453 261 453 217 c 1,0,-1
EndSplineSet
EndChar

StartChar: asciitilde
Encoding: 126 126 97
Width: 1101
Flags: W
LayerCount: 2
Fore
SplineSet
1011 759 m 1,0,1
 936 437 936 437 731 437 c 0,2,3
 644 437 644 437 497 502 c 0,4,5
 442 527 442 527 390.5 547.5 c 128,-1,6
 339 568 339 568 299 568 c 128,-1,7
 259 568 259 568 236.5 559.5 c 128,-1,8
 214 551 214 551 198 535 c 0,9,10
 173 509 173 509 151 449 c 1,11,-1
 94 449 l 1,12,13
 137 591 137 591 183.5 648.5 c 128,-1,14
 230 706 230 706 281 733.5 c 128,-1,15
 332 761 332 761 395.5 761 c 128,-1,16
 459 761 459 761 503.5 741.5 c 128,-1,17
 548 722 548 722 592.5 698.5 c 128,-1,18
 637 675 637 675 685.5 655.5 c 128,-1,19
 734 636 734 636 799 636 c 0,20,21
 908 636 908 636 954 759 c 1,22,-1
 1011 759 l 1,0,1
EndSplineSet
EndChar

StartChar: exclamdown
Encoding: 161 161 99
Width: 538
Flags: W
LayerCount: 2
Fore
SplineSet
292 936 m 1,0,1
 299 692 299 692 358 371 c 1,2,3
 358 371 358 371 398 162 c 0,4,5
 415 71 415 71 415 24 c 128,-1,6
 415 -23 415 -23 405 -53 c 128,-1,7
 395 -83 395 -83 376 -107 c 0,8,9
 334 -160 334 -160 265 -160 c 0,10,11
 197 -160 197 -160 158 -107 c 0,12,13
 124 -60 124 -60 124 5.5 c 128,-1,14
 124 71 124 71 141 162 c 2,15,-1
 180 371 l 2,16,17
 239 692 239 692 246 936 c 1,18,-1
 292 936 l 1,0,1
370 1285 m 128,-1,20
 407 1248 407 1248 407 1186 c 128,-1,21
 407 1124 407 1124 370 1085.5 c 128,-1,22
 333 1047 333 1047 271 1047 c 128,-1,23
 209 1047 209 1047 170 1085.5 c 128,-1,24
 131 1124 131 1124 131 1186 c 128,-1,25
 131 1248 131 1248 170 1285 c 128,-1,26
 209 1322 209 1322 271 1322 c 128,-1,19
 333 1322 333 1322 370 1285 c 128,-1,20
EndSplineSet
EndChar

StartChar: cent
Encoding: 162 162 100
Width: 982
Flags: W
LayerCount: 2
Fore
SplineSet
911 193 m 1,0,1
 797 -15 797 -15 590 -29 c 1,2,-1
 590 -195 l 1,3,-1
 508 -195 l 1,4,-1
 508 -28 l 1,5,6
 100 2 100 2 100 496 c 0,7,8
 100 685 100 685 198 834 c 0,9,10
 311 1006 311 1006 508 1030 c 1,11,-1
 508 1162 l 1,12,-1
 590 1162 l 1,13,-1
 590 1033 l 1,14,15
 720 1027 720 1027 806 949 c 0,16,17
 889 873 889 873 889 770 c 0,18,19
 889 717 889 717 864 690 c 0,20,21
 821 641 821 641 763.5 641 c 128,-1,22
 706 641 706 641 671.5 676 c 128,-1,23
 637 711 637 711 637 749.5 c 128,-1,24
 637 788 637 788 645.5 810.5 c 128,-1,25
 654 833 654 833 669 850 c 0,26,27
 702 886 702 886 753 886 c 0,28,29
 764 886 764 886 778 884 c 1,30,-1
 778 889 l 1,31,32
 721 984 721 984 604 984 c 0,33,34
 594 984 594 984 590 983 c 1,35,-1
 590 39 l 1,36,-1
 602 39 l 2,37,38
 674 39 674 39 719 62 c 0,39,40
 807 107 807 107 872 216 c 1,41,-1
 911 193 l 1,0,1
508 959 m 1,42,43
 356 870 356 870 356 500 c 0,44,45
 356 138 356 138 508 60 c 1,46,-1
 508 959 l 1,42,43
EndSplineSet
EndChar

StartChar: sterling
Encoding: 163 163 101
Width: 1117
Flags: W
LayerCount: 2
Fore
SplineSet
676 1405 m 0,0,1
 464 1405 464 1405 464 957 c 2,2,-1
 464 759 l 1,3,-1
 809 759 l 1,4,-1
 809 719 l 1,5,-1
 464 706 l 1,6,-1
 464 212 l 1,7,8
 511 206 511 206 569 189 c 2,9,-1
 689 154 l 2,10,11
 851 107 851 107 905.5 107 c 128,-1,12
 960 107 960 107 979.5 115 c 128,-1,13
 999 123 999 123 1011 136 c 0,14,15
 1034 159 1034 159 1034 183 c 128,-1,16
 1034 207 1034 207 1029 227 c 1,17,-1
 1026 225 l 1,18,19
 1012 179 1012 179 960 179 c 128,-1,20
 908 179 908 179 884 205 c 128,-1,21
 860 231 860 231 860 273 c 256,22,23
 860 315 860 315 886.5 342.5 c 128,-1,24
 913 370 913 370 949.5 370 c 128,-1,25
 986 370 986 370 1009.5 357 c 128,-1,26
 1033 344 1033 344 1050 322 c 0,27,28
 1083 277 1083 277 1083 225.5 c 128,-1,29
 1083 174 1083 174 1068 131.5 c 128,-1,30
 1053 89 1053 89 1022 53 c 0,31,32
 949 -30 949 -30 821 -30 c 0,33,34
 694 -30 694 -30 584 8 c 1,35,36
 370 84 370 84 277 84 c 0,37,38
 181 84 181 84 99 -30 c 1,39,-1
 52 7 l 1,40,41
 127 117 127 117 218 154 c 1,42,-1
 218 706 l 1,43,-1
 31 719 l 1,44,-1
 31 759 l 1,45,-1
 218 759 l 1,46,-1
 218 871 l 2,47,48
 218 1305 218 1305 474 1414 c 0,49,50
 555 1448 555 1448 645.5 1448 c 128,-1,51
 736 1448 736 1448 794.5 1431 c 128,-1,52
 853 1414 853 1414 893 1386 c 0,53,54
 973 1328 973 1328 973 1240 c 0,55,56
 973 1160 973 1160 908 1130 c 0,57,58
 887 1120 887 1120 845.5 1120 c 128,-1,59
 804 1120 804 1120 774 1147.5 c 128,-1,60
 744 1175 744 1175 744 1226 c 0,61,62
 744 1322 744 1322 838 1344 c 1,63,-1
 838 1348 l 1,64,65
 786 1405 786 1405 676 1405 c 0,0,1
EndSplineSet
EndChar

StartChar: currency
Encoding: 164 164 102
Width: 1166
Flags: W
LayerCount: 2
Fore
SplineSet
254 429 m 1,0,1
 159 545 159 545 159 700 c 0,2,3
 159 856 159 856 255 973 c 1,4,-1
 100 1128 l 1,5,-1
 156 1184 l 1,6,-1
 311 1029 l 1,7,8
 425 1124 425 1124 583 1124 c 0,9,10
 739 1124 739 1124 855 1029 c 1,11,-1
 1010 1184 l 1,12,-1
 1066 1128 l 1,13,-1
 910 972 l 1,14,15
 1007 856 1007 856 1007 700 c 0,16,17
 1007 545 1007 545 912 429 c 1,18,-1
 1066 276 l 1,19,-1
 1010 220 l 1,20,-1
 857 373 l 1,21,22
 741 276 741 276 583 276 c 0,23,24
 423 276 423 276 309 373 c 1,25,-1
 156 220 l 1,26,-1
 100 276 l 1,27,-1
 254 429 l 1,0,1
259 700 m 256,28,29
 259 554 259 554 347 456 c 0,30,31
 438 356 438 356 583 356 c 256,32,33
 728 356 728 356 819 456 c 0,34,35
 907 554 907 554 907 700 c 256,36,37
 907 846 907 846 819 944 c 0,38,39
 728 1044 728 1044 583 1044 c 256,40,41
 438 1044 438 1044 347 944 c 0,42,43
 259 846 259 846 259 700 c 256,28,29
EndSplineSet
EndChar

StartChar: yen
Encoding: 165 165 103
Width: 1206
Flags: W
LayerCount: 2
Fore
SplineSet
467 738 m 1,0,-1
 101 1372 l 1,1,-1
 -34 1382 l 1,2,-1
 -34 1427 l 1,3,-1
 553 1427 l 1,4,-1
 553 1382 l 1,5,-1
 398 1372 l 1,6,-1
 735 765 l 1,7,-1
 740 765 l 1,8,-1
 1022 1372 l 1,9,-1
 881 1382 l 1,10,-1
 881 1427 l 1,11,-1
 1214 1427 l 1,12,-1
 1214 1382 l 1,13,-1
 1090 1372 l 1,14,-1
 794 738 l 1,15,-1
 1056 738 l 1,16,-1
 1056 630 l 1,17,-1
 778 630 l 1,18,-1
 778 488 l 1,19,-1
 1056 488 l 1,20,-1
 1056 380 l 1,21,-1
 778 380 l 1,22,-1
 778 55 l 1,23,-1
 932 45 l 1,24,-1
 932 0 l 1,25,-1
 368 0 l 1,26,-1
 368 45 l 1,27,-1
 522 55 l 1,28,-1
 522 380 l 1,29,-1
 244 380 l 1,30,-1
 244 488 l 1,31,-1
 522 488 l 1,32,-1
 522 630 l 1,33,-1
 244 630 l 1,34,-1
 244 738 l 1,35,-1
 467 738 l 1,0,-1
EndSplineSet
EndChar

StartChar: brokenbar
Encoding: 166 166 104
Width: 458
Flags: W
LayerCount: 2
Fore
SplineSet
168 745 m 1,0,-1
 168 1462 l 1,1,-1
 290 1462 l 1,2,-1
 290 745 l 1,3,-1
 168 745 l 1,0,-1
168 -495 m 1,4,-1
 168 222 l 1,5,-1
 290 222 l 1,6,-1
 290 -495 l 1,7,-1
 168 -495 l 1,4,-1
EndSplineSet
EndChar

StartChar: section
Encoding: 167 167 105
Width: 990
Flags: W
LayerCount: 2
Fore
SplineSet
806 197 m 1,0,1
 883 93 883 93 883 -51 c 0,2,3
 883 -182 883 -182 796 -276 c 0,4,5
 686 -394 686 -394 470 -394 c 0,6,7
 279 -394 279 -394 182 -296 c 0,8,9
 108 -221 108 -221 108 -128 c 0,10,11
 108 -65 108 -65 134 -33 c 0,12,13
 182 26 182 26 246.5 26 c 128,-1,14
 311 26 311 26 347.5 -12 c 128,-1,15
 384 -50 384 -50 384 -112 c 128,-1,16
 384 -174 384 -174 345.5 -208.5 c 128,-1,17
 307 -243 307 -243 247 -243 c 1,18,-1
 247 -247 l 1,19,20
 285 -305 285 -305 398 -332 c 0,21,22
 434 -340 434 -340 482.5 -340 c 128,-1,23
 531 -340 531 -340 580 -328 c 128,-1,24
 629 -316 629 -316 664 -292 c 0,25,26
 739 -241 739 -241 739 -145 c 0,27,28
 739 -56 739 -56 684 5 c 0,29,30
 624 71 624 71 496 125 c 128,-1,31
 368 179 368 179 292 222.5 c 128,-1,32
 216 266 216 266 170 316 c 0,33,34
 84 409 84 409 84 577 c 0,35,36
 84 756 84 756 186 865 c 1,37,38
 114 962 114 962 114 1109 c 0,39,40
 114 1240 114 1240 199 1339 c 0,41,42
 305 1462 305 1462 515 1462 c 0,43,44
 699 1462 699 1462 793 1362 c 0,45,46
 862 1289 862 1289 862 1196 c 0,47,48
 862 1134 862 1134 836 1103 c 0,49,50
 789 1048 789 1048 724 1048 c 128,-1,51
 659 1048 659 1048 622.5 1086 c 128,-1,52
 586 1124 586 1124 586 1186 c 128,-1,53
 586 1248 586 1248 624.5 1282.5 c 128,-1,54
 663 1317 663 1317 723 1317 c 1,55,-1
 723 1321 l 1,56,57
 684 1378 684 1378 578 1400 c 0,58,59
 542 1408 542 1408 502 1408 c 0,60,61
 387 1408 387 1408 322.5 1355.5 c 128,-1,62
 258 1303 258 1303 258 1203 c 0,63,64
 258 1114 258 1114 308 1058 c 0,65,66
 361 998 361 998 490 943.5 c 128,-1,67
 619 889 619 889 696.5 845.5 c 128,-1,68
 774 802 774 802 822 752 c 0,69,70
 913 656 913 656 913 483 c 128,-1,71
 913 310 913 310 806 197 c 1,0,1
777 232 m 1,72,73
 815 283 815 283 815 343.5 c 128,-1,74
 815 404 815 404 793.5 445.5 c 128,-1,75
 772 487 772 487 722 532 c 0,76,77
 619 622 619 622 380 722 c 0,78,79
 281 764 281 764 215 830 c 1,80,81
 182 788 182 788 182 726 c 128,-1,82
 182 664 182 664 202 622.5 c 128,-1,83
 222 581 222 581 270 536 c 1,84,85
 370 446 370 446 607 346 c 0,86,87
 710 302 710 302 777 232 c 1,72,73
EndSplineSet
EndChar

StartChar: dieresis
Encoding: 168 168 106
Width: 736
Flags: W
LayerCount: 2
Fore
SplineSet
454 1283.5 m 128,-1,1
 423 1321 423 1321 423 1378.5 c 128,-1,2
 423 1436 423 1436 454 1473.5 c 128,-1,3
 485 1511 485 1511 539 1511 c 256,4,5
 593 1511 593 1511 624.5 1473.5 c 128,-1,6
 656 1436 656 1436 656 1378.5 c 128,-1,7
 656 1321 656 1321 624.5 1283.5 c 128,-1,8
 593 1246 593 1246 539 1246 c 256,9,0
 485 1246 485 1246 454 1283.5 c 128,-1,1
111 1283.5 m 128,-1,11
 80 1321 80 1321 80 1378.5 c 128,-1,12
 80 1436 80 1436 111 1473.5 c 128,-1,13
 142 1511 142 1511 196 1511 c 256,14,15
 250 1511 250 1511 281.5 1473.5 c 128,-1,16
 313 1436 313 1436 313 1378.5 c 128,-1,17
 313 1321 313 1321 281.5 1283.5 c 128,-1,18
 250 1246 250 1246 196 1246 c 256,19,10
 142 1246 142 1246 111 1283.5 c 128,-1,11
EndSplineSet
EndChar

StartChar: copyright
Encoding: 169 169 107
Width: 1494
Flags: W
LayerCount: 2
Fore
SplineSet
1105 296 m 1,0,1
 995 103 995 103 799 103 c 0,2,3
 488 103 488 103 411 372 c 0,4,5
 387 457 387 457 387 535 c 128,-1,6
 387 613 387 613 397.5 668 c 128,-1,7
 408 723 408 723 429 775 c 128,-1,8
 450 827 450 827 482.5 873.5 c 128,-1,9
 515 920 515 920 560 954 c 0,10,11
 656 1029 656 1029 788 1029 c 0,12,13
 911 1029 911 1029 991 960 c 0,14,15
 1069 894 1069 894 1069 800 c 0,16,17
 1069 725 1069 725 1006 696 c 0,18,19
 985 686 985 686 947 686 c 128,-1,20
 909 686 909 686 880 717 c 128,-1,21
 851 748 851 748 851 783 c 128,-1,22
 851 818 851 818 859.5 839 c 128,-1,23
 868 860 868 860 884 875 c 0,24,25
 911 900 911 900 949 900 c 0,26,27
 960 900 960 900 973 898 c 1,28,-1
 973 903 l 1,29,30
 926 966 926 966 822 966 c 0,31,32
 610 966 610 966 610 574.5 c 128,-1,33
 610 183 610 183 837 183 c 0,34,35
 930 183 930 183 1010 253 c 0,36,37
 1041 280 1041 280 1068 321 c 1,38,-1
 1105 296 l 1,0,1
131 302 m 128,-1,40
 81 423 81 423 81 560.5 c 128,-1,41
 81 698 81 698 131 819.5 c 128,-1,42
 181 941 181 941 270 1032 c 0,43,44
 462 1227 462 1227 746 1227 c 256,45,46
 1030 1227 1030 1227 1224 1032 c 1,47,48
 1413 840 1413 840 1413 560 c 0,49,50
 1413 284 1413 284 1224 90 c 0,51,52
 1104 -32 1104 -32 928 -81 c 0,53,54
 842 -105 842 -105 722 -105 c 128,-1,55
 602 -105 602 -105 480.5 -52.5 c 128,-1,56
 359 0 359 0 270 90.5 c 128,-1,39
 181 181 181 181 131 302 c 128,-1,40
152 560 m 0,57,58
 152 305 152 305 318 128 c 0,59,60
 486 -51 486 -51 746 -51 c 0,61,62
 1008 -51 1008 -51 1176 128 c 0,63,64
 1343 306 1343 306 1343 560 c 0,65,66
 1343 817 1343 817 1176 993 c 0,67,68
 1006 1173 1006 1173 746 1173 c 0,69,70
 488 1173 488 1173 318 993 c 0,71,72
 152 818 152 818 152 560 c 0,57,58
EndSplineSet
EndChar

StartChar: ordfeminine
Encoding: 170 170 108
Width: 819
Flags: W
LayerCount: 2
Fore
SplineSet
209 1331 m 1,0,1
 219 1333 219 1333 240.5 1333 c 128,-1,2
 262 1333 262 1333 283.5 1311 c 128,-1,3
 305 1289 305 1289 305 1252 c 128,-1,4
 305 1215 305 1215 281 1189 c 128,-1,5
 257 1163 257 1163 224.5 1163 c 128,-1,6
 192 1163 192 1163 175 1171.5 c 128,-1,7
 158 1180 158 1180 146 1194 c 0,8,9
 122 1220 122 1220 122 1263 c 128,-1,10
 122 1306 122 1306 143 1343 c 128,-1,11
 164 1380 164 1380 200 1406 c 0,12,13
 274 1462 274 1462 376 1462 c 128,-1,14
 478 1462 478 1462 533 1439.5 c 128,-1,15
 588 1417 588 1417 617 1375 c 0,16,17
 663 1308 663 1308 663 1139 c 2,18,-1
 663 747 l 1,19,-1
 738 739 l 1,20,-1
 738 709 l 1,21,-1
 500 709 l 1,22,-1
 481 827 l 1,23,-1
 479 827 l 1,24,25
 410 688 410 688 269 688 c 0,26,27
 180 688 180 688 130 744 c 0,28,29
 86 792 86 792 86 851 c 128,-1,30
 86 910 86 910 104.5 953 c 128,-1,31
 123 996 123 996 162 1030 c 0,32,33
 250 1105 250 1105 410 1105 c 0,34,35
 442 1105 442 1105 478 1102 c 1,36,-1
 478 1196 l 2,37,38
 478 1310 478 1310 464 1344 c 0,39,40
 436 1408 436 1408 341 1408 c 128,-1,41
 246 1408 246 1408 209 1334 c 1,42,-1
 209 1331 l 1,0,1
478 1052 m 1,43,44
 450 1056 450 1056 409.5 1056 c 128,-1,45
 369 1056 369 1056 336 1035.5 c 128,-1,46
 303 1015 303 1015 286 988 c 1,47,48
 262 947 262 947 262 883 c 0,49,50
 262 777 262 777 348 777 c 0,51,52
 398 777 398 777 436 834 c 0,53,54
 478 896 478 896 478 985 c 2,55,-1
 478 1052 l 1,43,44
EndSplineSet
EndChar

StartChar: guillemotleft
Encoding: 171 171 109
Width: 901
Flags: W
LayerCount: 2
Fore
SplineSet
80 516 m 1,0,-1
 437 839 l 1,1,-1
 473 802 l 1,2,-1
 251 498 l 1,3,-1
 251 497 l 1,4,-1
 473 193 l 1,5,-1
 437 156 l 1,6,-1
 80 479 l 1,7,-1
 80 516 l 1,0,-1
420 516 m 1,8,-1
 777 869 l 1,9,-1
 813 832 l 1,10,-1
 591 498 l 1,11,-1
 591 497 l 1,12,-1
 813 163 l 1,13,-1
 777 126 l 1,14,-1
 420 479 l 1,15,-1
 420 516 l 1,8,-1
EndSplineSet
EndChar

StartChar: logicalnot
Encoding: 172 172 110
Width: 1146
Flags: W
LayerCount: 2
Fore
SplineSet
919 592 m 1,0,-1
 117 592 l 1,1,-1
 117 702 l 1,2,-1
 1029 702 l 1,3,-1
 1029 350 l 1,4,-1
 919 350 l 1,5,-1
 919 592 l 1,0,-1
EndSplineSet
EndChar

StartChar: uni00AD
Encoding: 173 173 111
Width: 746
Flags: W
LayerCount: 2
Fore
SplineSet
629 702 m 1,0,-1
 629 592 l 1,1,-1
 117 592 l 1,2,-1
 117 702 l 1,3,-1
 629 702 l 1,0,-1
EndSplineSet
EndChar

StartChar: registered
Encoding: 174 174 112
Width: 1016
Flags: W
LayerCount: 2
Fore
SplineSet
69 997 m 0,0,1
 69 1180 69 1180 194 1308 c 0,2,3
 319 1437 319 1437 508 1437 c 0,4,5
 696 1437 696 1437 823 1308 c 0,6,7
 948 1181 948 1181 948 997 c 256,8,9
 948 813 948 813 823 686 c 0,10,11
 696 558 696 558 508 558 c 256,12,13
 320 558 320 558 194 686 c 0,14,15
 69 813 69 813 69 997 c 0,0,1
139 997 m 0,16,17
 139 832 139 832 234 724 c 0,18,19
 336 607 336 607 508 607 c 0,20,21
 681 607 681 607 783 724 c 0,22,23
 879 833 879 833 879 997 c 0,24,25
 879 1162 879 1162 783 1270 c 0,26,27
 680 1386 680 1386 508 1386 c 0,28,29
 337 1386 337 1386 234 1270 c 0,30,31
 139 1163 139 1163 139 997 c 0,16,17
705 1154 m 0,32,33
 705 1036 705 1036 540 1012 c 1,34,-1
 540 1010 l 1,35,36
 585 1005 585 1005 619.5 982.5 c 128,-1,37
 654 960 654 960 666 936 c 128,-1,38
 678 912 678 912 684 899 c 2,39,-1
 724 818 l 1,40,41
 738 792 738 792 747.5 784.5 c 128,-1,42
 757 777 757 777 772 777 c 1,43,-1
 772 747 l 1,44,-1
 708 747 l 2,45,46
 659 747 659 747 638 764 c 0,47,48
 605 790 605 790 583.5 843.5 c 128,-1,49
 562 897 562 897 551 920.5 c 128,-1,50
 540 944 540 944 528 962 c 0,51,52
 502 1001 502 1001 477 1001 c 2,53,-1
 453 1001 l 1,54,-1
 453 781 l 1,55,-1
 502 776 l 1,56,-1
 502 747 l 1,57,-1
 292 747 l 1,58,-1
 292 776 l 1,59,-1
 338 781 l 1,60,-1
 338 1254 l 1,61,-1
 292 1258 l 1,62,-1
 292 1288 l 1,63,-1
 499 1288 l 2,64,65
 640 1288 640 1288 688 1216 c 0,66,67
 705 1191 705 1191 705 1154 c 0,32,33
489 1257 m 0,68,69
 470 1257 470 1257 453 1254 c 1,70,-1
 453 1028 l 1,71,-1
 468 1028 l 2,72,73
 538 1028 538 1028 564.5 1062 c 128,-1,74
 591 1096 591 1096 591 1153 c 0,75,76
 591 1257 591 1257 489 1257 c 0,68,69
EndSplineSet
EndChar

StartChar: macron
Encoding: 175 175 113
Width: 959
Flags: W
LayerCount: 2
Fore
SplineSet
0 1427 m 1,0,-1
 959 1427 l 1,1,-1
 959 1341 l 1,2,-1
 0 1341 l 1,3,-1
 0 1427 l 1,0,-1
EndSplineSet
EndChar

StartChar: degree
Encoding: 176 176 114
Width: 788
Flags: W
LayerCount: 2
Fore
SplineSet
73 1140 m 0,0,1
 73 1207 73 1207 97 1265.5 c 128,-1,2
 121 1324 121 1324 164 1368 c 0,3,4
 257 1462 257 1462 394 1462 c 256,5,6
 531 1462 531 1462 624 1368 c 0,7,8
 715 1275 715 1275 715 1140 c 0,9,10
 715 1006 715 1006 624 914 c 0,11,12
 532 820 532 820 394 820 c 256,13,14
 256 820 256 820 164 914 c 0,15,16
 73 1006 73 1006 73 1140 c 0,0,1
181 1140 m 0,17,18
 181 1093 181 1093 195.5 1050.5 c 128,-1,19
 210 1008 210 1008 238 976 c 0,20,21
 299 906 299 906 394 906 c 0,22,23
 490 906 490 906 550 976 c 0,24,25
 608 1043 608 1043 608 1140 c 0,26,27
 608 1239 608 1239 550 1306 c 0,28,29
 490 1376 490 1376 394 1376 c 0,30,31
 299 1376 299 1376 238 1306 c 0,32,33
 181 1241 181 1241 181 1140 c 0,17,18
EndSplineSet
EndChar

StartChar: plusminus
Encoding: 177 177 115
Width: 1146
Flags: W
LayerCount: 2
Fore
SplineSet
518 702 m 1,0,-1
 518 1030 l 1,1,-1
 628 1030 l 1,2,-1
 628 702 l 1,3,-1
 1029 702 l 1,4,-1
 1029 592 l 1,5,-1
 628 592 l 1,6,-1
 628 264 l 1,7,-1
 518 264 l 1,8,-1
 518 592 l 1,9,-1
 117 592 l 1,10,-1
 117 702 l 1,11,-1
 518 702 l 1,0,-1
1029 110 m 1,12,-1
 1029 0 l 1,13,-1
 117 0 l 1,14,-1
 117 110 l 1,15,-1
 1029 110 l 1,12,-1
EndSplineSet
EndChar

StartChar: twosuperior
Encoding: 178 178 116
Width: 716
Flags: W
LayerCount: 2
Fore
SplineSet
195 1352 m 0,0,1
 278 1352 278 1352 278 1267 c 0,2,3
 278 1229 278 1229 254.5 1204 c 128,-1,4
 231 1179 231 1179 189.5 1179 c 128,-1,5
 148 1179 148 1179 125.5 1206.5 c 128,-1,6
 103 1234 103 1234 103 1271.5 c 128,-1,7
 103 1309 103 1309 117 1341.5 c 128,-1,8
 131 1374 131 1374 160 1400 c 0,9,10
 229 1462 229 1462 340 1462 c 0,11,12
 464 1462 464 1462 528 1402 c 0,13,14
 585 1349 585 1349 585 1279.5 c 128,-1,15
 585 1210 585 1210 559 1156.5 c 128,-1,16
 533 1103 533 1103 484 1050 c 0,17,18
 394 954 394 954 206 845 c 1,19,-1
 206 843 l 1,20,-1
 424 847 l 2,21,22
 515 849 515 849 538 862 c 0,23,24
 576 882 576 882 582 941 c 1,25,-1
 605 941 l 1,26,-1
 600 710 l 1,27,-1
 120 710 l 1,28,-1
 120 824 l 1,29,30
 367 970 367 970 396 1154 c 0,31,32
 406 1214 406 1214 406 1283 c 0,33,34
 406 1424 406 1424 298 1424 c 0,35,36
 223 1424 223 1424 186 1376 c 0,37,38
 176 1363 176 1363 172 1350 c 1,39,-1
 172 1348 l 1,40,41
 182 1352 182 1352 195 1352 c 0,0,1
EndSplineSet
EndChar

StartChar: threesuperior
Encoding: 179 179 117
Width: 689
Flags: W
LayerCount: 2
Fore
SplineSet
167 785 m 1,0,1
 199 733 199 733 277 733 c 0,2,3
 434 733 434 733 434 890 c 0,4,5
 434 985 434 985 399 1035 c 128,-1,6
 364 1085 364 1085 276 1085 c 2,7,-1
 246 1085 l 1,8,-1
 246 1116 l 1,9,-1
 275 1116 l 2,10,11
 390 1116 390 1116 407 1218 c 0,12,13
 412 1248 412 1248 412 1304.5 c 128,-1,14
 412 1361 412 1361 380.5 1393 c 128,-1,15
 349 1425 349 1425 311 1425 c 128,-1,16
 273 1425 273 1425 250.5 1418 c 128,-1,17
 228 1411 228 1411 212 1400 c 1,18,19
 179 1380 179 1380 170 1353 c 1,20,-1
 170 1351 l 1,21,22
 180 1352 180 1352 189 1352 c 0,23,24
 223 1352 223 1352 244 1334 c 1,25,26
 269 1310 269 1310 269 1272 c 128,-1,27
 269 1234 269 1234 247.5 1211.5 c 128,-1,28
 226 1189 226 1189 186.5 1189 c 128,-1,29
 147 1189 147 1189 124 1215 c 128,-1,30
 101 1241 101 1241 101 1278 c 128,-1,31
 101 1315 101 1315 115 1346 c 128,-1,32
 129 1377 129 1377 157 1402 c 0,33,34
 222 1462 222 1462 328 1462 c 0,35,36
 498 1462 498 1462 550 1363 c 0,37,38
 568 1330 568 1330 568 1274 c 128,-1,39
 568 1218 568 1218 518 1170.5 c 128,-1,40
 468 1123 468 1123 366 1104 c 1,41,-1
 366 1102 l 1,42,43
 528 1091 528 1091 584 993 c 0,44,45
 604 957 604 957 604 904 c 0,46,47
 604 697 604 697 325 697 c 0,48,49
 163 697 163 697 110 794 c 0,50,51
 95 822 95 822 95 862.5 c 128,-1,52
 95 903 95 903 117.5 931.5 c 128,-1,53
 140 960 140 960 181.5 960 c 128,-1,54
 223 960 223 960 246.5 935 c 128,-1,55
 270 910 270 910 270 871 c 128,-1,56
 270 832 270 832 244 807 c 0,57,58
 223 787 223 787 186 787 c 0,59,60
 177 787 177 787 167 788 c 1,61,-1
 167 785 l 1,0,1
EndSplineSet
EndChar

StartChar: acute
Encoding: 180 180 118
Width: 488
Flags: W
LayerCount: 2
Fore
SplineSet
158 1156 m 1,0,-1
 121 1182 l 1,1,-1
 232 1500 l 1,2,3
 241 1529 241 1529 265.5 1549 c 128,-1,4
 290 1569 290 1569 315.5 1569 c 128,-1,5
 341 1569 341 1569 357.5 1562 c 128,-1,6
 374 1555 374 1555 386 1542 c 0,7,8
 412 1514 412 1514 412 1483 c 0,9,10
 412 1429 412 1429 381 1396 c 2,11,-1
 158 1156 l 1,0,-1
EndSplineSet
EndChar

StartChar: mu
Encoding: 181 181 119
AltUni2: 0003bc.ffffffff.0
Width: 1127
Flags: W
LayerCount: 2
Fore
SplineSet
427 -1 m 0,0,1
 368 -1 368 -1 323 15 c 1,2,-1
 323 -198 l 2,3,4
 323 -372 323 -372 402 -402 c 0,5,6
 427 -411 427 -411 460 -411 c 1,7,-1
 460 -451 l 1,8,-1
 357 -451 l 2,9,10
 246 -451 246 -451 196 -373 c 0,11,12
 147 -295 147 -295 147 -119 c 2,13,-1
 147 1004 l 1,14,-1
 393 1004 l 1,15,-1
 393 302 l 2,16,17
 393 168 393 168 448 118 c 0,18,19
 480 89 480 89 522.5 89 c 128,-1,20
 565 89 565 89 598 106.5 c 128,-1,21
 631 124 631 124 658 153 c 0,22,23
 716 214 716 214 735 296 c 1,24,-1
 735 1004 l 1,25,-1
 980 1004 l 1,26,-1
 980 0 l 1,27,-1
 753 0 l 1,28,-1
 735 29 l 1,29,-1
 739 173 l 1,30,-1
 735 173 l 1,31,32
 617 -1 617 -1 427 -1 c 0,0,1
EndSplineSet
EndChar

StartChar: paragraph
Encoding: 182 182 120
Width: 1135
Flags: W
LayerCount: 2
Fore
SplineSet
718 55 m 1,0,-1
 836 55 l 1,1,-1
 836 1427 l 1,2,-1
 1089 1427 l 1,3,-1
 1089 1382 l 1,4,-1
 935 1372 l 1,5,-1
 935 55 l 1,6,-1
 1089 45 l 1,7,-1
 1089 0 l 1,8,-1
 465 0 l 1,9,-1
 465 45 l 1,10,-1
 619 55 l 1,11,-1
 619 569 l 1,12,-1
 594 569 l 2,13,14
 323 569 323 569 187 664 c 0,15,16
 34 771 34 771 34 1005 c 0,17,18
 34 1210 34 1210 179 1324 c 0,19,20
 311 1427 311 1427 526 1427 c 2,21,-1
 718 1427 l 1,22,-1
 718 55 l 1,0,-1
619 1362 m 1,23,24
 579 1366 579 1366 541.5 1366 c 128,-1,25
 504 1366 504 1366 458.5 1348.5 c 128,-1,26
 413 1331 413 1331 378 1290 c 0,27,28
 300 1200 300 1200 300 1014 c 0,29,30
 300 799 300 799 370 708 c 1,31,32
 436 624 436 624 588 624 c 2,33,-1
 619 624 l 1,34,-1
 619 1362 l 1,23,24
EndSplineSet
EndChar

StartChar: periodcentered
Encoding: 183 183 121
Width: 484
Flags: W
LayerCount: 2
Fore
SplineSet
142.5 602 m 128,-1,1
 104 639 104 639 104 701 c 128,-1,2
 104 763 104 763 142.5 801.5 c 128,-1,3
 181 840 181 840 243 840 c 128,-1,4
 305 840 305 840 342.5 801.5 c 128,-1,5
 380 763 380 763 380 701 c 128,-1,6
 380 639 380 639 342.5 602 c 128,-1,7
 305 565 305 565 243 565 c 128,-1,0
 181 565 181 565 142.5 602 c 128,-1,1
EndSplineSet
EndChar

StartChar: cedilla
Encoding: 184 184 122
Width: 564
Flags: W
LayerCount: 2
Fore
SplineSet
200 -155 m 1,0,1
 263 -116 263 -116 336.5 -116 c 128,-1,2
 410 -116 410 -116 447 -152 c 128,-1,3
 484 -188 484 -188 484 -240 c 128,-1,4
 484 -292 484 -292 464.5 -326.5 c 128,-1,5
 445 -361 445 -361 413.5 -388.5 c 128,-1,6
 382 -416 382 -416 340.5 -437 c 128,-1,7
 299 -458 299 -458 256 -474 c 1,8,9
 175 -502 175 -502 92 -514 c 1,10,-1
 80 -461 l 1,11,12
 182 -443 182 -443 250 -386 c 1,13,14
 316 -329 316 -329 316 -269 c 0,15,16
 316 -236 316 -236 297 -217 c 128,-1,17
 278 -198 278 -198 239.5 -198 c 128,-1,18
 201 -198 201 -198 158 -228 c 1,19,-1
 129 -194 l 1,20,-1
 188 16 l 1,21,-1
 256 16 l 1,22,-1
 200 -155 l 1,0,1
EndSplineSet
EndChar

StartChar: onesuperior
Encoding: 185 185 123
Width: 571
Flags: W
LayerCount: 2
Fore
SplineSet
391 761 m 1,0,-1
 494 751 l 1,1,-1
 494 710 l 1,2,-1
 103 710 l 1,3,-1
 103 751 l 1,4,-1
 206 761 l 1,5,-1
 206 1377 l 1,6,-1
 83 1377 l 1,7,-1
 83 1418 l 1,8,-1
 282 1440 l 1,9,-1
 373 1477 l 1,10,-1
 391 1448 l 1,11,-1
 391 761 l 1,0,-1
EndSplineSet
EndChar

StartChar: ordmasculine
Encoding: 186 186 124
Width: 877
Flags: W
LayerCount: 2
Fore
SplineSet
436 754 m 0,0,1
 600 754 600 754 600 1060 c 0,2,3
 600 1218 600 1218 581 1280 c 128,-1,4
 562 1342 562 1342 530 1374.5 c 128,-1,5
 498 1407 498 1407 450.5 1407 c 128,-1,6
 403 1407 403 1407 376 1392 c 128,-1,7
 349 1377 349 1377 330.5 1352 c 128,-1,8
 312 1327 312 1327 301 1295 c 128,-1,9
 290 1263 290 1263 284 1230 c 0,10,11
 274 1175 274 1175 274 1122 c 128,-1,12
 274 1069 274 1069 275 1028.5 c 128,-1,13
 276 988 276 988 281 949 c 128,-1,14
 286 910 286 910 296 874.5 c 128,-1,15
 306 839 306 839 324 812 c 0,16,17
 363 754 363 754 436 754 c 0,0,1
72 1072 m 0,18,19
 72 1145 72 1145 96.5 1214.5 c 128,-1,20
 121 1284 121 1284 168 1339 c 0,21,22
 275 1462 275 1462 445 1462 c 0,23,24
 616 1462 616 1462 716 1344 c 0,25,26
 805 1239 805 1239 805 1092 c 0,27,28
 805 933 805 933 700 817 c 1,29,30
 595 699 595 699 444 699 c 0,31,32
 274 699 274 699 170 812 c 0,33,34
 72 918 72 918 72 1072 c 0,18,19
EndSplineSet
EndChar

StartChar: guillemotright
Encoding: 187 187 125
Width: 901
Flags: W
LayerCount: 2
Fore
SplineSet
820 479 m 1,0,-1
 463 156 l 1,1,-1
 427 193 l 1,2,-1
 649 497 l 1,3,-1
 649 498 l 1,4,-1
 427 802 l 1,5,-1
 463 839 l 1,6,-1
 820 516 l 1,7,-1
 820 479 l 1,0,-1
480 479 m 1,8,-1
 123 126 l 1,9,-1
 87 163 l 1,10,-1
 309 497 l 1,11,-1
 309 498 l 1,12,-1
 87 832 l 1,13,-1
 123 869 l 1,14,-1
 480 516 l 1,15,-1
 480 479 l 1,8,-1
EndSplineSet
EndChar

StartChar: onequarter
Encoding: 188 188 126
Width: 1197
Flags: W
LayerCount: 2
Fore
SplineSet
345 761 m 1,0,-1
 448 751 l 1,1,-1
 448 710 l 1,2,-1
 57 710 l 1,3,-1
 57 751 l 1,4,-1
 160 761 l 1,5,-1
 160 1377 l 1,6,-1
 37 1377 l 1,7,-1
 37 1418 l 1,8,-1
 236 1440 l 1,9,-1
 327 1477 l 1,10,-1
 345 1448 l 1,11,-1
 345 761 l 1,0,-1
205 0 m 1,12,-1
 984 1462 l 1,13,-1
 1047 1462 l 1,14,-1
 268 0 l 1,15,-1
 205 0 l 1,12,-1
582 210 m 1,16,-1
 965 764 l 1,17,-1
 1052 764 l 1,18,-1
 1052 214 l 1,19,-1
 1156 215 l 1,20,-1
 1156 161 l 1,21,-1
 1052 161 l 1,22,-1
 1052 61 l 1,23,-1
 1155 51 l 1,24,-1
 1155 10 l 1,25,-1
 764 10 l 1,26,-1
 764 51 l 1,27,-1
 867 61 l 1,28,-1
 867 161 l 1,29,-1
 582 161 l 1,30,-1
 582 210 l 1,16,-1
865 536 m 1,31,-1
 633 211 l 1,32,-1
 633 209 l 1,33,-1
 867 210 l 1,34,-1
 867 536 l 1,35,-1
 865 536 l 1,31,-1
EndSplineSet
EndChar

StartChar: onehalf
Encoding: 189 189 127
Width: 1277
Flags: W
LayerCount: 2
Fore
SplineSet
814 642 m 0,0,1
 897 642 897 642 897 557 c 0,2,3
 897 519 897 519 873.5 494 c 128,-1,4
 850 469 850 469 808.5 469 c 128,-1,5
 767 469 767 469 744.5 496.5 c 128,-1,6
 722 524 722 524 722 561.5 c 128,-1,7
 722 599 722 599 736 631.5 c 128,-1,8
 750 664 750 664 780 690 c 0,9,10
 848 752 848 752 959 752 c 0,11,12
 1083 752 1083 752 1148 692 c 0,13,14
 1204 639 1204 639 1204 569.5 c 128,-1,15
 1204 500 1204 500 1178 446.5 c 128,-1,16
 1152 393 1152 393 1103 340 c 0,17,18
 1013 244 1013 244 825 135 c 1,19,-1
 825 133 l 1,20,-1
 1043 137 l 2,21,22
 1134 139 1134 139 1157 152 c 0,23,24
 1195 172 1195 172 1201 231 c 1,25,-1
 1224 231 l 1,26,-1
 1219 0 l 1,27,-1
 739 0 l 1,28,-1
 739 114 l 1,29,30
 986 260 986 260 1016 444 c 0,31,32
 1025 504 1025 504 1025 573 c 0,33,34
 1025 714 1025 714 917 714 c 0,35,36
 842 714 842 714 805 666 c 0,37,38
 795 653 795 653 791 640 c 1,39,-1
 791 638 l 1,40,41
 801 642 801 642 814 642 c 0,0,1
345 761 m 1,42,-1
 448 751 l 1,43,-1
 448 710 l 1,44,-1
 57 710 l 1,45,-1
 57 751 l 1,46,-1
 160 761 l 1,47,-1
 160 1377 l 1,48,-1
 37 1377 l 1,49,-1
 37 1418 l 1,50,-1
 236 1440 l 1,51,-1
 327 1477 l 1,52,-1
 345 1448 l 1,53,-1
 345 761 l 1,42,-1
205 0 m 1,54,-1
 984 1462 l 1,55,-1
 1047 1462 l 1,56,-1
 268 0 l 1,57,-1
 205 0 l 1,54,-1
EndSplineSet
EndChar

StartChar: threequarters
Encoding: 190 190 128
Width: 1273
Flags: W
LayerCount: 2
Fore
SplineSet
123 785 m 1,0,1
 155 733 155 733 233 733 c 0,2,3
 390 733 390 733 390 890 c 0,4,5
 390 985 390 985 355 1035 c 128,-1,6
 320 1085 320 1085 232 1085 c 2,7,-1
 202 1085 l 1,8,-1
 202 1116 l 1,9,-1
 231 1116 l 2,10,11
 346 1116 346 1116 363 1218 c 0,12,13
 368 1248 368 1248 368 1304.5 c 128,-1,14
 368 1361 368 1361 336.5 1393 c 128,-1,15
 305 1425 305 1425 267 1425 c 128,-1,16
 229 1425 229 1425 206.5 1418 c 128,-1,17
 184 1411 184 1411 168 1400 c 1,18,19
 135 1380 135 1380 126 1353 c 1,20,-1
 126 1351 l 1,21,22
 136 1352 136 1352 145 1352 c 0,23,24
 179 1352 179 1352 200 1334 c 1,25,26
 225 1310 225 1310 225 1272 c 128,-1,27
 225 1234 225 1234 203.5 1211.5 c 128,-1,28
 182 1189 182 1189 142.5 1189 c 128,-1,29
 103 1189 103 1189 80 1215 c 128,-1,30
 57 1241 57 1241 57 1278 c 128,-1,31
 57 1315 57 1315 71 1346 c 128,-1,32
 85 1377 85 1377 113 1402 c 0,33,34
 178 1462 178 1462 284 1462 c 0,35,36
 454 1462 454 1462 506 1363 c 0,37,38
 524 1330 524 1330 524 1274 c 128,-1,39
 524 1218 524 1218 474 1170.5 c 128,-1,40
 424 1123 424 1123 322 1104 c 1,41,-1
 322 1102 l 1,42,43
 484 1091 484 1091 540 993 c 0,44,45
 560 957 560 957 560 904 c 0,46,47
 560 697 560 697 281 697 c 0,48,49
 119 697 119 697 66 794 c 0,50,51
 51 822 51 822 51 862.5 c 128,-1,52
 51 903 51 903 73.5 931.5 c 128,-1,53
 96 960 96 960 137.5 960 c 128,-1,54
 179 960 179 960 202.5 935 c 128,-1,55
 226 910 226 910 226 871 c 128,-1,56
 226 832 226 832 200 807 c 0,57,58
 179 787 179 787 142 787 c 0,59,60
 133 787 133 787 123 788 c 1,61,-1
 123 785 l 1,0,1
257 0 m 1,62,-1
 1036 1462 l 1,63,-1
 1099 1462 l 1,64,-1
 320 0 l 1,65,-1
 257 0 l 1,62,-1
664 200 m 1,66,-1
 1047 754 l 1,67,-1
 1134 754 l 1,68,-1
 1134 204 l 1,69,-1
 1238 205 l 1,70,-1
 1238 151 l 1,71,-1
 1134 151 l 1,72,-1
 1134 51 l 1,73,-1
 1237 41 l 1,74,-1
 1237 0 l 1,75,-1
 846 0 l 1,76,-1
 846 41 l 1,77,-1
 949 51 l 1,78,-1
 949 151 l 1,79,-1
 664 151 l 1,80,-1
 664 200 l 1,66,-1
947 526 m 1,81,-1
 715 201 l 1,82,-1
 715 199 l 1,83,-1
 949 200 l 1,84,-1
 949 526 l 1,85,-1
 947 526 l 1,81,-1
EndSplineSet
EndChar

StartChar: questiondown
Encoding: 191 191 129
Width: 847
Flags: W
LayerCount: 2
Fore
SplineSet
696 57 m 2,0,1
 568 57 568 57 568 179 c 0,2,3
 568 233 568 233 603 269.5 c 128,-1,4
 638 306 638 306 683.5 306 c 128,-1,5
 729 306 729 306 753.5 294.5 c 128,-1,6
 778 283 778 283 794 264 c 1,7,8
 829 226 829 226 829 174 c 128,-1,9
 829 122 829 122 807 68.5 c 128,-1,10
 785 15 785 15 736 -30 c 0,11,12
 623 -135 623 -135 417 -135 c 0,13,14
 234 -135 234 -135 130 -32 c 0,15,16
 34 62 34 62 34 204 c 0,17,18
 34 366 34 366 230 556 c 0,19,20
 350 673 350 673 388 738.5 c 128,-1,21
 426 804 426 804 426 847.5 c 128,-1,22
 426 891 426 891 416 921 c 1,23,-1
 470 921 l 1,24,25
 490 877 490 877 490 829.5 c 128,-1,26
 490 782 490 782 473 735.5 c 128,-1,27
 456 689 456 689 431 640.5 c 128,-1,28
 406 592 406 592 376.5 541 c 128,-1,29
 347 490 347 490 322 435 c 0,30,31
 263 305 263 305 263 179.5 c 128,-1,32
 263 54 263 54 322 -11.5 c 128,-1,33
 381 -77 381 -77 485 -77 c 0,34,35
 568 -77 568 -77 638 -30 c 1,36,37
 698 9 698 9 710 51 c 1,38,-1
 710 57 l 1,39,-1
 696 57 l 2,0,1
518.5 1329 m 128,-1,41
 553 1296 553 1296 553 1240.5 c 128,-1,42
 553 1185 553 1185 518.5 1150.5 c 128,-1,43
 484 1116 484 1116 428.5 1116 c 128,-1,44
 373 1116 373 1116 339.5 1150.5 c 128,-1,45
 306 1185 306 1185 306 1240.5 c 128,-1,46
 306 1296 306 1296 339.5 1329 c 128,-1,47
 373 1362 373 1362 428.5 1362 c 128,-1,40
 484 1362 484 1362 518.5 1329 c 128,-1,41
EndSplineSet
EndChar

StartChar: Agrave
Encoding: 192 192 130
Width: 1237
Flags: W
LayerCount: 2
Fore
SplineSet
736 414 m 1,0,-1
 288 414 l 1,1,-1
 172 55 l 1,2,-1
 307 45 l 1,3,-1
 307 0 l 1,4,-1
 -6 0 l 1,5,-1
 -6 45 l 1,6,-1
 115 55 l 1,7,-1
 588 1468 l 1,8,-1
 633 1468 l 1,9,-1
 1122 55 l 1,10,-1
 1254 45 l 1,11,-1
 1254 0 l 1,12,-1
 719 0 l 1,13,-1
 719 45 l 1,14,-1
 854 55 l 1,15,-1
 736 414 l 1,0,-1
306 474 m 1,16,-1
 714 482 l 1,17,-1
 514 1096 l 1,18,-1
 510 1096 l 1,19,-1
 306 474 l 1,16,-1
377 1622 m 1,20,21
 286 1643 286 1643 286 1719 c 0,22,23
 286 1780 286 1780 346 1799 c 0,24,25
 362 1804 362 1804 379 1804 c 0,26,27
 409 1804 409 1804 451 1771 c 2,28,-1
 693 1580 l 1,29,-1
 678 1542 l 1,30,-1
 377 1622 l 1,20,21
EndSplineSet
EndChar

StartChar: Aacute
Encoding: 193 193 131
Width: 1237
Flags: W
LayerCount: 2
Fore
SplineSet
736 414 m 1,0,-1
 288 414 l 1,1,-1
 172 55 l 1,2,-1
 307 45 l 1,3,-1
 307 0 l 1,4,-1
 -6 0 l 1,5,-1
 -6 45 l 1,6,-1
 115 55 l 1,7,-1
 588 1468 l 1,8,-1
 633 1468 l 1,9,-1
 1122 55 l 1,10,-1
 1254 45 l 1,11,-1
 1254 0 l 1,12,-1
 719 0 l 1,13,-1
 719 45 l 1,14,-1
 854 55 l 1,15,-1
 736 414 l 1,0,-1
306 474 m 1,16,-1
 714 482 l 1,17,-1
 514 1096 l 1,18,-1
 510 1096 l 1,19,-1
 306 474 l 1,16,-1
512 1535 m 1,20,-1
 497 1573 l 1,21,-1
 739 1764 l 2,22,23
 784 1799 784 1799 808 1799 c 128,-1,24
 832 1799 832 1799 847 1794 c 128,-1,25
 862 1789 862 1789 874 1778 c 0,26,27
 903 1753 903 1753 903 1723.5 c 128,-1,28
 903 1694 903 1694 895.5 1678 c 128,-1,29
 888 1662 888 1662 876 1649 c 0,30,31
 852 1624 852 1624 813 1615 c 1,32,-1
 512 1535 l 1,20,-1
EndSplineSet
EndChar

StartChar: Acircumflex
Encoding: 194 194 132
Width: 1237
Flags: W
LayerCount: 2
Fore
SplineSet
736 414 m 1,0,-1
 288 414 l 1,1,-1
 172 55 l 1,2,-1
 307 45 l 1,3,-1
 307 0 l 1,4,-1
 -6 0 l 1,5,-1
 -6 45 l 1,6,-1
 115 55 l 1,7,-1
 588 1468 l 1,8,-1
 633 1468 l 1,9,-1
 1122 55 l 1,10,-1
 1254 45 l 1,11,-1
 1254 0 l 1,12,-1
 719 0 l 1,13,-1
 719 45 l 1,14,-1
 854 55 l 1,15,-1
 736 414 l 1,0,-1
306 474 m 1,16,-1
 714 482 l 1,17,-1
 514 1096 l 1,18,-1
 510 1096 l 1,19,-1
 306 474 l 1,16,-1
617 1854 m 1,20,-1
 621 1854 l 1,21,-1
 916 1579 l 1,22,-1
 854 1532 l 1,23,-1
 613 1693 l 1,24,-1
 609 1693 l 1,25,-1
 375 1529 l 1,26,-1
 320 1575 l 1,27,-1
 617 1854 l 1,20,-1
EndSplineSet
EndChar

StartChar: Atilde
Encoding: 195 195 133
Width: 1237
Flags: W
LayerCount: 2
Fore
SplineSet
736 414 m 1,0,-1
 288 414 l 1,1,-1
 172 55 l 1,2,-1
 307 45 l 1,3,-1
 307 0 l 1,4,-1
 -6 0 l 1,5,-1
 -6 45 l 1,6,-1
 115 55 l 1,7,-1
 588 1468 l 1,8,-1
 633 1468 l 1,9,-1
 1122 55 l 1,10,-1
 1254 45 l 1,11,-1
 1254 0 l 1,12,-1
 719 0 l 1,13,-1
 719 45 l 1,14,-1
 854 55 l 1,15,-1
 736 414 l 1,0,-1
306 474 m 1,16,-1
 714 482 l 1,17,-1
 514 1096 l 1,18,-1
 510 1096 l 1,19,-1
 306 474 l 1,16,-1
742 1741 m 0,20,21
 835 1741 835 1741 897 1833 c 1,22,-1
 936 1820 l 1,23,24
 905 1657 905 1657 796 1612 c 0,25,26
 764 1599 764 1599 724.5 1599 c 128,-1,27
 685 1599 685 1599 654.5 1613 c 128,-1,28
 624 1627 624 1627 598.5 1644.5 c 128,-1,29
 573 1662 573 1662 548 1676 c 128,-1,30
 523 1690 523 1690 487 1690 c 0,31,32
 389 1690 389 1690 325 1610 c 1,33,-1
 289 1626 l 1,34,35
 326 1758 326 1758 427 1808 c 0,36,37
 463 1825 463 1825 507.5 1825 c 128,-1,38
 552 1825 552 1825 580.5 1812 c 128,-1,39
 609 1799 609 1799 632.5 1783 c 128,-1,40
 656 1767 656 1767 680.5 1754 c 128,-1,41
 705 1741 705 1741 742 1741 c 0,20,21
EndSplineSet
EndChar

StartChar: Adieresis
Encoding: 196 196 134
Width: 1237
Flags: W
LayerCount: 2
Fore
SplineSet
736 414 m 1,0,-1
 288 414 l 1,1,-1
 172 55 l 1,2,-1
 307 45 l 1,3,-1
 307 0 l 1,4,-1
 -6 0 l 1,5,-1
 -6 45 l 1,6,-1
 115 55 l 1,7,-1
 588 1468 l 1,8,-1
 633 1468 l 1,9,-1
 1122 55 l 1,10,-1
 1254 45 l 1,11,-1
 1254 0 l 1,12,-1
 719 0 l 1,13,-1
 719 45 l 1,14,-1
 854 55 l 1,15,-1
 736 414 l 1,0,-1
306 474 m 1,16,-1
 714 482 l 1,17,-1
 514 1096 l 1,18,-1
 510 1096 l 1,19,-1
 306 474 l 1,16,-1
305 1707 m 0,20,21
 305 1797 305 1797 376 1830 c 0,22,23
 399 1841 399 1841 427 1841 c 0,24,25
 513 1841 513 1841 542 1760 c 0,26,27
 550 1735 550 1735 550 1707 c 0,28,29
 550 1650 550 1650 526 1621 c 1,30,31
 483 1572 483 1572 427 1572 c 0,32,33
 342 1572 342 1572 314 1654 c 0,34,35
 305 1679 305 1679 305 1707 c 0,20,21
665 1707 m 0,36,37
 665 1797 665 1797 736 1830 c 0,38,39
 759 1841 759 1841 787 1841 c 0,40,41
 873 1841 873 1841 902 1760 c 0,42,43
 910 1735 910 1735 910 1707 c 0,44,45
 910 1650 910 1650 886 1621 c 1,46,47
 843 1572 843 1572 787 1572 c 0,48,49
 702 1572 702 1572 674 1654 c 0,50,51
 665 1679 665 1679 665 1707 c 0,36,37
EndSplineSet
EndChar

StartChar: Aring
Encoding: 197 197 135
Width: 1237
Flags: W
LayerCount: 2
Fore
SplineSet
736 414 m 1,0,-1
 288 414 l 1,1,-1
 172 55 l 1,2,-1
 307 45 l 1,3,-1
 307 0 l 1,4,-1
 -6 0 l 1,5,-1
 -6 45 l 1,6,-1
 115 55 l 1,7,-1
 588 1468 l 1,8,-1
 633 1468 l 1,9,-1
 1122 55 l 1,10,-1
 1254 45 l 1,11,-1
 1254 0 l 1,12,-1
 719 0 l 1,13,-1
 719 45 l 1,14,-1
 854 55 l 1,15,-1
 736 414 l 1,0,-1
306 474 m 1,16,-1
 714 482 l 1,17,-1
 514 1096 l 1,18,-1
 510 1096 l 1,19,-1
 306 474 l 1,16,-1
858 1692 m 0,20,21
 858 1514 858 1514 610 1514 c 128,-1,22
 362 1514 362 1514 362 1692 c 0,23,24
 362 1826 362 1826 506 1862 c 0,25,26
 552 1874 552 1874 608 1874 c 0,27,28
 728 1874 728 1874 793 1828 c 128,-1,29
 858 1782 858 1782 858 1692 c 0,20,21
609.5 1818 m 128,-1,31
 501 1818 501 1818 501 1694 c 128,-1,32
 501 1570 501 1570 609.5 1570 c 128,-1,33
 718 1570 718 1570 718 1694 c 128,-1,30
 718 1818 718 1818 609.5 1818 c 128,-1,31
EndSplineSet
EndChar

StartChar: AE
Encoding: 198 198 136
Width: 1854
Flags: W
LayerCount: 2
Fore
SplineSet
1338 1372 m 0,0,1
 1245 1372 1245 1372 1129 1362 c 1,2,-1
 1129 768 l 1,3,4
 1140 767 1140 767 1155 766.5 c 128,-1,5
 1170 766 1170 766 1185 765.5 c 128,-1,6
 1200 765 1200 765 1214 765 c 2,7,-1
 1238 765 l 2,8,9
 1343 765 1343 765 1386 814 c 0,10,11
 1433 868 1433 868 1433 1004 c 1,12,-1
 1488 1004 l 1,13,-1
 1488 467 l 1,14,-1
 1433 467 l 1,15,16
 1433 663 1433 663 1326 698 c 0,17,18
 1289 710 1289 710 1260 710 c 2,19,-1
 1218 710 l 2,20,21
 1205 710 1205 710 1189 709.5 c 128,-1,22
 1173 709 1173 709 1157 708.5 c 128,-1,23
 1141 708 1141 708 1129 707 c 1,24,-1
 1129 65 l 1,25,26
 1274 55 1274 55 1373 55 c 128,-1,27
 1472 55 1472 55 1531.5 81.5 c 128,-1,28
 1591 108 1591 108 1628 156 c 1,29,30
 1693 237 1693 237 1713 408 c 1,31,-1
 1745 408 l 1,32,-1
 1745 0 l 1,33,-1
 719 0 l 1,34,-1
 719 45 l 1,35,-1
 873 55 l 1,36,-1
 873 414 l 1,37,-1
 354 414 l 1,38,-1
 150 55 l 1,39,-1
 285 45 l 1,40,-1
 285 0 l 1,41,-1
 -34 0 l 1,42,-1
 -34 45 l 1,43,-1
 87 55 l 1,44,-1
 636 1020 l 2,45,46
 738 1198 738 1198 738 1263.5 c 128,-1,47
 738 1329 738 1329 698.5 1355.5 c 128,-1,48
 659 1382 659 1382 564 1382 c 1,49,-1
 564 1427 l 1,50,-1
 1714 1427 l 1,51,-1
 1714 1020 l 1,52,-1
 1659 1020 l 1,53,54
 1641 1191 1641 1191 1581 1272 c 0,55,56
 1507 1372 1507 1372 1338 1372 c 0,0,1
873 468 m 1,57,-1
 873 1328 l 1,58,-1
 379 468 l 1,59,-1
 873 468 l 1,57,-1
EndSplineSet
EndChar

StartChar: Ccedilla
Encoding: 199 199 137
Width: 1253
Flags: W
LayerCount: 2
Fore
SplineSet
538 -171 m 1,0,1
 604 -136 604 -136 680.5 -136 c 128,-1,2
 757 -136 757 -136 798 -172 c 128,-1,3
 839 -208 839 -208 839 -260 c 128,-1,4
 839 -312 839 -312 819 -348.5 c 128,-1,5
 799 -385 799 -385 766 -415.5 c 128,-1,6
 733 -446 733 -446 691 -470.5 c 128,-1,7
 649 -495 649 -495 604 -513 c 0,8,9
 516 -549 516 -549 438 -560 c 1,10,-1
 430 -510 l 1,11,12
 535 -495 535 -495 604 -421 c 1,13,14
 663 -356 663 -356 663 -286 c 128,-1,15
 663 -216 663 -216 598 -216 c 0,16,17
 548 -216 548 -216 505 -246 c 1,18,-1
 471 -218 l 1,19,-1
 523 -11 l 1,20,21
 291 48 291 48 184 256 c 0,22,23
 98 424 98 424 98 688 c 0,24,25
 98 990 98 990 256 1210 c 0,26,27
 367 1366 367 1366 551 1430 c 0,28,29
 645 1462 645 1462 741.5 1462 c 128,-1,30
 838 1462 838 1462 909 1439 c 128,-1,31
 980 1416 980 1416 1035 1377 c 0,32,33
 1155 1292 1155 1292 1155 1174 c 0,34,35
 1155 1080 1155 1080 1075 1043 c 0,36,37
 1049 1031 1049 1031 1000.5 1031 c 128,-1,38
 952 1031 952 1031 913.5 1069.5 c 128,-1,39
 875 1108 875 1108 875 1152 c 128,-1,40
 875 1196 875 1196 885 1221 c 128,-1,41
 895 1246 895 1246 912 1264 c 0,42,43
 948 1304 948 1304 1004 1304 c 0,44,45
 1008 1304 1008 1304 1012 1304 c 128,-1,46
 1016 1304 1016 1304 1020 1303 c 1,47,-1
 1020 1307 l 1,48,49
 990 1360 990 1360 876 1393 c 0,50,51
 834 1405 834 1405 762 1405 c 128,-1,52
 690 1405 690 1405 613.5 1356.5 c 128,-1,53
 537 1308 537 1308 482 1218 c 0,54,55
 364 1027 364 1027 364 717 c 0,56,57
 364 437 364 437 456 250 c 1,58,59
 559 38 559 38 754 38 c 0,60,61
 895 38 895 38 1008 128 c 0,62,63
 1104 204 1104 204 1165 339 c 1,64,-1
 1212 317 l 1,65,66
 1068 -35 1068 -35 731 -35 c 0,67,68
 659 -35 659 -35 586 -24 c 1,69,-1
 538 -171 l 1,0,1
EndSplineSet
EndChar

StartChar: Egrave
Encoding: 200 200 138
Width: 1210
Flags: W
LayerCount: 2
Fore
SplineSet
692 1372 m 0,0,1
 599 1372 599 1372 483 1362 c 1,2,-1
 483 768 l 1,3,4
 494 767 494 767 509 766.5 c 128,-1,5
 524 766 524 766 539 765.5 c 128,-1,6
 554 765 554 765 568 765 c 2,7,-1
 592 765 l 2,8,9
 697 765 697 765 740 814 c 0,10,11
 787 868 787 868 787 1004 c 1,12,-1
 842 1004 l 1,13,-1
 842 467 l 1,14,-1
 787 467 l 1,15,16
 787 663 787 663 680 698 c 0,17,18
 643 710 643 710 614 710 c 2,19,-1
 572 710 l 2,20,21
 559 710 559 710 543 709.5 c 128,-1,22
 527 709 527 709 511 708.5 c 128,-1,23
 495 708 495 708 483 707 c 1,24,-1
 483 65 l 1,25,26
 628 55 628 55 727 55 c 128,-1,27
 826 55 826 55 882.5 78 c 128,-1,28
 939 101 939 101 975 146 c 0,29,30
 1031 216 1031 216 1067 408 c 1,31,-1
 1110 408 l 1,32,-1
 1099 0 l 1,33,-1
 73 0 l 1,34,-1
 73 45 l 1,35,-1
 227 55 l 1,36,-1
 227 1372 l 1,37,-1
 73 1382 l 1,38,-1
 73 1427 l 1,39,-1
 1058 1427 l 1,40,-1
 1068 1020 l 1,41,-1
 1026 1020 l 1,42,43
 993 1199 993 1199 936 1272 c 0,44,45
 859 1372 859 1372 692 1372 c 0,0,1
478 1622 m 1,46,47
 387 1643 387 1643 387 1719 c 0,48,49
 387 1780 387 1780 447 1799 c 0,50,51
 463 1804 463 1804 480 1804 c 0,52,53
 510 1804 510 1804 552 1771 c 2,54,-1
 794 1580 l 1,55,-1
 779 1542 l 1,56,-1
 478 1622 l 1,46,47
EndSplineSet
EndChar

StartChar: Eacute
Encoding: 201 201 139
Width: 1210
Flags: W
LayerCount: 2
Fore
SplineSet
692 1372 m 0,0,1
 599 1372 599 1372 483 1362 c 1,2,-1
 483 768 l 1,3,4
 494 767 494 767 509 766.5 c 128,-1,5
 524 766 524 766 539 765.5 c 128,-1,6
 554 765 554 765 568 765 c 2,7,-1
 592 765 l 2,8,9
 697 765 697 765 740 814 c 0,10,11
 787 868 787 868 787 1004 c 1,12,-1
 842 1004 l 1,13,-1
 842 467 l 1,14,-1
 787 467 l 1,15,16
 787 663 787 663 680 698 c 0,17,18
 643 710 643 710 614 710 c 2,19,-1
 572 710 l 2,20,21
 559 710 559 710 543 709.5 c 128,-1,22
 527 709 527 709 511 708.5 c 128,-1,23
 495 708 495 708 483 707 c 1,24,-1
 483 65 l 1,25,26
 628 55 628 55 727 55 c 128,-1,27
 826 55 826 55 882.5 78 c 128,-1,28
 939 101 939 101 975 146 c 0,29,30
 1031 216 1031 216 1067 408 c 1,31,-1
 1110 408 l 1,32,-1
 1099 0 l 1,33,-1
 73 0 l 1,34,-1
 73 45 l 1,35,-1
 227 55 l 1,36,-1
 227 1372 l 1,37,-1
 73 1382 l 1,38,-1
 73 1427 l 1,39,-1
 1058 1427 l 1,40,-1
 1068 1020 l 1,41,-1
 1026 1020 l 1,42,43
 993 1199 993 1199 936 1272 c 0,44,45
 859 1372 859 1372 692 1372 c 0,0,1
573 1535 m 1,46,-1
 558 1573 l 1,47,-1
 800 1764 l 2,48,49
 845 1799 845 1799 869 1799 c 128,-1,50
 893 1799 893 1799 908 1794 c 128,-1,51
 923 1789 923 1789 936 1778 c 0,52,53
 964 1753 964 1753 964 1723.5 c 128,-1,54
 964 1694 964 1694 956.5 1678 c 128,-1,55
 949 1662 949 1662 936 1649 c 0,56,57
 913 1624 913 1624 874 1615 c 1,58,-1
 573 1535 l 1,46,-1
EndSplineSet
EndChar

StartChar: Ecircumflex
Encoding: 202 202 140
Width: 1210
Flags: W
LayerCount: 2
Fore
SplineSet
692 1372 m 0,0,1
 599 1372 599 1372 483 1362 c 1,2,-1
 483 768 l 1,3,4
 494 767 494 767 509 766.5 c 128,-1,5
 524 766 524 766 539 765.5 c 128,-1,6
 554 765 554 765 568 765 c 2,7,-1
 592 765 l 2,8,9
 697 765 697 765 740 814 c 0,10,11
 787 868 787 868 787 1004 c 1,12,-1
 842 1004 l 1,13,-1
 842 467 l 1,14,-1
 787 467 l 1,15,16
 787 663 787 663 680 698 c 0,17,18
 643 710 643 710 614 710 c 2,19,-1
 572 710 l 2,20,21
 559 710 559 710 543 709.5 c 128,-1,22
 527 709 527 709 511 708.5 c 128,-1,23
 495 708 495 708 483 707 c 1,24,-1
 483 65 l 1,25,26
 628 55 628 55 727 55 c 128,-1,27
 826 55 826 55 882.5 78 c 128,-1,28
 939 101 939 101 975 146 c 0,29,30
 1031 216 1031 216 1067 408 c 1,31,-1
 1110 408 l 1,32,-1
 1099 0 l 1,33,-1
 73 0 l 1,34,-1
 73 45 l 1,35,-1
 227 55 l 1,36,-1
 227 1372 l 1,37,-1
 73 1382 l 1,38,-1
 73 1427 l 1,39,-1
 1058 1427 l 1,40,-1
 1068 1020 l 1,41,-1
 1026 1020 l 1,42,43
 993 1199 993 1199 936 1272 c 0,44,45
 859 1372 859 1372 692 1372 c 0,0,1
658 1854 m 1,46,-1
 662 1854 l 1,47,-1
 957 1579 l 1,48,-1
 895 1532 l 1,49,-1
 654 1693 l 1,50,-1
 650 1693 l 1,51,-1
 416 1529 l 1,52,-1
 361 1575 l 1,53,-1
 658 1854 l 1,46,-1
EndSplineSet
EndChar

StartChar: Edieresis
Encoding: 203 203 141
Width: 1210
Flags: W
LayerCount: 2
Fore
SplineSet
692 1372 m 0,0,1
 599 1372 599 1372 483 1362 c 1,2,-1
 483 768 l 1,3,4
 494 767 494 767 509 766.5 c 128,-1,5
 524 766 524 766 539 765.5 c 128,-1,6
 554 765 554 765 568 765 c 2,7,-1
 592 765 l 2,8,9
 697 765 697 765 740 814 c 0,10,11
 787 868 787 868 787 1004 c 1,12,-1
 842 1004 l 1,13,-1
 842 467 l 1,14,-1
 787 467 l 1,15,16
 787 663 787 663 680 698 c 0,17,18
 643 710 643 710 614 710 c 2,19,-1
 572 710 l 2,20,21
 559 710 559 710 543 709.5 c 128,-1,22
 527 709 527 709 511 708.5 c 128,-1,23
 495 708 495 708 483 707 c 1,24,-1
 483 65 l 1,25,26
 628 55 628 55 727 55 c 128,-1,27
 826 55 826 55 882.5 78 c 128,-1,28
 939 101 939 101 975 146 c 0,29,30
 1031 216 1031 216 1067 408 c 1,31,-1
 1110 408 l 1,32,-1
 1099 0 l 1,33,-1
 73 0 l 1,34,-1
 73 45 l 1,35,-1
 227 55 l 1,36,-1
 227 1372 l 1,37,-1
 73 1382 l 1,38,-1
 73 1427 l 1,39,-1
 1058 1427 l 1,40,-1
 1068 1020 l 1,41,-1
 1026 1020 l 1,42,43
 993 1199 993 1199 936 1272 c 0,44,45
 859 1372 859 1372 692 1372 c 0,0,1
326 1707 m 0,46,47
 326 1797 326 1797 398 1830 c 0,48,49
 420 1841 420 1841 448 1841 c 0,50,51
 534 1841 534 1841 562 1760 c 0,52,53
 571 1735 571 1735 571 1707 c 0,54,55
 571 1650 571 1650 546 1621 c 0,56,57
 504 1572 504 1572 448 1572 c 0,58,59
 363 1572 363 1572 334 1654 c 0,60,61
 326 1679 326 1679 326 1707 c 0,46,47
686 1707 m 0,62,63
 686 1797 686 1797 758 1830 c 0,64,65
 780 1841 780 1841 808 1841 c 0,66,67
 894 1841 894 1841 922 1760 c 0,68,69
 931 1735 931 1735 931 1707 c 0,70,71
 931 1650 931 1650 906 1621 c 0,72,73
 864 1572 864 1572 808 1572 c 0,74,75
 723 1572 723 1572 694 1654 c 0,76,77
 686 1679 686 1679 686 1707 c 0,62,63
EndSplineSet
EndChar

StartChar: Igrave
Encoding: 204 204 142
Width: 710
Flags: W
LayerCount: 2
Fore
SplineSet
637 1382 m 1,0,-1
 483 1372 l 1,1,-1
 483 55 l 1,2,-1
 637 45 l 1,3,-1
 637 0 l 1,4,-1
 73 0 l 1,5,-1
 73 45 l 1,6,-1
 227 55 l 1,7,-1
 227 1372 l 1,8,-1
 73 1382 l 1,9,-1
 73 1427 l 1,10,-1
 637 1427 l 1,11,-1
 637 1382 l 1,0,-1
147 1622 m 1,12,13
 56 1643 56 1643 56 1719 c 0,14,15
 56 1780 56 1780 116 1799 c 0,16,17
 132 1804 132 1804 149 1804 c 0,18,19
 179 1804 179 1804 221 1771 c 2,20,-1
 463 1580 l 1,21,-1
 448 1542 l 1,22,-1
 147 1622 l 1,12,13
EndSplineSet
EndChar

StartChar: Iacute
Encoding: 205 205 143
Width: 710
Flags: W
LayerCount: 2
Fore
SplineSet
637 1382 m 1,0,-1
 483 1372 l 1,1,-1
 483 55 l 1,2,-1
 637 45 l 1,3,-1
 637 0 l 1,4,-1
 73 0 l 1,5,-1
 73 45 l 1,6,-1
 227 55 l 1,7,-1
 227 1372 l 1,8,-1
 73 1382 l 1,9,-1
 73 1427 l 1,10,-1
 637 1427 l 1,11,-1
 637 1382 l 1,0,-1
242 1535 m 1,12,-1
 227 1573 l 1,13,-1
 469 1764 l 2,14,15
 514 1799 514 1799 538 1799 c 128,-1,16
 562 1799 562 1799 577 1794 c 128,-1,17
 592 1789 592 1789 604 1778 c 0,18,19
 633 1753 633 1753 633 1723.5 c 128,-1,20
 633 1694 633 1694 625.5 1678 c 128,-1,21
 618 1662 618 1662 606 1649 c 0,22,23
 582 1624 582 1624 543 1615 c 1,24,-1
 242 1535 l 1,12,-1
EndSplineSet
EndChar

StartChar: Icircumflex
Encoding: 206 206 144
Width: 710
Flags: W
LayerCount: 2
Fore
SplineSet
637 1382 m 1,0,-1
 483 1372 l 1,1,-1
 483 55 l 1,2,-1
 637 45 l 1,3,-1
 637 0 l 1,4,-1
 73 0 l 1,5,-1
 73 45 l 1,6,-1
 227 55 l 1,7,-1
 227 1372 l 1,8,-1
 73 1382 l 1,9,-1
 73 1427 l 1,10,-1
 637 1427 l 1,11,-1
 637 1382 l 1,0,-1
357 1854 m 1,12,-1
 361 1854 l 1,13,-1
 656 1579 l 1,14,-1
 594 1532 l 1,15,-1
 353 1693 l 1,16,-1
 349 1693 l 1,17,-1
 115 1529 l 1,18,-1
 60 1575 l 1,19,-1
 357 1854 l 1,12,-1
EndSplineSet
EndChar

StartChar: Idieresis
Encoding: 207 207 145
Width: 710
Flags: W
LayerCount: 2
Fore
SplineSet
637 1382 m 1,0,-1
 483 1372 l 1,1,-1
 483 55 l 1,2,-1
 637 45 l 1,3,-1
 637 0 l 1,4,-1
 73 0 l 1,5,-1
 73 45 l 1,6,-1
 227 55 l 1,7,-1
 227 1372 l 1,8,-1
 73 1382 l 1,9,-1
 73 1427 l 1,10,-1
 637 1427 l 1,11,-1
 637 1382 l 1,0,-1
45 1707 m 0,12,13
 45 1797 45 1797 116 1830 c 0,14,15
 139 1841 139 1841 167 1841 c 0,16,17
 253 1841 253 1841 282 1760 c 0,18,19
 290 1735 290 1735 290 1707 c 0,20,21
 290 1650 290 1650 266 1621 c 1,22,23
 223 1572 223 1572 167 1572 c 0,24,25
 82 1572 82 1572 54 1654 c 0,26,27
 45 1679 45 1679 45 1707 c 0,12,13
405 1707 m 0,28,29
 405 1797 405 1797 476 1830 c 0,30,31
 499 1841 499 1841 527 1841 c 0,32,33
 613 1841 613 1841 642 1760 c 0,34,35
 650 1735 650 1735 650 1707 c 0,36,37
 650 1650 650 1650 626 1621 c 1,38,39
 583 1572 583 1572 527 1572 c 0,40,41
 442 1572 442 1572 414 1654 c 0,42,43
 405 1679 405 1679 405 1707 c 0,28,29
EndSplineSet
EndChar

StartChar: Eth
Encoding: 208 208 146
Width: 1421
Flags: W
LayerCount: 2
Fore
SplineSet
76 0 m 1,0,-1
 76 45 l 1,1,-1
 230 55 l 1,2,-1
 230 692 l 1,3,-1
 51 692 l 1,4,-1
 51 755 l 1,5,-1
 230 755 l 1,6,-1
 230 1372 l 1,7,-1
 76 1382 l 1,8,-1
 76 1427 l 1,9,-1
 580 1427 l 2,10,11
 974 1427 974 1427 1157 1228 c 0,12,13
 1319 1053 1319 1053 1319 707 c 0,14,15
 1319 213 1319 213 934 55 c 0,16,17
 801 0 801 0 613 0 c 2,18,-1
 76 0 l 1,0,-1
486 65 m 1,19,20
 539 55 539 55 584 55 c 0,21,22
 830 55 830 55 948 246 c 1,23,24
 1053 414 1053 414 1053 723 c 0,25,26
 1053 1030 1053 1030 966 1183 c 0,27,28
 859 1372 859 1372 596 1372 c 0,29,30
 539 1372 539 1372 486 1362 c 1,31,-1
 486 762 l 1,32,-1
 693 762 l 1,33,-1
 693 692 l 1,34,-1
 486 692 l 1,35,-1
 486 65 l 1,19,20
EndSplineSet
EndChar

StartChar: Ntilde
Encoding: 209 209 147
Width: 1414
Flags: W
LayerCount: 2
Fore
SplineSet
296 55 m 1,0,-1
 449 45 l 1,1,-1
 449 0 l 1,2,-1
 79 0 l 1,3,-1
 79 45 l 1,4,-1
 233 55 l 1,5,-1
 222 1372 l 1,6,-1
 69 1382 l 1,7,-1
 69 1427 l 1,8,-1
 283 1427 l 1,9,-1
 1141 387 l 1,10,-1
 1143 387 l 1,11,-1
 1129 1372 l 1,12,-1
 976 1382 l 1,13,-1
 976 1427 l 1,14,-1
 1346 1427 l 1,15,-1
 1346 1382 l 1,16,-1
 1192 1372 l 1,17,-1
 1203 -20 l 1,18,-1
 1142 -20 l 1,19,-1
 284 1023 l 1,20,-1
 282 1023 l 1,21,-1
 296 55 l 1,0,-1
834 1741 m 0,22,23
 927 1741 927 1741 989 1833 c 1,24,-1
 1028 1820 l 1,25,26
 997 1657 997 1657 888 1612 c 0,27,28
 856 1599 856 1599 816.5 1599 c 128,-1,29
 777 1599 777 1599 746.5 1613 c 128,-1,30
 716 1627 716 1627 690.5 1644.5 c 128,-1,31
 665 1662 665 1662 640 1676 c 128,-1,32
 615 1690 615 1690 579 1690 c 0,33,34
 481 1690 481 1690 417 1610 c 1,35,-1
 381 1626 l 1,36,37
 418 1758 418 1758 519 1808 c 0,38,39
 555 1825 555 1825 599.5 1825 c 128,-1,40
 644 1825 644 1825 672.5 1812 c 128,-1,41
 701 1799 701 1799 724.5 1783 c 128,-1,42
 748 1767 748 1767 772.5 1754 c 128,-1,43
 797 1741 797 1741 834 1741 c 0,22,23
EndSplineSet
EndChar

StartChar: Ograve
Encoding: 210 210 148
Width: 1441
Flags: W
LayerCount: 2
Fore
SplineSet
393.5 1038 m 128,-1,1
 364 910 364 910 364 748 c 128,-1,2
 364 586 364 586 386.5 457 c 128,-1,3
 409 328 409 328 454 231 c 0,4,5
 550 20 550 20 718 20 c 128,-1,6
 886 20 886 20 983 218 c 0,7,8
 1077 409 1077 409 1077 733 c 0,9,10
 1077 1238 1077 1238 870 1366 c 0,11,12
 804 1407 804 1407 728.5 1407 c 128,-1,13
 653 1407 653 1407 587.5 1368.5 c 128,-1,14
 522 1330 522 1330 472.5 1248 c 128,-1,0
 423 1166 423 1166 393.5 1038 c 128,-1,1
138.5 407 m 128,-1,16
 96 544 96 544 96 677.5 c 128,-1,17
 96 811 96 811 115.5 906.5 c 128,-1,18
 135 1002 135 1002 172 1086 c 128,-1,19
 209 1170 209 1170 263 1239 c 128,-1,20
 317 1308 317 1308 386 1358 c 0,21,22
 532 1462 532 1462 718 1462 c 0,23,24
 1001 1462 1001 1462 1173 1263 c 128,-1,25
 1345 1064 1345 1064 1345 741 c 0,26,27
 1345 425 1345 425 1194 208 c 1,28,29
 1023 -35 1023 -35 724 -35 c 0,30,31
 430 -35 430 -35 262 172 c 1,32,15
 181 270 181 270 138.5 407 c 128,-1,16
523 1622 m 1,33,34
 432 1643 432 1643 432 1719 c 0,35,36
 432 1780 432 1780 492 1799 c 0,37,38
 508 1804 508 1804 525 1804 c 0,39,40
 555 1804 555 1804 597 1771 c 2,41,-1
 839 1580 l 1,42,-1
 824 1542 l 1,43,-1
 523 1622 l 1,33,34
EndSplineSet
EndChar

StartChar: Oacute
Encoding: 211 211 149
Width: 1441
Flags: W
LayerCount: 2
Fore
SplineSet
393.5 1038 m 128,-1,1
 364 910 364 910 364 748 c 128,-1,2
 364 586 364 586 386.5 457 c 128,-1,3
 409 328 409 328 454 231 c 0,4,5
 550 20 550 20 718 20 c 128,-1,6
 886 20 886 20 983 218 c 0,7,8
 1077 409 1077 409 1077 733 c 0,9,10
 1077 1238 1077 1238 870 1366 c 0,11,12
 804 1407 804 1407 728.5 1407 c 128,-1,13
 653 1407 653 1407 587.5 1368.5 c 128,-1,14
 522 1330 522 1330 472.5 1248 c 128,-1,0
 423 1166 423 1166 393.5 1038 c 128,-1,1
138.5 407 m 128,-1,16
 96 544 96 544 96 677.5 c 128,-1,17
 96 811 96 811 115.5 906.5 c 128,-1,18
 135 1002 135 1002 172 1086 c 128,-1,19
 209 1170 209 1170 263 1239 c 128,-1,20
 317 1308 317 1308 386 1358 c 0,21,22
 532 1462 532 1462 718 1462 c 0,23,24
 1001 1462 1001 1462 1173 1263 c 128,-1,25
 1345 1064 1345 1064 1345 741 c 0,26,27
 1345 425 1345 425 1194 208 c 1,28,29
 1023 -35 1023 -35 724 -35 c 0,30,31
 430 -35 430 -35 262 172 c 1,32,15
 181 270 181 270 138.5 407 c 128,-1,16
618 1535 m 1,33,-1
 603 1573 l 1,34,-1
 845 1764 l 2,35,36
 890 1799 890 1799 914 1799 c 128,-1,37
 938 1799 938 1799 953 1794 c 128,-1,38
 968 1789 968 1789 980 1778 c 0,39,40
 1009 1753 1009 1753 1009 1723.5 c 128,-1,41
 1009 1694 1009 1694 1001.5 1678 c 128,-1,42
 994 1662 994 1662 982 1649 c 0,43,44
 958 1624 958 1624 919 1615 c 1,45,-1
 618 1535 l 1,33,-1
EndSplineSet
EndChar

StartChar: Ocircumflex
Encoding: 212 212 150
Width: 1441
Flags: W
LayerCount: 2
Fore
SplineSet
393.5 1038 m 128,-1,1
 364 910 364 910 364 748 c 128,-1,2
 364 586 364 586 386.5 457 c 128,-1,3
 409 328 409 328 454 231 c 0,4,5
 550 20 550 20 718 20 c 128,-1,6
 886 20 886 20 983 218 c 0,7,8
 1077 409 1077 409 1077 733 c 0,9,10
 1077 1238 1077 1238 870 1366 c 0,11,12
 804 1407 804 1407 728.5 1407 c 128,-1,13
 653 1407 653 1407 587.5 1368.5 c 128,-1,14
 522 1330 522 1330 472.5 1248 c 128,-1,0
 423 1166 423 1166 393.5 1038 c 128,-1,1
138.5 407 m 128,-1,16
 96 544 96 544 96 677.5 c 128,-1,17
 96 811 96 811 115.5 906.5 c 128,-1,18
 135 1002 135 1002 172 1086 c 128,-1,19
 209 1170 209 1170 263 1239 c 128,-1,20
 317 1308 317 1308 386 1358 c 0,21,22
 532 1462 532 1462 718 1462 c 0,23,24
 1001 1462 1001 1462 1173 1263 c 128,-1,25
 1345 1064 1345 1064 1345 741 c 0,26,27
 1345 425 1345 425 1194 208 c 1,28,29
 1023 -35 1023 -35 724 -35 c 0,30,31
 430 -35 430 -35 262 172 c 1,32,15
 181 270 181 270 138.5 407 c 128,-1,16
723 1854 m 1,33,-1
 727 1854 l 1,34,-1
 1022 1579 l 1,35,-1
 960 1532 l 1,36,-1
 719 1693 l 1,37,-1
 715 1693 l 1,38,-1
 481 1529 l 1,39,-1
 426 1575 l 1,40,-1
 723 1854 l 1,33,-1
EndSplineSet
EndChar

StartChar: Otilde
Encoding: 213 213 151
Width: 1441
Flags: W
LayerCount: 2
Fore
SplineSet
393.5 1038 m 128,-1,1
 364 910 364 910 364 748 c 128,-1,2
 364 586 364 586 386.5 457 c 128,-1,3
 409 328 409 328 454 231 c 0,4,5
 550 20 550 20 718 20 c 128,-1,6
 886 20 886 20 983 218 c 0,7,8
 1077 409 1077 409 1077 733 c 0,9,10
 1077 1238 1077 1238 870 1366 c 0,11,12
 804 1407 804 1407 728.5 1407 c 128,-1,13
 653 1407 653 1407 587.5 1368.5 c 128,-1,14
 522 1330 522 1330 472.5 1248 c 128,-1,0
 423 1166 423 1166 393.5 1038 c 128,-1,1
138.5 407 m 128,-1,16
 96 544 96 544 96 677.5 c 128,-1,17
 96 811 96 811 115.5 906.5 c 128,-1,18
 135 1002 135 1002 172 1086 c 128,-1,19
 209 1170 209 1170 263 1239 c 128,-1,20
 317 1308 317 1308 386 1358 c 0,21,22
 532 1462 532 1462 718 1462 c 0,23,24
 1001 1462 1001 1462 1173 1263 c 128,-1,25
 1345 1064 1345 1064 1345 741 c 0,26,27
 1345 425 1345 425 1194 208 c 1,28,29
 1023 -35 1023 -35 724 -35 c 0,30,31
 430 -35 430 -35 262 172 c 1,32,15
 181 270 181 270 138.5 407 c 128,-1,16
848 1741 m 0,33,34
 941 1741 941 1741 1003 1833 c 1,35,-1
 1042 1820 l 1,36,37
 1011 1657 1011 1657 902 1612 c 0,38,39
 870 1599 870 1599 830.5 1599 c 128,-1,40
 791 1599 791 1599 760.5 1613 c 128,-1,41
 730 1627 730 1627 704.5 1644.5 c 128,-1,42
 679 1662 679 1662 654 1676 c 128,-1,43
 629 1690 629 1690 593 1690 c 0,44,45
 495 1690 495 1690 431 1610 c 1,46,-1
 395 1626 l 1,47,48
 432 1758 432 1758 533 1808 c 0,49,50
 569 1825 569 1825 613.5 1825 c 128,-1,51
 658 1825 658 1825 686.5 1812 c 128,-1,52
 715 1799 715 1799 738.5 1783 c 128,-1,53
 762 1767 762 1767 786.5 1754 c 128,-1,54
 811 1741 811 1741 848 1741 c 0,33,34
EndSplineSet
EndChar

StartChar: Odieresis
Encoding: 214 214 152
Width: 1441
Flags: W
LayerCount: 2
Fore
SplineSet
393.5 1038 m 128,-1,1
 364 910 364 910 364 748 c 128,-1,2
 364 586 364 586 386.5 457 c 128,-1,3
 409 328 409 328 454 231 c 0,4,5
 550 20 550 20 718 20 c 128,-1,6
 886 20 886 20 983 218 c 0,7,8
 1077 409 1077 409 1077 733 c 0,9,10
 1077 1238 1077 1238 870 1366 c 0,11,12
 804 1407 804 1407 728.5 1407 c 128,-1,13
 653 1407 653 1407 587.5 1368.5 c 128,-1,14
 522 1330 522 1330 472.5 1248 c 128,-1,0
 423 1166 423 1166 393.5 1038 c 128,-1,1
138.5 407 m 128,-1,16
 96 544 96 544 96 677.5 c 128,-1,17
 96 811 96 811 115.5 906.5 c 128,-1,18
 135 1002 135 1002 172 1086 c 128,-1,19
 209 1170 209 1170 263 1239 c 128,-1,20
 317 1308 317 1308 386 1358 c 0,21,22
 532 1462 532 1462 718 1462 c 0,23,24
 1001 1462 1001 1462 1173 1263 c 128,-1,25
 1345 1064 1345 1064 1345 741 c 0,26,27
 1345 425 1345 425 1194 208 c 1,28,29
 1023 -35 1023 -35 724 -35 c 0,30,31
 430 -35 430 -35 262 172 c 1,32,15
 181 270 181 270 138.5 407 c 128,-1,16
411 1707 m 0,33,34
 411 1797 411 1797 482 1830 c 0,35,36
 505 1841 505 1841 533 1841 c 0,37,38
 619 1841 619 1841 648 1760 c 0,39,40
 656 1735 656 1735 656 1707 c 0,41,42
 656 1650 656 1650 632 1621 c 1,43,44
 589 1572 589 1572 533 1572 c 0,45,46
 448 1572 448 1572 420 1654 c 0,47,48
 411 1679 411 1679 411 1707 c 0,33,34
771 1707 m 0,49,50
 771 1797 771 1797 842 1830 c 0,51,52
 865 1841 865 1841 893 1841 c 0,53,54
 979 1841 979 1841 1008 1760 c 0,55,56
 1016 1735 1016 1735 1016 1707 c 0,57,58
 1016 1650 1016 1650 992 1621 c 1,59,60
 949 1572 949 1572 893 1572 c 0,61,62
 808 1572 808 1572 780 1654 c 0,63,64
 771 1679 771 1679 771 1707 c 0,49,50
EndSplineSet
EndChar

StartChar: multiply
Encoding: 215 215 153
Width: 1146
Flags: W
LayerCount: 2
Fore
SplineSet
117 1002 m 1,0,-1
 190 1081 l 1,1,-1
 574 721 l 1,2,-1
 964 1080 l 1,3,-1
 1029 1002 l 1,4,-1
 650 650 l 1,5,-1
 1029 295 l 1,6,-1
 954 212 l 1,7,-1
 569 575 l 1,8,-1
 191 224 l 1,9,-1
 117 302 l 1,10,-1
 493 647 l 1,11,-1
 117 1002 l 1,0,-1
EndSplineSet
EndChar

StartChar: Oslash
Encoding: 216 216 154
Width: 1442
Flags: W
LayerCount: 2
Fore
SplineSet
266 166 m 1,0,1
 97 368 97 368 97 709 c 0,2,3
 97 1026 97 1026 262 1239 c 0,4,5
 372 1380 372 1380 538 1434 c 0,6,7
 621 1462 621 1462 717 1462 c 0,8,9
 973 1462 973 1462 1141 1294 c 1,10,-1
 1258 1448 l 1,11,-1
 1381 1448 l 1,12,-1
 1206 1217 l 1,13,14
 1342 1025 1342 1025 1342 741 c 0,15,16
 1342 428 1342 428 1192 208 c 1,17,18
 1024 -35 1024 -35 723 -35 c 0,19,20
 492 -35 492 -35 336 96 c 1,21,-1
 220 -57 l 1,22,-1
 97 -57 l 1,23,-1
 266 166 l 1,0,1
1032 1164 m 1,24,25
 943 1407 943 1407 723 1407 c 0,26,27
 462 1407 462 1407 378 1050 c 0,28,29
 348 921 348 921 348 768 c 0,30,31
 348 495 348 495 399 328 c 1,32,-1
 1032 1164 l 1,24,25
440 221 m 1,33,34
 538 20 538 20 717 20 c 0,35,36
 895 20 895 20 993 206 c 128,-1,37
 1091 392 1091 392 1091 733 c 0,38,39
 1091 914 1091 914 1065 1044 c 1,40,-1
 440 221 l 1,33,34
EndSplineSet
EndChar

StartChar: Ugrave
Encoding: 217 217 155
Width: 1431
Flags: W
LayerCount: 2
Fore
SplineSet
202 1372 m 1,0,-1
 49 1382 l 1,1,-1
 49 1427 l 1,2,-1
 613 1427 l 1,3,-1
 613 1382 l 1,4,-1
 458 1372 l 1,5,-1
 458 438 l 2,6,7
 458 195 458 195 570 104 c 1,8,9
 654 34 654 34 783 34 c 128,-1,10
 912 34 912 34 981.5 72 c 128,-1,11
 1051 110 1051 110 1092 172 c 1,12,13
 1165 286 1165 286 1165 478 c 2,14,-1
 1165 1372 l 1,15,-1
 1012 1382 l 1,16,-1
 1012 1427 l 1,17,-1
 1382 1427 l 1,18,-1
 1382 1382 l 1,19,-1
 1229 1372 l 1,20,-1
 1229 456 l 2,21,22
 1229 74 1229 74 936 -14 c 0,23,24
 867 -35 867 -35 754.5 -35 c 128,-1,25
 642 -35 642 -35 548 -14 c 128,-1,26
 454 7 454 7 390.5 43.5 c 128,-1,27
 327 80 327 80 289.5 129 c 128,-1,28
 252 178 252 178 232 236 c 0,29,30
 202 325 202 325 202 479 c 2,31,-1
 202 1372 l 1,0,-1
595 1622 m 1,32,33
 504 1643 504 1643 504 1719 c 0,34,35
 504 1780 504 1780 564 1799 c 0,36,37
 580 1804 580 1804 597 1804 c 0,38,39
 627 1804 627 1804 669 1771 c 2,40,-1
 911 1580 l 1,41,-1
 896 1542 l 1,42,-1
 595 1622 l 1,32,33
EndSplineSet
EndChar

StartChar: Uacute
Encoding: 218 218 156
Width: 1431
Flags: W
LayerCount: 2
Fore
SplineSet
202 1372 m 1,0,-1
 49 1382 l 1,1,-1
 49 1427 l 1,2,-1
 613 1427 l 1,3,-1
 613 1382 l 1,4,-1
 458 1372 l 1,5,-1
 458 438 l 2,6,7
 458 195 458 195 570 104 c 1,8,9
 654 34 654 34 783 34 c 128,-1,10
 912 34 912 34 981.5 72 c 128,-1,11
 1051 110 1051 110 1092 172 c 1,12,13
 1165 286 1165 286 1165 478 c 2,14,-1
 1165 1372 l 1,15,-1
 1012 1382 l 1,16,-1
 1012 1427 l 1,17,-1
 1382 1427 l 1,18,-1
 1382 1382 l 1,19,-1
 1229 1372 l 1,20,-1
 1229 456 l 2,21,22
 1229 74 1229 74 936 -14 c 0,23,24
 867 -35 867 -35 754.5 -35 c 128,-1,25
 642 -35 642 -35 548 -14 c 128,-1,26
 454 7 454 7 390.5 43.5 c 128,-1,27
 327 80 327 80 289.5 129 c 128,-1,28
 252 178 252 178 232 236 c 0,29,30
 202 325 202 325 202 479 c 2,31,-1
 202 1372 l 1,0,-1
690 1535 m 1,32,-1
 675 1573 l 1,33,-1
 917 1764 l 2,34,35
 962 1799 962 1799 986 1799 c 128,-1,36
 1010 1799 1010 1799 1025 1794 c 128,-1,37
 1040 1789 1040 1789 1052 1778 c 0,38,39
 1081 1753 1081 1753 1081 1723.5 c 128,-1,40
 1081 1694 1081 1694 1073.5 1678 c 128,-1,41
 1066 1662 1066 1662 1054 1649 c 0,42,43
 1030 1624 1030 1624 991 1615 c 1,44,-1
 690 1535 l 1,32,-1
EndSplineSet
EndChar

StartChar: Ucircumflex
Encoding: 219 219 157
Width: 1431
Flags: W
LayerCount: 2
Fore
SplineSet
202 1372 m 1,0,-1
 49 1382 l 1,1,-1
 49 1427 l 1,2,-1
 613 1427 l 1,3,-1
 613 1382 l 1,4,-1
 458 1372 l 1,5,-1
 458 438 l 2,6,7
 458 195 458 195 570 104 c 1,8,9
 654 34 654 34 783 34 c 128,-1,10
 912 34 912 34 981.5 72 c 128,-1,11
 1051 110 1051 110 1092 172 c 1,12,13
 1165 286 1165 286 1165 478 c 2,14,-1
 1165 1372 l 1,15,-1
 1012 1382 l 1,16,-1
 1012 1427 l 1,17,-1
 1382 1427 l 1,18,-1
 1382 1382 l 1,19,-1
 1229 1372 l 1,20,-1
 1229 456 l 2,21,22
 1229 74 1229 74 936 -14 c 0,23,24
 867 -35 867 -35 754.5 -35 c 128,-1,25
 642 -35 642 -35 548 -14 c 128,-1,26
 454 7 454 7 390.5 43.5 c 128,-1,27
 327 80 327 80 289.5 129 c 128,-1,28
 252 178 252 178 232 236 c 0,29,30
 202 325 202 325 202 479 c 2,31,-1
 202 1372 l 1,0,-1
805 1854 m 1,32,-1
 809 1854 l 1,33,-1
 1104 1579 l 1,34,-1
 1042 1532 l 1,35,-1
 801 1693 l 1,36,-1
 797 1693 l 1,37,-1
 563 1529 l 1,38,-1
 508 1575 l 1,39,-1
 805 1854 l 1,32,-1
EndSplineSet
EndChar

StartChar: Udieresis
Encoding: 220 220 158
Width: 1431
Flags: W
LayerCount: 2
Fore
SplineSet
202 1372 m 1,0,-1
 49 1382 l 1,1,-1
 49 1427 l 1,2,-1
 613 1427 l 1,3,-1
 613 1382 l 1,4,-1
 458 1372 l 1,5,-1
 458 438 l 2,6,7
 458 195 458 195 570 104 c 1,8,9
 654 34 654 34 783 34 c 128,-1,10
 912 34 912 34 981.5 72 c 128,-1,11
 1051 110 1051 110 1092 172 c 1,12,13
 1165 286 1165 286 1165 478 c 2,14,-1
 1165 1372 l 1,15,-1
 1012 1382 l 1,16,-1
 1012 1427 l 1,17,-1
 1382 1427 l 1,18,-1
 1382 1382 l 1,19,-1
 1229 1372 l 1,20,-1
 1229 456 l 2,21,22
 1229 74 1229 74 936 -14 c 0,23,24
 867 -35 867 -35 754.5 -35 c 128,-1,25
 642 -35 642 -35 548 -14 c 128,-1,26
 454 7 454 7 390.5 43.5 c 128,-1,27
 327 80 327 80 289.5 129 c 128,-1,28
 252 178 252 178 232 236 c 0,29,30
 202 325 202 325 202 479 c 2,31,-1
 202 1372 l 1,0,-1
853 1707 m 0,32,33
 853 1797 853 1797 924 1830 c 0,34,35
 947 1841 947 1841 975 1841 c 0,36,37
 1061 1841 1061 1841 1090 1760 c 0,38,39
 1098 1735 1098 1735 1098 1707 c 0,40,41
 1098 1650 1098 1650 1074 1621 c 1,42,43
 1031 1572 1031 1572 975 1572 c 0,44,45
 890 1572 890 1572 862 1654 c 0,46,47
 853 1679 853 1679 853 1707 c 0,32,33
493 1707 m 0,48,49
 493 1797 493 1797 564 1830 c 0,50,51
 587 1841 587 1841 615 1841 c 0,52,53
 701 1841 701 1841 730 1760 c 0,54,55
 738 1735 738 1735 738 1707 c 0,56,57
 738 1650 738 1650 714 1621 c 1,58,59
 671 1572 671 1572 615 1572 c 0,60,61
 530 1572 530 1572 502 1654 c 0,62,63
 493 1679 493 1679 493 1707 c 0,48,49
EndSplineSet
EndChar

StartChar: Yacute
Encoding: 221 221 159
Width: 1219
Flags: W
LayerCount: 2
Fore
SplineSet
-37 1382 m 1,0,-1
 -37 1427 l 1,1,-1
 550 1427 l 1,2,-1
 550 1382 l 1,3,-1
 395 1372 l 1,4,-1
 732 765 l 1,5,-1
 737 765 l 1,6,-1
 1019 1372 l 1,7,-1
 878 1382 l 1,8,-1
 878 1427 l 1,9,-1
 1211 1427 l 1,10,-1
 1211 1382 l 1,11,-1
 1087 1372 l 1,12,-1
 775 703 l 1,13,-1
 775 55 l 1,14,-1
 929 45 l 1,15,-1
 929 0 l 1,16,-1
 366 0 l 1,17,-1
 366 45 l 1,18,-1
 519 55 l 1,19,-1
 519 644 l 1,20,-1
 98 1372 l 1,21,-1
 -37 1382 l 1,0,-1
599 1535 m 1,22,-1
 584 1573 l 1,23,-1
 826 1764 l 2,24,25
 871 1799 871 1799 895 1799 c 128,-1,26
 919 1799 919 1799 934 1794 c 128,-1,27
 949 1789 949 1789 962 1778 c 0,28,29
 990 1753 990 1753 990 1723.5 c 128,-1,30
 990 1694 990 1694 982.5 1678 c 128,-1,31
 975 1662 975 1662 962 1649 c 0,32,33
 939 1624 939 1624 900 1615 c 1,34,-1
 599 1535 l 1,22,-1
EndSplineSet
EndChar

StartChar: Thorn
Encoding: 222 222 160
Width: 1209
Flags: W
LayerCount: 2
Fore
SplineSet
774 326.5 m 128,-1,1
 665 302 665 302 591 302 c 128,-1,2
 517 302 517 302 483 304 c 1,3,-1
 483 55 l 1,4,-1
 637 45 l 1,5,-1
 637 0 l 1,6,-1
 73 0 l 1,7,-1
 73 45 l 1,8,-1
 227 55 l 1,9,-1
 227 1372 l 1,10,-1
 73 1382 l 1,11,-1
 73 1427 l 1,12,-1
 637 1427 l 1,13,-1
 637 1382 l 1,14,-1
 483 1372 l 1,15,-1
 483 1160 l 1,16,-1
 615 1160 l 2,17,18
 845 1160 845 1160 988 1065 c 0,19,20
 1147 959 1147 959 1147 755 c 0,21,22
 1147 525 1147 525 966 406 c 0,23,0
 883 351 883 351 774 326.5 c 128,-1,1
702 1083 m 0,24,25
 649 1099 649 1099 591.5 1099 c 128,-1,26
 534 1099 534 1099 483 1091 c 1,27,-1
 483 360 l 1,28,29
 517 357 517 357 553 357 c 0,30,31
 881 357 881 357 881 757 c 0,32,33
 881 1030 881 1030 702 1083 c 0,24,25
EndSplineSet
EndChar

StartChar: germandbls
Encoding: 223 223 161
Width: 1246
Flags: W
LayerCount: 2
Fore
SplineSet
670 798 m 1,0,1
 670 798 670 798 709 799 c 1,2,3
 1071 799 1071 799 1151 520 c 0,4,5
 1170 454 1170 454 1170 390 c 128,-1,6
 1170 326 1170 326 1162.5 280.5 c 128,-1,7
 1155 235 1155 235 1136.5 191 c 128,-1,8
 1118 147 1118 147 1088.5 107 c 128,-1,9
 1059 67 1059 67 1014 36 c 0,10,11
 917 -30 917 -30 770 -30 c 0,12,13
 574 -30 574 -30 506 94 c 0,14,15
 482 138 482 138 482 184.5 c 128,-1,16
 482 231 482 231 491 257.5 c 128,-1,17
 500 284 500 284 516 304 c 0,18,19
 552 349 552 349 610.5 349 c 128,-1,20
 669 349 669 349 700 315 c 0,21,22
 731 280 731 280 731 226 c 0,23,24
 731 177 731 177 700 146 c 0,25,26
 667 113 667 113 614 113 c 0,27,28
 597 113 597 113 582 117 c 1,29,-1
 582 115 l 1,30,31
 592 75 592 75 637 46 c 0,32,33
 681 17 681 17 734 17 c 128,-1,34
 787 17 787 17 820 38 c 128,-1,35
 853 59 853 59 875 98 c 0,36,37
 919 174 919 174 919 293 c 128,-1,38
 919 412 919 412 907.5 488 c 128,-1,39
 896 564 896 564 875 615.5 c 128,-1,40
 854 667 854 667 825 697 c 128,-1,41
 796 727 796 727 761 742 c 0,42,43
 706 767 706 767 605 767 c 2,44,-1
 559 767 l 1,45,-1
 559 816 l 1,46,-1
 604 816 l 2,47,48
 677 816 677 816 746 882 c 1,49,50
 835 965 835 965 835 1106 c 0,51,52
 835 1278 835 1278 766 1350 c 0,53,54
 716 1403 716 1403 637.5 1403 c 128,-1,55
 559 1403 559 1403 516.5 1378 c 128,-1,56
 474 1353 474 1353 450 1316 c 0,57,58
 409 1251 409 1251 409 1147 c 2,59,-1
 408 0 l 1,60,-1
 61 0 l 1,61,-1
 61 41 l 1,62,-1
 163 51 l 1,63,-1
 163 991 l 2,64,65
 163 1191 163 1191 258 1306 c 0,66,67
 330 1392 330 1392 456 1428 c 1,68,69
 530 1448 530 1448 599.5 1448 c 128,-1,70
 669 1448 669 1448 718 1443 c 128,-1,71
 767 1438 767 1438 816 1424.5 c 128,-1,72
 865 1411 865 1411 911 1387.5 c 128,-1,73
 957 1364 957 1364 992 1326 c 0,74,75
 1069 1244 1069 1244 1069 1109 c 0,76,77
 1069 979 1069 979 942 896 c 0,78,79
 843 831 843 831 670 800 c 1,80,-1
 670 798 l 1,0,1
EndSplineSet
EndChar

StartChar: agrave
Encoding: 224 224 162
Width: 1005
Flags: W
LayerCount: 2
Fore
SplineSet
611 490 m 1,0,1
 566 495 566 495 529 495 c 128,-1,2
 492 495 492 495 453.5 480.5 c 128,-1,3
 415 466 415 466 389.5 443.5 c 128,-1,4
 364 421 364 421 349 392 c 128,-1,5
 334 363 334 363 326 334 c 0,6,7
 314 292 314 292 314 246 c 128,-1,8
 314 200 314 200 321 167.5 c 128,-1,9
 328 135 328 135 343 111 c 0,10,11
 376 59 376 59 432 59 c 0,12,13
 499 59 499 59 554 142 c 1,14,15
 611 230 611 230 611 352 c 2,16,-1
 611 490 l 1,0,1
434 987 m 0,17,18
 286 987 286 987 221 872 c 1,19,-1
 221 868 l 1,20,21
 237 871 237 871 252 871 c 0,22,23
 303 871 303 871 333.5 840 c 128,-1,24
 364 809 364 809 364 765 c 128,-1,25
 364 721 364 721 354.5 698.5 c 128,-1,26
 345 676 345 676 328 660 c 1,27,28
 293 624 293 624 250 624 c 128,-1,29
 207 624 207 624 183.5 635.5 c 128,-1,30
 160 647 160 647 144 666 c 0,31,32
 111 704 111 704 111 761.5 c 128,-1,33
 111 819 111 819 141.5 870 c 128,-1,34
 172 921 172 921 222 958 c 0,35,36
 328 1034 328 1034 462 1034 c 128,-1,37
 596 1034 596 1034 672.5 1003 c 128,-1,38
 749 972 749 972 790 914.5 c 128,-1,39
 831 857 831 857 843.5 775 c 128,-1,40
 856 693 856 693 856 590 c 2,41,-1
 856 51 l 1,42,-1
 959 41 l 1,43,-1
 959 0 l 1,44,-1
 641 0 l 1,45,-1
 613 158 l 1,46,-1
 611 158 l 1,47,48
 563 64 563 64 494.5 17 c 128,-1,49
 426 -30 426 -30 342.5 -30 c 128,-1,50
 259 -30 259 -30 211.5 -8.5 c 128,-1,51
 164 13 164 13 133 48 c 0,52,53
 72 115 72 115 72 217 c 0,54,55
 72 349 72 349 176 438 c 0,56,57
 296 540 296 540 518 540 c 0,58,59
 561 540 561 540 611 536 c 1,60,-1
 611 674 l 2,61,62
 611 840 611 840 588.5 891.5 c 128,-1,63
 566 943 566 943 530.5 965 c 128,-1,64
 495 987 495 987 434 987 c 0,17,18
299 1409 m 2,65,66
 269 1441 269 1441 269 1484.5 c 128,-1,67
 269 1528 269 1528 294.5 1555 c 128,-1,68
 320 1582 320 1582 355 1582 c 128,-1,69
 390 1582 390 1582 414.5 1562 c 128,-1,70
 439 1542 439 1542 448 1513 c 1,71,-1
 559 1195 l 1,72,-1
 522 1169 l 1,73,-1
 299 1409 l 2,65,66
EndSplineSet
EndChar

StartChar: aacute
Encoding: 225 225 163
Width: 1005
Flags: W
LayerCount: 2
Fore
SplineSet
611 490 m 1,0,1
 566 495 566 495 529 495 c 128,-1,2
 492 495 492 495 453.5 480.5 c 128,-1,3
 415 466 415 466 389.5 443.5 c 128,-1,4
 364 421 364 421 349 392 c 128,-1,5
 334 363 334 363 326 334 c 0,6,7
 314 292 314 292 314 246 c 128,-1,8
 314 200 314 200 321 167.5 c 128,-1,9
 328 135 328 135 343 111 c 0,10,11
 376 59 376 59 432 59 c 0,12,13
 499 59 499 59 554 142 c 1,14,15
 611 230 611 230 611 352 c 2,16,-1
 611 490 l 1,0,1
434 987 m 0,17,18
 286 987 286 987 221 872 c 1,19,-1
 221 868 l 1,20,21
 237 871 237 871 252 871 c 0,22,23
 303 871 303 871 333.5 840 c 128,-1,24
 364 809 364 809 364 765 c 128,-1,25
 364 721 364 721 354.5 698.5 c 128,-1,26
 345 676 345 676 328 660 c 1,27,28
 293 624 293 624 250 624 c 128,-1,29
 207 624 207 624 183.5 635.5 c 128,-1,30
 160 647 160 647 144 666 c 0,31,32
 111 704 111 704 111 761.5 c 128,-1,33
 111 819 111 819 141.5 870 c 128,-1,34
 172 921 172 921 222 958 c 0,35,36
 328 1034 328 1034 462 1034 c 128,-1,37
 596 1034 596 1034 672.5 1003 c 128,-1,38
 749 972 749 972 790 914.5 c 128,-1,39
 831 857 831 857 843.5 775 c 128,-1,40
 856 693 856 693 856 590 c 2,41,-1
 856 51 l 1,42,-1
 959 41 l 1,43,-1
 959 0 l 1,44,-1
 641 0 l 1,45,-1
 613 158 l 1,46,-1
 611 158 l 1,47,48
 563 64 563 64 494.5 17 c 128,-1,49
 426 -30 426 -30 342.5 -30 c 128,-1,50
 259 -30 259 -30 211.5 -8.5 c 128,-1,51
 164 13 164 13 133 48 c 0,52,53
 72 115 72 115 72 217 c 0,54,55
 72 349 72 349 176 438 c 0,56,57
 296 540 296 540 518 540 c 0,58,59
 561 540 561 540 611 536 c 1,60,-1
 611 674 l 2,61,62
 611 840 611 840 588.5 891.5 c 128,-1,63
 566 943 566 943 530.5 965 c 128,-1,64
 495 987 495 987 434 987 c 0,17,18
453 1156 m 1,65,-1
 416 1182 l 1,66,-1
 527 1500 l 1,67,68
 536 1529 536 1529 560.5 1549 c 128,-1,69
 585 1569 585 1569 610.5 1569 c 128,-1,70
 636 1569 636 1569 652.5 1562 c 128,-1,71
 669 1555 669 1555 681 1542 c 0,72,73
 707 1514 707 1514 707 1483 c 0,74,75
 707 1429 707 1429 676 1396 c 2,76,-1
 453 1156 l 1,65,-1
EndSplineSet
EndChar

StartChar: acircumflex
Encoding: 226 226 164
Width: 1005
Flags: W
LayerCount: 2
Fore
SplineSet
611 490 m 1,0,1
 566 495 566 495 529 495 c 128,-1,2
 492 495 492 495 453.5 480.5 c 128,-1,3
 415 466 415 466 389.5 443.5 c 128,-1,4
 364 421 364 421 349 392 c 128,-1,5
 334 363 334 363 326 334 c 0,6,7
 314 292 314 292 314 246 c 128,-1,8
 314 200 314 200 321 167.5 c 128,-1,9
 328 135 328 135 343 111 c 0,10,11
 376 59 376 59 432 59 c 0,12,13
 499 59 499 59 554 142 c 1,14,15
 611 230 611 230 611 352 c 2,16,-1
 611 490 l 1,0,1
434 987 m 0,17,18
 286 987 286 987 221 872 c 1,19,-1
 221 868 l 1,20,21
 237 871 237 871 252 871 c 0,22,23
 303 871 303 871 333.5 840 c 128,-1,24
 364 809 364 809 364 765 c 128,-1,25
 364 721 364 721 354.5 698.5 c 128,-1,26
 345 676 345 676 328 660 c 1,27,28
 293 624 293 624 250 624 c 128,-1,29
 207 624 207 624 183.5 635.5 c 128,-1,30
 160 647 160 647 144 666 c 0,31,32
 111 704 111 704 111 761.5 c 128,-1,33
 111 819 111 819 141.5 870 c 128,-1,34
 172 921 172 921 222 958 c 0,35,36
 328 1034 328 1034 462 1034 c 128,-1,37
 596 1034 596 1034 672.5 1003 c 128,-1,38
 749 972 749 972 790 914.5 c 128,-1,39
 831 857 831 857 843.5 775 c 128,-1,40
 856 693 856 693 856 590 c 2,41,-1
 856 51 l 1,42,-1
 959 41 l 1,43,-1
 959 0 l 1,44,-1
 641 0 l 1,45,-1
 613 158 l 1,46,-1
 611 158 l 1,47,48
 563 64 563 64 494.5 17 c 128,-1,49
 426 -30 426 -30 342.5 -30 c 128,-1,50
 259 -30 259 -30 211.5 -8.5 c 128,-1,51
 164 13 164 13 133 48 c 0,52,53
 72 115 72 115 72 217 c 0,54,55
 72 349 72 349 176 438 c 0,56,57
 296 540 296 540 518 540 c 0,58,59
 561 540 561 540 611 536 c 1,60,-1
 611 674 l 2,61,62
 611 840 611 840 588.5 891.5 c 128,-1,63
 566 943 566 943 530.5 965 c 128,-1,64
 495 987 495 987 434 987 c 0,17,18
497 1585 m 1,65,-1
 731 1213 l 1,66,-1
 650 1167 l 1,67,-1
 484 1379 l 1,68,-1
 480 1379 l 1,69,-1
 302 1168 l 1,70,-1
 226 1209 l 1,71,-1
 492 1585 l 1,72,-1
 497 1585 l 1,65,-1
EndSplineSet
EndChar

StartChar: atilde
Encoding: 227 227 165
Width: 1005
Flags: W
LayerCount: 2
Fore
SplineSet
611 490 m 1,0,1
 566 495 566 495 529 495 c 128,-1,2
 492 495 492 495 453.5 480.5 c 128,-1,3
 415 466 415 466 389.5 443.5 c 128,-1,4
 364 421 364 421 349 392 c 128,-1,5
 334 363 334 363 326 334 c 0,6,7
 314 292 314 292 314 246 c 128,-1,8
 314 200 314 200 321 167.5 c 128,-1,9
 328 135 328 135 343 111 c 0,10,11
 376 59 376 59 432 59 c 0,12,13
 499 59 499 59 554 142 c 1,14,15
 611 230 611 230 611 352 c 2,16,-1
 611 490 l 1,0,1
434 987 m 0,17,18
 286 987 286 987 221 872 c 1,19,-1
 221 868 l 1,20,21
 237 871 237 871 252 871 c 0,22,23
 303 871 303 871 333.5 840 c 128,-1,24
 364 809 364 809 364 765 c 128,-1,25
 364 721 364 721 354.5 698.5 c 128,-1,26
 345 676 345 676 328 660 c 1,27,28
 293 624 293 624 250 624 c 128,-1,29
 207 624 207 624 183.5 635.5 c 128,-1,30
 160 647 160 647 144 666 c 0,31,32
 111 704 111 704 111 761.5 c 128,-1,33
 111 819 111 819 141.5 870 c 128,-1,34
 172 921 172 921 222 958 c 0,35,36
 328 1034 328 1034 462 1034 c 128,-1,37
 596 1034 596 1034 672.5 1003 c 128,-1,38
 749 972 749 972 790 914.5 c 128,-1,39
 831 857 831 857 843.5 775 c 128,-1,40
 856 693 856 693 856 590 c 2,41,-1
 856 51 l 1,42,-1
 959 41 l 1,43,-1
 959 0 l 1,44,-1
 641 0 l 1,45,-1
 613 158 l 1,46,-1
 611 158 l 1,47,48
 563 64 563 64 494.5 17 c 128,-1,49
 426 -30 426 -30 342.5 -30 c 128,-1,50
 259 -30 259 -30 211.5 -8.5 c 128,-1,51
 164 13 164 13 133 48 c 0,52,53
 72 115 72 115 72 217 c 0,54,55
 72 349 72 349 176 438 c 0,56,57
 296 540 296 540 518 540 c 0,58,59
 561 540 561 540 611 536 c 1,60,-1
 611 674 l 2,61,62
 611 840 611 840 588.5 891.5 c 128,-1,63
 566 943 566 943 530.5 965 c 128,-1,64
 495 987 495 987 434 987 c 0,17,18
613 1406 m 0,65,66
 706 1406 706 1406 768 1498 c 1,67,-1
 807 1485 l 1,68,69
 776 1322 776 1322 668 1278 c 0,70,71
 635 1264 635 1264 595.5 1264 c 128,-1,72
 556 1264 556 1264 525.5 1278 c 128,-1,73
 495 1292 495 1292 469.5 1309.5 c 128,-1,74
 444 1327 444 1327 419 1341 c 128,-1,75
 394 1355 394 1355 358 1355 c 0,76,77
 260 1355 260 1355 196 1275 c 1,78,-1
 160 1291 l 1,79,80
 197 1423 197 1423 298 1472 c 0,81,82
 334 1490 334 1490 378.5 1490 c 128,-1,83
 423 1490 423 1490 451.5 1477 c 128,-1,84
 480 1464 480 1464 503.5 1448 c 128,-1,85
 527 1432 527 1432 551.5 1419 c 128,-1,86
 576 1406 576 1406 613 1406 c 0,65,66
EndSplineSet
EndChar

StartChar: adieresis
Encoding: 228 228 166
Width: 1005
Flags: W
LayerCount: 2
Fore
SplineSet
611 490 m 1,0,1
 566 495 566 495 529 495 c 128,-1,2
 492 495 492 495 453.5 480.5 c 128,-1,3
 415 466 415 466 389.5 443.5 c 128,-1,4
 364 421 364 421 349 392 c 128,-1,5
 334 363 334 363 326 334 c 0,6,7
 314 292 314 292 314 246 c 128,-1,8
 314 200 314 200 321 167.5 c 128,-1,9
 328 135 328 135 343 111 c 0,10,11
 376 59 376 59 432 59 c 0,12,13
 499 59 499 59 554 142 c 1,14,15
 611 230 611 230 611 352 c 2,16,-1
 611 490 l 1,0,1
434 987 m 0,17,18
 286 987 286 987 221 872 c 1,19,-1
 221 868 l 1,20,21
 237 871 237 871 252 871 c 0,22,23
 303 871 303 871 333.5 840 c 128,-1,24
 364 809 364 809 364 765 c 128,-1,25
 364 721 364 721 354.5 698.5 c 128,-1,26
 345 676 345 676 328 660 c 1,27,28
 293 624 293 624 250 624 c 128,-1,29
 207 624 207 624 183.5 635.5 c 128,-1,30
 160 647 160 647 144 666 c 0,31,32
 111 704 111 704 111 761.5 c 128,-1,33
 111 819 111 819 141.5 870 c 128,-1,34
 172 921 172 921 222 958 c 0,35,36
 328 1034 328 1034 462 1034 c 128,-1,37
 596 1034 596 1034 672.5 1003 c 128,-1,38
 749 972 749 972 790 914.5 c 128,-1,39
 831 857 831 857 843.5 775 c 128,-1,40
 856 693 856 693 856 590 c 2,41,-1
 856 51 l 1,42,-1
 959 41 l 1,43,-1
 959 0 l 1,44,-1
 641 0 l 1,45,-1
 613 158 l 1,46,-1
 611 158 l 1,47,48
 563 64 563 64 494.5 17 c 128,-1,49
 426 -30 426 -30 342.5 -30 c 128,-1,50
 259 -30 259 -30 211.5 -8.5 c 128,-1,51
 164 13 164 13 133 48 c 0,52,53
 72 115 72 115 72 217 c 0,54,55
 72 349 72 349 176 438 c 0,56,57
 296 540 296 540 518 540 c 0,58,59
 561 540 561 540 611 536 c 1,60,-1
 611 674 l 2,61,62
 611 840 611 840 588.5 891.5 c 128,-1,63
 566 943 566 943 530.5 965 c 128,-1,64
 495 987 495 987 434 987 c 0,17,18
567 1283.5 m 128,-1,66
 536 1321 536 1321 536 1378.5 c 128,-1,67
 536 1436 536 1436 567 1473.5 c 128,-1,68
 598 1511 598 1511 652 1511 c 256,69,70
 706 1511 706 1511 737.5 1473.5 c 128,-1,71
 769 1436 769 1436 769 1378.5 c 128,-1,72
 769 1321 769 1321 737.5 1283.5 c 128,-1,73
 706 1246 706 1246 652 1246 c 256,74,65
 598 1246 598 1246 567 1283.5 c 128,-1,66
224 1283.5 m 128,-1,76
 193 1321 193 1321 193 1378.5 c 128,-1,77
 193 1436 193 1436 224 1473.5 c 128,-1,78
 255 1511 255 1511 309 1511 c 256,79,80
 363 1511 363 1511 394.5 1473.5 c 128,-1,81
 426 1436 426 1436 426 1378.5 c 128,-1,82
 426 1321 426 1321 394.5 1283.5 c 128,-1,83
 363 1246 363 1246 309 1246 c 256,84,75
 255 1246 255 1246 224 1283.5 c 128,-1,76
EndSplineSet
EndChar

StartChar: aring
Encoding: 229 229 167
Width: 1005
Flags: W
LayerCount: 2
Fore
SplineSet
611 490 m 1,0,1
 566 495 566 495 529 495 c 128,-1,2
 492 495 492 495 453.5 480.5 c 128,-1,3
 415 466 415 466 389.5 443.5 c 128,-1,4
 364 421 364 421 349 392 c 128,-1,5
 334 363 334 363 326 334 c 0,6,7
 314 292 314 292 314 246 c 128,-1,8
 314 200 314 200 321 167.5 c 128,-1,9
 328 135 328 135 343 111 c 0,10,11
 376 59 376 59 432 59 c 0,12,13
 499 59 499 59 554 142 c 1,14,15
 611 230 611 230 611 352 c 2,16,-1
 611 490 l 1,0,1
434 987 m 0,17,18
 286 987 286 987 221 872 c 1,19,-1
 221 868 l 1,20,21
 237 871 237 871 252 871 c 0,22,23
 303 871 303 871 333.5 840 c 128,-1,24
 364 809 364 809 364 765 c 128,-1,25
 364 721 364 721 354.5 698.5 c 128,-1,26
 345 676 345 676 328 660 c 1,27,28
 293 624 293 624 250 624 c 128,-1,29
 207 624 207 624 183.5 635.5 c 128,-1,30
 160 647 160 647 144 666 c 0,31,32
 111 704 111 704 111 761.5 c 128,-1,33
 111 819 111 819 141.5 870 c 128,-1,34
 172 921 172 921 222 958 c 0,35,36
 328 1034 328 1034 462 1034 c 128,-1,37
 596 1034 596 1034 672.5 1003 c 128,-1,38
 749 972 749 972 790 914.5 c 128,-1,39
 831 857 831 857 843.5 775 c 128,-1,40
 856 693 856 693 856 590 c 2,41,-1
 856 51 l 1,42,-1
 959 41 l 1,43,-1
 959 0 l 1,44,-1
 641 0 l 1,45,-1
 613 158 l 1,46,-1
 611 158 l 1,47,48
 563 64 563 64 494.5 17 c 128,-1,49
 426 -30 426 -30 342.5 -30 c 128,-1,50
 259 -30 259 -30 211.5 -8.5 c 128,-1,51
 164 13 164 13 133 48 c 0,52,53
 72 115 72 115 72 217 c 0,54,55
 72 349 72 349 176 438 c 0,56,57
 296 540 296 540 518 540 c 0,58,59
 561 540 561 540 611 536 c 1,60,-1
 611 674 l 2,61,62
 611 840 611 840 588.5 891.5 c 128,-1,63
 566 943 566 943 530.5 965 c 128,-1,64
 495 987 495 987 434 987 c 0,17,18
249 1379 m 0,65,66
 249 1467 249 1467 316 1527 c 0,67,68
 383 1586 383 1586 482 1586 c 0,69,70
 586 1586 586 1586 652.5 1527 c 128,-1,71
 719 1468 719 1468 719 1379 c 0,72,73
 719 1288 719 1288 652 1232 c 128,-1,74
 585 1176 585 1176 482 1176 c 128,-1,75
 379 1176 379 1176 313 1232 c 0,76,77
 249 1287 249 1287 249 1379 c 0,65,66
482 1535 m 0,78,79
 398 1535 398 1535 398 1381 c 128,-1,80
 398 1227 398 1227 482 1227 c 0,81,82
 569 1227 569 1227 569 1379 c 0,83,84
 569 1487 569 1487 523 1522 c 0,85,86
 506 1535 506 1535 482 1535 c 0,78,79
EndSplineSet
EndChar

StartChar: ae
Encoding: 230 230 168
Width: 1486
Flags: W
LayerCount: 2
Fore
SplineSet
1056 -30 m 0,0,1
 771 -30 771 -30 676 225 c 1,2,-1
 674 225 l 1,3,4
 579 12 579 12 420 -20 c 0,5,6
 374 -30 374 -30 317.5 -30 c 128,-1,7
 261 -30 261 -30 213.5 -8.5 c 128,-1,8
 166 13 166 13 135 48 c 0,9,10
 74 115 74 115 74 217 c 0,11,12
 74 347 74 347 188 438 c 0,13,14
 315 540 315 540 540 540 c 0,15,16
 583 540 583 540 633 536 c 1,17,-1
 633 674 l 2,18,19
 633 833 633 833 603.5 888 c 128,-1,20
 574 943 574 943 535.5 965 c 128,-1,21
 497 987 497 987 442.5 987 c 128,-1,22
 388 987 388 987 350.5 975 c 128,-1,23
 313 963 313 963 286 946 c 0,24,25
 237 915 237 915 213 872 c 1,26,-1
 213 868 l 1,27,28
 229 871 229 871 244 871 c 0,29,30
 295 871 295 871 325.5 839.5 c 128,-1,31
 356 808 356 808 356 764 c 128,-1,32
 356 720 356 720 346.5 698 c 128,-1,33
 337 676 337 676 320 660 c 1,34,35
 285 624 285 624 242 624 c 128,-1,36
 199 624 199 624 175.5 635.5 c 128,-1,37
 152 647 152 647 136 666 c 0,38,39
 103 704 103 704 103 761.5 c 128,-1,40
 103 819 103 819 135 870 c 128,-1,41
 167 921 167 921 220 958 c 0,42,43
 330 1034 330 1034 471 1034 c 0,44,45
 691 1034 691 1034 754 881 c 1,46,-1
 756 881 l 1,47,48
 867 1034 867 1034 1042.5 1034 c 128,-1,49
 1218 1034 1218 1034 1304.5 916.5 c 128,-1,50
 1391 799 1391 799 1391 557 c 1,51,-1
 1364 532 l 1,52,-1
 868 532 l 1,53,-1
 868 414 l 2,54,55
 868 35 868 35 1103 35 c 0,56,57
 1275 35 1275 35 1380 211 c 1,58,-1
 1419 187 l 1,59,60
 1291 -30 1291 -30 1056 -30 c 0,0,1
633 490 m 1,61,62
 588 495 588 495 550 495 c 128,-1,63
 512 495 512 495 472 480.5 c 128,-1,64
 432 466 432 466 404.5 443.5 c 128,-1,65
 377 421 377 421 359.5 392 c 128,-1,66
 342 363 342 363 332 334 c 0,67,68
 316 285 316 285 316 242.5 c 128,-1,69
 316 200 316 200 324.5 167.5 c 128,-1,70
 333 135 333 135 350 112 c 1,71,72
 385 61 385 61 444 61 c 0,73,74
 512 61 512 61 570 142 c 0,75,76
 633 230 633 230 633 352 c 2,77,-1
 633 490 l 1,61,62
1032 989 m 0,78,79
 992 989 992 989 961.5 958.5 c 128,-1,80
 931 928 931 928 912 874 c 0,81,82
 874 770 874 770 868 577 c 1,83,-1
 1175 590 l 1,84,85
 1177 611 1177 611 1177 632 c 2,86,-1
 1177 672 l 2,87,88
 1177 989 1177 989 1032 989 c 0,78,79
EndSplineSet
EndChar

StartChar: ccedilla
Encoding: 231 231 169
Width: 946
Flags: W
LayerCount: 2
Fore
SplineSet
394 -155 m 1,0,1
 457 -116 457 -116 530.5 -116 c 128,-1,2
 604 -116 604 -116 641 -152 c 128,-1,3
 678 -188 678 -188 678 -240 c 128,-1,4
 678 -292 678 -292 658.5 -326.5 c 128,-1,5
 639 -361 639 -361 607.5 -388.5 c 128,-1,6
 576 -416 576 -416 534.5 -437 c 128,-1,7
 493 -458 493 -458 450 -474 c 1,8,9
 369 -502 369 -502 286 -514 c 1,10,-1
 274 -461 l 1,11,12
 376 -443 376 -443 444 -386 c 1,13,14
 510 -329 510 -329 510 -269 c 0,15,16
 510 -236 510 -236 491 -217 c 128,-1,17
 472 -198 472 -198 433.5 -198 c 128,-1,18
 395 -198 395 -198 352 -228 c 1,19,-1
 323 -194 l 1,20,-1
 375 -8 l 1,21,22
 81 75 81 75 81 496 c 0,23,24
 81 697 81 697 193 854 c 0,25,26
 271 964 271 964 401 1010 c 0,27,28
 467 1034 467 1034 543 1034 c 128,-1,29
 619 1034 619 1034 678 1012.5 c 128,-1,30
 737 991 737 991 780 955 c 0,31,32
 870 880 870 880 870 770 c 0,33,34
 870 717 870 717 846 690 c 0,35,36
 802 641 802 641 744.5 641 c 128,-1,37
 687 641 687 641 652.5 676 c 128,-1,38
 618 711 618 711 618 749.5 c 128,-1,39
 618 788 618 788 626.5 810.5 c 128,-1,40
 635 833 635 833 650 850 c 0,41,42
 683 886 683 886 734 886 c 0,43,44
 745 886 745 886 759 884 c 1,45,-1
 759 889 l 1,46,47
 702 984 702 984 585 984 c 0,48,49
 456 984 456 984 392 844 c 0,50,51
 337 722 337 722 337 500 c 0,52,53
 337 136 337 136 488 61 c 0,54,55
 533 39 533 39 571 39 c 128,-1,56
 609 39 609 39 641 43.5 c 128,-1,57
 673 48 673 48 708 66 c 0,58,59
 788 107 788 107 853 216 c 1,60,-1
 892 193 l 1,61,62
 768 -30 768 -30 540 -30 c 0,63,64
 485 -30 485 -30 437 -22 c 1,65,-1
 394 -155 l 1,0,1
EndSplineSet
EndChar

StartChar: egrave
Encoding: 232 232 170
Width: 982
Flags: W
LayerCount: 2
Fore
SplineSet
905 187 m 1,0,1
 777 -30 777 -30 538 -30 c 0,2,3
 309 -30 309 -30 191 117 c 0,4,5
 81 254 81 254 81 502 c 0,6,7
 81 712 81 712 182 862 c 1,8,9
 296 1034 296 1034 510 1034 c 0,10,11
 712 1034 712 1034 810 898 c 0,12,13
 896 777 896 777 896 557 c 1,14,-1
 869 532 l 1,15,-1
 337 532 l 1,16,-1
 337 471 l 2,17,18
 337 35 337 35 585 35 c 0,19,20
 761 35 761 35 866 211 c 1,21,-1
 905 187 l 1,0,1
663 688 m 0,22,23
 663 989 663 989 514 989 c 0,24,25
 379 989 379 989 349 737 c 0,26,27
 340 662 340 662 337 577 c 1,28,-1
 660 590 l 1,29,30
 663 641 663 641 663 688 c 0,22,23
345 1409 m 2,31,32
 315 1441 315 1441 315 1484.5 c 128,-1,33
 315 1528 315 1528 340.5 1555 c 128,-1,34
 366 1582 366 1582 401 1582 c 128,-1,35
 436 1582 436 1582 460.5 1562 c 128,-1,36
 485 1542 485 1542 494 1513 c 1,37,-1
 605 1195 l 1,38,-1
 568 1169 l 1,39,-1
 345 1409 l 2,31,32
EndSplineSet
EndChar

StartChar: eacute
Encoding: 233 233 171
Width: 982
Flags: W
LayerCount: 2
Fore
SplineSet
905 187 m 1,0,1
 777 -30 777 -30 538 -30 c 0,2,3
 309 -30 309 -30 191 117 c 0,4,5
 81 254 81 254 81 502 c 0,6,7
 81 712 81 712 182 862 c 1,8,9
 296 1034 296 1034 510 1034 c 0,10,11
 712 1034 712 1034 810 898 c 0,12,13
 896 777 896 777 896 557 c 1,14,-1
 869 532 l 1,15,-1
 337 532 l 1,16,-1
 337 471 l 2,17,18
 337 35 337 35 585 35 c 0,19,20
 761 35 761 35 866 211 c 1,21,-1
 905 187 l 1,0,1
663 688 m 0,22,23
 663 989 663 989 514 989 c 0,24,25
 379 989 379 989 349 737 c 0,26,27
 340 662 340 662 337 577 c 1,28,-1
 660 590 l 1,29,30
 663 641 663 641 663 688 c 0,22,23
489 1156 m 1,31,-1
 452 1182 l 1,32,-1
 563 1500 l 1,33,34
 572 1529 572 1529 596.5 1549 c 128,-1,35
 621 1569 621 1569 646.5 1569 c 128,-1,36
 672 1569 672 1569 688.5 1562 c 128,-1,37
 705 1555 705 1555 717 1542 c 0,38,39
 743 1514 743 1514 743 1483 c 0,40,41
 743 1429 743 1429 712 1396 c 2,42,-1
 489 1156 l 1,31,-1
EndSplineSet
EndChar

StartChar: ecircumflex
Encoding: 234 234 172
Width: 982
Flags: W
LayerCount: 2
Fore
SplineSet
905 187 m 1,0,1
 777 -30 777 -30 538 -30 c 0,2,3
 309 -30 309 -30 191 117 c 0,4,5
 81 254 81 254 81 502 c 0,6,7
 81 712 81 712 182 862 c 1,8,9
 296 1034 296 1034 510 1034 c 0,10,11
 712 1034 712 1034 810 898 c 0,12,13
 896 777 896 777 896 557 c 1,14,-1
 869 532 l 1,15,-1
 337 532 l 1,16,-1
 337 471 l 2,17,18
 337 35 337 35 585 35 c 0,19,20
 761 35 761 35 866 211 c 1,21,-1
 905 187 l 1,0,1
663 688 m 0,22,23
 663 989 663 989 514 989 c 0,24,25
 379 989 379 989 349 737 c 0,26,27
 340 662 340 662 337 577 c 1,28,-1
 660 590 l 1,29,30
 663 641 663 641 663 688 c 0,22,23
513 1585 m 1,31,-1
 747 1213 l 1,32,-1
 666 1167 l 1,33,-1
 500 1379 l 1,34,-1
 496 1379 l 1,35,-1
 318 1168 l 1,36,-1
 242 1209 l 1,37,-1
 508 1585 l 1,38,-1
 513 1585 l 1,31,-1
EndSplineSet
EndChar

StartChar: edieresis
Encoding: 235 235 173
Width: 982
Flags: W
LayerCount: 2
Fore
SplineSet
905 187 m 1,0,1
 777 -30 777 -30 538 -30 c 0,2,3
 309 -30 309 -30 191 117 c 0,4,5
 81 254 81 254 81 502 c 0,6,7
 81 712 81 712 182 862 c 1,8,9
 296 1034 296 1034 510 1034 c 0,10,11
 712 1034 712 1034 810 898 c 0,12,13
 896 777 896 777 896 557 c 1,14,-1
 869 532 l 1,15,-1
 337 532 l 1,16,-1
 337 471 l 2,17,18
 337 35 337 35 585 35 c 0,19,20
 761 35 761 35 866 211 c 1,21,-1
 905 187 l 1,0,1
663 688 m 0,22,23
 663 989 663 989 514 989 c 0,24,25
 379 989 379 989 349 737 c 0,26,27
 340 662 340 662 337 577 c 1,28,-1
 660 590 l 1,29,30
 663 641 663 641 663 688 c 0,22,23
583 1283.5 m 128,-1,32
 552 1321 552 1321 552 1378.5 c 128,-1,33
 552 1436 552 1436 583 1473.5 c 128,-1,34
 614 1511 614 1511 668 1511 c 256,35,36
 722 1511 722 1511 753.5 1473.5 c 128,-1,37
 785 1436 785 1436 785 1378.5 c 128,-1,38
 785 1321 785 1321 753.5 1283.5 c 128,-1,39
 722 1246 722 1246 668 1246 c 256,40,31
 614 1246 614 1246 583 1283.5 c 128,-1,32
240 1283.5 m 128,-1,42
 209 1321 209 1321 209 1378.5 c 128,-1,43
 209 1436 209 1436 240 1473.5 c 128,-1,44
 271 1511 271 1511 325 1511 c 256,45,46
 379 1511 379 1511 410.5 1473.5 c 128,-1,47
 442 1436 442 1436 442 1378.5 c 128,-1,48
 442 1321 442 1321 410.5 1283.5 c 128,-1,49
 379 1246 379 1246 325 1246 c 256,50,41
 271 1246 271 1246 240 1283.5 c 128,-1,42
EndSplineSet
EndChar

StartChar: igrave
Encoding: 236 236 174
Width: 585
Flags: W
LayerCount: 2
Fore
SplineSet
424 51 m 1,0,-1
 527 41 l 1,1,-1
 527 0 l 1,2,-1
 76 0 l 1,3,-1
 76 41 l 1,4,-1
 179 51 l 1,5,-1
 179 926 l 1,6,-1
 58 924 l 1,7,-1
 56 965 l 1,8,-1
 265 987 l 1,9,-1
 406 1024 l 1,10,-1
 424 995 l 1,11,-1
 424 51 l 1,0,-1
87 1409 m 2,12,13
 57 1441 57 1441 57 1484.5 c 128,-1,14
 57 1528 57 1528 82.5 1555 c 128,-1,15
 108 1582 108 1582 143 1582 c 128,-1,16
 178 1582 178 1582 202.5 1562 c 128,-1,17
 227 1542 227 1542 236 1513 c 1,18,-1
 347 1195 l 1,19,-1
 310 1169 l 1,20,-1
 87 1409 l 2,12,13
EndSplineSet
EndChar

StartChar: iacute
Encoding: 237 237 175
Width: 585
Flags: W
LayerCount: 2
Fore
SplineSet
424 51 m 1,0,-1
 527 41 l 1,1,-1
 527 0 l 1,2,-1
 76 0 l 1,3,-1
 76 41 l 1,4,-1
 179 51 l 1,5,-1
 179 926 l 1,6,-1
 58 924 l 1,7,-1
 56 965 l 1,8,-1
 265 987 l 1,9,-1
 406 1024 l 1,10,-1
 424 995 l 1,11,-1
 424 51 l 1,0,-1
241 1156 m 1,12,-1
 204 1182 l 1,13,-1
 315 1500 l 1,14,15
 324 1529 324 1529 348.5 1549 c 128,-1,16
 373 1569 373 1569 398.5 1569 c 128,-1,17
 424 1569 424 1569 440.5 1562 c 128,-1,18
 457 1555 457 1555 469 1542 c 0,19,20
 495 1514 495 1514 495 1483 c 0,21,22
 495 1429 495 1429 464 1396 c 2,23,-1
 241 1156 l 1,12,-1
EndSplineSet
EndChar

StartChar: icircumflex
Encoding: 238 238 176
Width: 585
Flags: W
LayerCount: 2
Fore
SplineSet
424 51 m 1,0,-1
 527 41 l 1,1,-1
 527 0 l 1,2,-1
 76 0 l 1,3,-1
 76 41 l 1,4,-1
 179 51 l 1,5,-1
 179 926 l 1,6,-1
 58 924 l 1,7,-1
 56 965 l 1,8,-1
 265 987 l 1,9,-1
 406 1024 l 1,10,-1
 424 995 l 1,11,-1
 424 51 l 1,0,-1
275 1585 m 1,12,-1
 509 1213 l 1,13,-1
 428 1167 l 1,14,-1
 262 1379 l 1,15,-1
 258 1379 l 1,16,-1
 80 1168 l 1,17,-1
 4 1209 l 1,18,-1
 270 1585 l 1,19,-1
 275 1585 l 1,12,-1
EndSplineSet
EndChar

StartChar: idieresis
Encoding: 239 239 177
Width: 585
Flags: W
LayerCount: 2
Fore
SplineSet
424 51 m 1,0,-1
 527 41 l 1,1,-1
 527 0 l 1,2,-1
 76 0 l 1,3,-1
 76 41 l 1,4,-1
 179 51 l 1,5,-1
 179 926 l 1,6,-1
 58 924 l 1,7,-1
 56 965 l 1,8,-1
 265 987 l 1,9,-1
 406 1024 l 1,10,-1
 424 995 l 1,11,-1
 424 51 l 1,0,-1
345 1283.5 m 128,-1,13
 314 1321 314 1321 314 1378.5 c 128,-1,14
 314 1436 314 1436 345 1473.5 c 128,-1,15
 376 1511 376 1511 430 1511 c 256,16,17
 484 1511 484 1511 515.5 1473.5 c 128,-1,18
 547 1436 547 1436 547 1378.5 c 128,-1,19
 547 1321 547 1321 515.5 1283.5 c 128,-1,20
 484 1246 484 1246 430 1246 c 256,21,12
 376 1246 376 1246 345 1283.5 c 128,-1,13
2 1283.5 m 128,-1,23
 -29 1321 -29 1321 -29 1378.5 c 128,-1,24
 -29 1436 -29 1436 2 1473.5 c 128,-1,25
 33 1511 33 1511 87 1511 c 256,26,27
 141 1511 141 1511 172.5 1473.5 c 128,-1,28
 204 1436 204 1436 204 1378.5 c 128,-1,29
 204 1321 204 1321 172.5 1283.5 c 128,-1,30
 141 1246 141 1246 87 1246 c 256,31,22
 33 1246 33 1246 2 1283.5 c 128,-1,23
EndSplineSet
EndChar

StartChar: eth
Encoding: 240 240 178
Width: 1102
Flags: W
LayerCount: 2
Fore
SplineSet
246 1448 m 2,0,1
 352 1448 352 1448 456 1414 c 1,2,-1
 558 1555 l 1,3,-1
 609 1513 l 1,4,-1
 513 1392 l 1,5,6
 733 1294 733 1294 866 1052 c 0,7,8
 991 823 991 823 991 557 c 0,9,10
 991 271 991 271 865 116 c 1,11,12
 745 -30 745 -30 535 -30 c 0,13,14
 308 -30 308 -30 187 130 c 0,15,16
 80 272 80 272 80 496 c 128,-1,17
 80 720 80 720 204 870 c 1,18,19
 329 1024 329 1024 519 1024 c 0,20,21
 617 1024 617 1024 690 989 c 1,22,23
 625 1230 625 1230 464 1330 c 1,24,-1
 349 1186 l 1,25,-1
 313 1217 l 1,26,-1
 414 1357 l 1,27,28
 321 1397 321 1397 208 1397 c 1,29,-1
 209 1447 l 1,30,31
 218 1448 218 1448 228 1448 c 2,32,-1
 246 1448 l 2,0,1
336 508 m 0,33,34
 336 15 336 15 531 15 c 0,35,36
 739 15 739 15 739 496 c 0,37,38
 739 757 739 757 706 922 c 1,39,40
 646 971 646 971 573.5 971 c 128,-1,41
 501 971 501 971 455 939 c 128,-1,42
 409 907 409 907 382 848 c 1,43,44
 336 743 336 743 336 508 c 0,33,34
EndSplineSet
EndChar

StartChar: ntilde
Encoding: 241 241 179
Width: 1164
Flags: W
LayerCount: 2
Fore
SplineSet
424 860 m 1,0,1
 542 1034 542 1034 732 1034 c 0,2,3
 946 1034 946 1034 998 828 c 0,4,5
 1012 775 1012 775 1012 702 c 2,6,-1
 1012 51 l 1,7,-1
 1114 41 l 1,8,-1
 1114 0 l 1,9,-1
 664 0 l 1,10,-1
 664 41 l 1,11,-1
 766 51 l 1,12,-1
 766 731 l 2,13,14
 766 865 766 865 710 916 c 0,15,16
 679 944 679 944 631.5 944 c 128,-1,17
 584 944 584 944 546.5 922.5 c 128,-1,18
 509 901 509 901 482 862 c 0,19,20
 424 778 424 778 424 647 c 2,21,-1
 424 51 l 1,22,-1
 527 41 l 1,23,-1
 527 0 l 1,24,-1
 76 0 l 1,25,-1
 76 41 l 1,26,-1
 179 51 l 1,27,-1
 179 926 l 1,28,-1
 58 924 l 1,29,-1
 56 965 l 1,30,-1
 265 987 l 1,31,-1
 406 1024 l 1,32,-1
 424 995 l 1,33,-1
 420 860 l 1,34,-1
 424 860 l 1,0,1
714 1406 m 0,35,36
 807 1406 807 1406 869 1498 c 1,37,-1
 908 1485 l 1,38,39
 877 1322 877 1322 768 1278 c 1,40,41
 736 1264 736 1264 696.5 1264 c 128,-1,42
 657 1264 657 1264 626.5 1278 c 128,-1,43
 596 1292 596 1292 570.5 1309.5 c 128,-1,44
 545 1327 545 1327 520 1341 c 128,-1,45
 495 1355 495 1355 459 1355 c 0,46,47
 361 1355 361 1355 297 1275 c 1,48,-1
 261 1291 l 1,49,50
 298 1423 298 1423 399 1472 c 0,51,52
 435 1490 435 1490 479.5 1490 c 128,-1,53
 524 1490 524 1490 552.5 1477 c 128,-1,54
 581 1464 581 1464 604.5 1448 c 128,-1,55
 628 1432 628 1432 652.5 1419 c 128,-1,56
 677 1406 677 1406 714 1406 c 0,35,36
EndSplineSet
EndChar

StartChar: ograve
Encoding: 242 242 180
Width: 1071
Flags: W
LayerCount: 2
Fore
SplineSet
548 1034 m 0,0,1
 655 1034 655 1034 740 988.5 c 128,-1,2
 825 943 825 943 881 868 c 0,3,4
 992 719 992 719 992 502 c 0,5,6
 992 276 992 276 868 125 c 1,7,8
 739 -30 739 -30 539 -30 c 0,9,10
 310 -30 310 -30 189 126 c 0,11,12
 80 266 80 266 80 496 c 128,-1,13
 80 726 80 726 209 880 c 0,14,15
 339 1034 339 1034 548 1034 c 0,0,1
336 508 m 0,16,17
 336 15 336 15 536 15 c 128,-1,18
 736 15 736 15 736 496 c 0,19,20
 736 866 736 866 632 956 c 0,21,22
 593 989 593 989 537 989 c 128,-1,23
 481 989 481 989 443 952.5 c 128,-1,24
 405 916 405 916 381 852 c 0,25,26
 336 732 336 732 336 508 c 0,16,17
367 1409 m 2,27,28
 337 1441 337 1441 337 1484.5 c 128,-1,29
 337 1528 337 1528 362.5 1555 c 128,-1,30
 388 1582 388 1582 423 1582 c 128,-1,31
 458 1582 458 1582 482.5 1562 c 128,-1,32
 507 1542 507 1542 516 1513 c 1,33,-1
 627 1195 l 1,34,-1
 590 1169 l 1,35,-1
 367 1409 l 2,27,28
EndSplineSet
EndChar

StartChar: oacute
Encoding: 243 243 181
Width: 1071
Flags: W
LayerCount: 2
Fore
SplineSet
548 1034 m 0,0,1
 655 1034 655 1034 740 988.5 c 128,-1,2
 825 943 825 943 881 868 c 0,3,4
 992 719 992 719 992 502 c 0,5,6
 992 276 992 276 868 125 c 1,7,8
 739 -30 739 -30 539 -30 c 0,9,10
 310 -30 310 -30 189 126 c 0,11,12
 80 266 80 266 80 496 c 128,-1,13
 80 726 80 726 209 880 c 0,14,15
 339 1034 339 1034 548 1034 c 0,0,1
336 508 m 0,16,17
 336 15 336 15 536 15 c 128,-1,18
 736 15 736 15 736 496 c 0,19,20
 736 866 736 866 632 956 c 0,21,22
 593 989 593 989 537 989 c 128,-1,23
 481 989 481 989 443 952.5 c 128,-1,24
 405 916 405 916 381 852 c 0,25,26
 336 732 336 732 336 508 c 0,16,17
491 1156 m 1,27,-1
 454 1182 l 1,28,-1
 565 1500 l 1,29,30
 574 1529 574 1529 598.5 1549 c 128,-1,31
 623 1569 623 1569 648.5 1569 c 128,-1,32
 674 1569 674 1569 690.5 1562 c 128,-1,33
 707 1555 707 1555 719 1542 c 0,34,35
 745 1514 745 1514 745 1483 c 0,36,37
 745 1429 745 1429 714 1396 c 2,38,-1
 491 1156 l 1,27,-1
EndSplineSet
EndChar

StartChar: ocircumflex
Encoding: 244 244 182
Width: 1071
Flags: W
LayerCount: 2
Fore
SplineSet
548 1034 m 0,0,1
 655 1034 655 1034 740 988.5 c 128,-1,2
 825 943 825 943 881 868 c 0,3,4
 992 719 992 719 992 502 c 0,5,6
 992 276 992 276 868 125 c 1,7,8
 739 -30 739 -30 539 -30 c 0,9,10
 310 -30 310 -30 189 126 c 0,11,12
 80 266 80 266 80 496 c 128,-1,13
 80 726 80 726 209 880 c 0,14,15
 339 1034 339 1034 548 1034 c 0,0,1
336 508 m 0,16,17
 336 15 336 15 536 15 c 128,-1,18
 736 15 736 15 736 496 c 0,19,20
 736 866 736 866 632 956 c 0,21,22
 593 989 593 989 537 989 c 128,-1,23
 481 989 481 989 443 952.5 c 128,-1,24
 405 916 405 916 381 852 c 0,25,26
 336 732 336 732 336 508 c 0,16,17
555 1585 m 1,27,-1
 789 1213 l 1,28,-1
 708 1167 l 1,29,-1
 542 1379 l 1,30,-1
 538 1379 l 1,31,-1
 360 1168 l 1,32,-1
 284 1209 l 1,33,-1
 550 1585 l 1,34,-1
 555 1585 l 1,27,-1
EndSplineSet
EndChar

StartChar: otilde
Encoding: 245 245 183
Width: 1071
Flags: W
LayerCount: 2
Fore
SplineSet
548 1034 m 0,0,1
 655 1034 655 1034 740 988.5 c 128,-1,2
 825 943 825 943 881 868 c 0,3,4
 992 719 992 719 992 502 c 0,5,6
 992 276 992 276 868 125 c 1,7,8
 739 -30 739 -30 539 -30 c 0,9,10
 310 -30 310 -30 189 126 c 0,11,12
 80 266 80 266 80 496 c 128,-1,13
 80 726 80 726 209 880 c 0,14,15
 339 1034 339 1034 548 1034 c 0,0,1
336 508 m 0,16,17
 336 15 336 15 536 15 c 128,-1,18
 736 15 736 15 736 496 c 0,19,20
 736 866 736 866 632 956 c 0,21,22
 593 989 593 989 537 989 c 128,-1,23
 481 989 481 989 443 952.5 c 128,-1,24
 405 916 405 916 381 852 c 0,25,26
 336 732 336 732 336 508 c 0,16,17
671 1406 m 0,27,28
 764 1406 764 1406 826 1498 c 1,29,-1
 865 1485 l 1,30,31
 834 1322 834 1322 726 1278 c 0,32,33
 693 1264 693 1264 653.5 1264 c 128,-1,34
 614 1264 614 1264 583.5 1278 c 128,-1,35
 553 1292 553 1292 527.5 1309.5 c 128,-1,36
 502 1327 502 1327 477 1341 c 128,-1,37
 452 1355 452 1355 416 1355 c 0,38,39
 318 1355 318 1355 254 1275 c 1,40,-1
 218 1291 l 1,41,42
 255 1423 255 1423 356 1472 c 0,43,44
 392 1490 392 1490 436.5 1490 c 128,-1,45
 481 1490 481 1490 509.5 1477 c 128,-1,46
 538 1464 538 1464 561.5 1448 c 128,-1,47
 585 1432 585 1432 609.5 1419 c 128,-1,48
 634 1406 634 1406 671 1406 c 0,27,28
EndSplineSet
EndChar

StartChar: odieresis
Encoding: 246 246 184
Width: 1071
Flags: W
LayerCount: 2
Fore
SplineSet
548 1034 m 0,0,1
 655 1034 655 1034 740 988.5 c 128,-1,2
 825 943 825 943 881 868 c 0,3,4
 992 719 992 719 992 502 c 0,5,6
 992 276 992 276 868 125 c 1,7,8
 739 -30 739 -30 539 -30 c 0,9,10
 310 -30 310 -30 189 126 c 0,11,12
 80 266 80 266 80 496 c 128,-1,13
 80 726 80 726 209 880 c 0,14,15
 339 1034 339 1034 548 1034 c 0,0,1
336 508 m 0,16,17
 336 15 336 15 536 15 c 128,-1,18
 736 15 736 15 736 496 c 0,19,20
 736 866 736 866 632 956 c 0,21,22
 593 989 593 989 537 989 c 128,-1,23
 481 989 481 989 443 952.5 c 128,-1,24
 405 916 405 916 381 852 c 0,25,26
 336 732 336 732 336 508 c 0,16,17
635 1283.5 m 128,-1,28
 604 1321 604 1321 604 1378.5 c 128,-1,29
 604 1436 604 1436 635 1473.5 c 128,-1,30
 666 1511 666 1511 720 1511 c 256,31,32
 774 1511 774 1511 805.5 1473.5 c 128,-1,33
 837 1436 837 1436 837 1378.5 c 128,-1,34
 837 1321 837 1321 805.5 1283.5 c 128,-1,35
 774 1246 774 1246 720 1246 c 256,36,27
 666 1246 666 1246 635 1283.5 c 128,-1,28
292 1283.5 m 128,-1,38
 261 1321 261 1321 261 1378.5 c 128,-1,39
 261 1436 261 1436 292 1473.5 c 128,-1,40
 323 1511 323 1511 377 1511 c 256,41,42
 431 1511 431 1511 462.5 1473.5 c 128,-1,43
 494 1436 494 1436 494 1378.5 c 128,-1,44
 494 1321 494 1321 462.5 1283.5 c 128,-1,45
 431 1246 431 1246 377 1246 c 256,46,37
 323 1246 323 1246 292 1283.5 c 128,-1,38
EndSplineSet
EndChar

StartChar: divide
Encoding: 247 247 185
Width: 1146
Flags: W
LayerCount: 2
Fore
SplineSet
473.5 130 m 128,-1,1
 435 167 435 167 435 229 c 128,-1,2
 435 291 435 291 473.5 329.5 c 128,-1,3
 512 368 512 368 574 368 c 128,-1,4
 636 368 636 368 673.5 329.5 c 128,-1,5
 711 291 711 291 711 229 c 128,-1,6
 711 167 711 167 673.5 130 c 128,-1,7
 636 93 636 93 574 93 c 128,-1,0
 512 93 512 93 473.5 130 c 128,-1,1
473.5 924 m 128,-1,9
 435 961 435 961 435 1023 c 128,-1,10
 435 1085 435 1085 473.5 1123.5 c 128,-1,11
 512 1162 512 1162 574 1162 c 128,-1,12
 636 1162 636 1162 673.5 1123.5 c 128,-1,13
 711 1085 711 1085 711 1023 c 128,-1,14
 711 961 711 961 673.5 924 c 128,-1,15
 636 887 636 887 574 887 c 128,-1,8
 512 887 512 887 473.5 924 c 128,-1,9
1029 696 m 1,16,-1
 1029 586 l 1,17,-1
 117 586 l 1,18,-1
 117 696 l 1,19,-1
 1029 696 l 1,16,-1
EndSplineSet
EndChar

StartChar: oslash
Encoding: 248 248 186
Width: 1072
Flags: W
LayerCount: 2
Fore
SplineSet
193 124 m 1,0,1
 80 268 80 268 80 496 c 0,2,3
 80 720 80 720 209 876 c 1,4,5
 341 1034 341 1034 529 1034 c 128,-1,6
 717 1034 717 1034 835 920 c 1,7,-1
 924 1034 l 1,8,-1
 1034 1034 l 1,9,-1
 892 852 l 1,10,11
 992 707 992 707 992 502 c 0,12,13
 992 276 992 276 868 125 c 1,14,15
 739 -30 739 -30 539 -30 c 0,16,17
 370 -30 370 -30 254 62 c 1,18,-1
 162 -55 l 1,19,-1
 53 -55 l 1,20,-1
 193 124 l 1,0,1
723 789 m 1,21,22
 676 989 676 989 535 989 c 0,23,24
 430 989 430 989 374 852 c 1,25,26
 321 725 321 725 321 508 c 0,27,28
 321 389 321 389 336 295 c 1,29,-1
 723 789 l 1,21,22
361 188 m 1,30,31
 417 15 417 15 535 15 c 0,32,33
 643 15 643 15 700 152 c 0,34,35
 751 277 751 277 751 496 c 0,36,37
 751 593 751 593 743 673 c 1,38,-1
 361 188 l 1,30,31
EndSplineSet
EndChar

StartChar: ugrave
Encoding: 249 249 187
Width: 1142
Flags: W
LayerCount: 2
Fore
SplineSet
740 154 m 1,0,-1
 736 154 l 1,1,2
 681 73 681 73 637 38 c 0,3,4
 550 -30 550 -30 451 -30 c 0,5,6
 229 -30 229 -30 172 175 c 0,7,8
 158 228 158 228 158 301 c 2,9,-1
 158 924 l 1,10,-1
 35 924 l 1,11,-1
 35 965 l 1,12,-1
 244 987 l 1,13,-1
 385 1024 l 1,14,-1
 404 995 l 1,15,-1
 404 273 l 2,16,17
 404 140 404 140 464 90 c 0,18,19
 496 63 496 63 539 63 c 128,-1,20
 582 63 582 63 615.5 85.5 c 128,-1,21
 649 108 649 108 676 148 c 0,22,23
 736 238 736 238 736 369 c 2,24,-1
 736 924 l 1,25,-1
 613 924 l 1,26,-1
 613 965 l 1,27,-1
 822 987 l 1,28,-1
 963 1024 l 1,29,-1
 981 995 l 1,30,-1
 981 51 l 1,31,-1
 1084 41 l 1,32,-1
 1084 0 l 1,33,-1
 770 0 l 1,34,-1
 740 154 l 1,0,-1
370 1409 m 2,35,36
 340 1441 340 1441 340 1484.5 c 128,-1,37
 340 1528 340 1528 365.5 1555 c 128,-1,38
 391 1582 391 1582 426 1582 c 128,-1,39
 461 1582 461 1582 485.5 1562 c 128,-1,40
 510 1542 510 1542 519 1513 c 1,41,-1
 630 1195 l 1,42,-1
 593 1169 l 1,43,-1
 370 1409 l 2,35,36
EndSplineSet
EndChar

StartChar: uacute
Encoding: 250 250 188
Width: 1142
Flags: W
LayerCount: 2
Fore
SplineSet
740 154 m 1,0,-1
 736 154 l 1,1,2
 681 73 681 73 637 38 c 0,3,4
 550 -30 550 -30 451 -30 c 0,5,6
 229 -30 229 -30 172 175 c 0,7,8
 158 228 158 228 158 301 c 2,9,-1
 158 924 l 1,10,-1
 35 924 l 1,11,-1
 35 965 l 1,12,-1
 244 987 l 1,13,-1
 385 1024 l 1,14,-1
 404 995 l 1,15,-1
 404 273 l 2,16,17
 404 140 404 140 464 90 c 0,18,19
 496 63 496 63 539 63 c 128,-1,20
 582 63 582 63 615.5 85.5 c 128,-1,21
 649 108 649 108 676 148 c 0,22,23
 736 238 736 238 736 369 c 2,24,-1
 736 924 l 1,25,-1
 613 924 l 1,26,-1
 613 965 l 1,27,-1
 822 987 l 1,28,-1
 963 1024 l 1,29,-1
 981 995 l 1,30,-1
 981 51 l 1,31,-1
 1084 41 l 1,32,-1
 1084 0 l 1,33,-1
 770 0 l 1,34,-1
 740 154 l 1,0,-1
514 1156 m 1,35,-1
 477 1182 l 1,36,-1
 588 1500 l 1,37,38
 597 1529 597 1529 621.5 1549 c 128,-1,39
 646 1569 646 1569 671.5 1569 c 128,-1,40
 697 1569 697 1569 713.5 1562 c 128,-1,41
 730 1555 730 1555 742 1542 c 0,42,43
 768 1514 768 1514 768 1483 c 0,44,45
 768 1429 768 1429 737 1396 c 2,46,-1
 514 1156 l 1,35,-1
EndSplineSet
EndChar

StartChar: ucircumflex
Encoding: 251 251 189
Width: 1142
Flags: W
LayerCount: 2
Fore
SplineSet
740 154 m 1,0,-1
 736 154 l 1,1,2
 681 73 681 73 637 38 c 0,3,4
 550 -30 550 -30 451 -30 c 0,5,6
 229 -30 229 -30 172 175 c 0,7,8
 158 228 158 228 158 301 c 2,9,-1
 158 924 l 1,10,-1
 35 924 l 1,11,-1
 35 965 l 1,12,-1
 244 987 l 1,13,-1
 385 1024 l 1,14,-1
 404 995 l 1,15,-1
 404 273 l 2,16,17
 404 140 404 140 464 90 c 0,18,19
 496 63 496 63 539 63 c 128,-1,20
 582 63 582 63 615.5 85.5 c 128,-1,21
 649 108 649 108 676 148 c 0,22,23
 736 238 736 238 736 369 c 2,24,-1
 736 924 l 1,25,-1
 613 924 l 1,26,-1
 613 965 l 1,27,-1
 822 987 l 1,28,-1
 963 1024 l 1,29,-1
 981 995 l 1,30,-1
 981 51 l 1,31,-1
 1084 41 l 1,32,-1
 1084 0 l 1,33,-1
 770 0 l 1,34,-1
 740 154 l 1,0,-1
578 1585 m 1,35,-1
 812 1213 l 1,36,-1
 731 1167 l 1,37,-1
 565 1379 l 1,38,-1
 561 1379 l 1,39,-1
 383 1168 l 1,40,-1
 307 1209 l 1,41,-1
 573 1585 l 1,42,-1
 578 1585 l 1,35,-1
EndSplineSet
EndChar

StartChar: udieresis
Encoding: 252 252 190
Width: 1142
Flags: W
LayerCount: 2
Fore
SplineSet
740 154 m 1,0,-1
 736 154 l 1,1,2
 681 73 681 73 637 38 c 0,3,4
 550 -30 550 -30 451 -30 c 0,5,6
 229 -30 229 -30 172 175 c 0,7,8
 158 228 158 228 158 301 c 2,9,-1
 158 924 l 1,10,-1
 35 924 l 1,11,-1
 35 965 l 1,12,-1
 244 987 l 1,13,-1
 385 1024 l 1,14,-1
 404 995 l 1,15,-1
 404 273 l 2,16,17
 404 140 404 140 464 90 c 0,18,19
 496 63 496 63 539 63 c 128,-1,20
 582 63 582 63 615.5 85.5 c 128,-1,21
 649 108 649 108 676 148 c 0,22,23
 736 238 736 238 736 369 c 2,24,-1
 736 924 l 1,25,-1
 613 924 l 1,26,-1
 613 965 l 1,27,-1
 822 987 l 1,28,-1
 963 1024 l 1,29,-1
 981 995 l 1,30,-1
 981 51 l 1,31,-1
 1084 41 l 1,32,-1
 1084 0 l 1,33,-1
 770 0 l 1,34,-1
 740 154 l 1,0,-1
628 1283.5 m 128,-1,36
 597 1321 597 1321 597 1378.5 c 128,-1,37
 597 1436 597 1436 628 1473.5 c 128,-1,38
 659 1511 659 1511 713 1511 c 256,39,40
 767 1511 767 1511 798.5 1473.5 c 128,-1,41
 830 1436 830 1436 830 1378.5 c 128,-1,42
 830 1321 830 1321 798.5 1283.5 c 128,-1,43
 767 1246 767 1246 713 1246 c 256,44,35
 659 1246 659 1246 628 1283.5 c 128,-1,36
285 1283.5 m 128,-1,46
 254 1321 254 1321 254 1378.5 c 128,-1,47
 254 1436 254 1436 285 1473.5 c 128,-1,48
 316 1511 316 1511 370 1511 c 256,49,50
 424 1511 424 1511 455.5 1473.5 c 128,-1,51
 487 1436 487 1436 487 1378.5 c 128,-1,52
 487 1321 487 1321 455.5 1283.5 c 128,-1,53
 424 1246 424 1246 370 1246 c 256,54,45
 316 1246 316 1246 285 1283.5 c 128,-1,46
EndSplineSet
EndChar

StartChar: yacute
Encoding: 253 253 191
Width: 965
Flags: W
LayerCount: 2
Fore
SplineSet
512 -34 m 1,0,-1
 87 952 l 1,1,-1
 -12 963 l 1,2,-1
 -12 1004 l 1,3,-1
 461 1004 l 1,4,-1
 461 963 l 1,5,-1
 353 952 l 1,6,-1
 613 300 l 1,7,-1
 809 952 l 1,8,-1
 699 963 l 1,9,-1
 699 1004 l 1,10,-1
 971 1004 l 1,11,-1
 971 963 l 1,12,-1
 867 952 l 1,13,-1
 535 -172 l 1,14,15
 442 -448 442 -448 318 -484 c 0,16,17
 282 -495 282 -495 246 -495 c 128,-1,18
 210 -495 210 -495 179 -483.5 c 128,-1,19
 148 -472 148 -472 126 -452 c 0,20,21
 80 -412 80 -412 80 -347 c 0,22,23
 80 -288 80 -288 106 -259 c 0,24,25
 152 -208 152 -208 194 -208 c 128,-1,26
 236 -208 236 -208 258 -218.5 c 128,-1,27
 280 -229 280 -229 294 -246 c 0,28,29
 322 -282 322 -282 322 -333 c 0,30,31
 322 -367 322 -367 305 -391 c 128,-1,32
 288 -415 288 -415 277 -423 c 1,33,-1
 277 -427 l 1,34,35
 369 -425 369 -425 438 -259 c 0,36,37
 455 -218 455 -218 467 -186 c 1,38,-1
 512 -34 l 1,0,-1
517 1156 m 1,39,-1
 480 1182 l 1,40,-1
 591 1500 l 1,41,42
 600 1529 600 1529 624.5 1549 c 128,-1,43
 649 1569 649 1569 674.5 1569 c 128,-1,44
 700 1569 700 1569 716.5 1562 c 128,-1,45
 733 1555 733 1555 745 1542 c 0,46,47
 771 1514 771 1514 771 1483 c 0,48,49
 771 1429 771 1429 740 1396 c 2,50,-1
 517 1156 l 1,39,-1
EndSplineSet
EndChar

StartChar: thorn
Encoding: 254 254 192
Width: 1092
Flags: W
LayerCount: 2
Fore
SplineSet
564 -30 m 0,0,1
 457 -30 457 -30 392 21 c 1,2,-1
 392 -424 l 1,3,-1
 495 -434 l 1,4,-1
 495 -475 l 1,5,-1
 44 -475 l 1,6,-1
 44 -434 l 1,7,-1
 147 -424 l 1,8,-1
 147 1348 l 1,9,-1
 24 1348 l 1,10,-1
 24 1389 l 1,11,-1
 233 1411 l 1,12,-1
 374 1448 l 1,13,-1
 392 1419 l 1,14,-1
 392 865 l 1,15,-1
 396 865 l 1,16,17
 474 999 474 999 586 1026 c 0,18,19
 622 1034 622 1034 654 1034 c 128,-1,20
 686 1034 686 1034 721 1026 c 128,-1,21
 756 1018 756 1018 794.5 997 c 128,-1,22
 833 976 833 976 871.5 939.5 c 128,-1,23
 910 903 910 903 940 845 c 0,24,25
 1009 715 1009 715 1009 512 c 0,26,27
 1009 277 1009 277 898 130 c 0,28,29
 777 -30 777 -30 564 -30 c 0,0,1
392 74 m 1,30,31
 449 23 449 23 510.5 23 c 128,-1,32
 572 23 572 23 612 47 c 128,-1,33
 652 71 652 71 678.5 111.5 c 128,-1,34
 705 152 705 152 720 204 c 128,-1,35
 735 256 735 256 742 312 c 0,36,37
 753 390 753 390 753 521 c 128,-1,38
 753 652 753 652 740.5 734.5 c 128,-1,39
 728 817 728 817 705 866 c 0,40,41
 664 954 664 954 577 954 c 0,42,43
 503 954 503 954 446 874 c 0,44,45
 392 797 392 797 392 698 c 2,46,-1
 392 74 l 1,30,31
EndSplineSet
EndChar

StartChar: ydieresis
Encoding: 255 255 193
Width: 965
Flags: W
LayerCount: 2
Fore
SplineSet
512 -34 m 1,0,-1
 87 952 l 1,1,-1
 -12 963 l 1,2,-1
 -12 1004 l 1,3,-1
 461 1004 l 1,4,-1
 461 963 l 1,5,-1
 353 952 l 1,6,-1
 613 300 l 1,7,-1
 809 952 l 1,8,-1
 699 963 l 1,9,-1
 699 1004 l 1,10,-1
 971 1004 l 1,11,-1
 971 963 l 1,12,-1
 867 952 l 1,13,-1
 535 -172 l 1,14,15
 442 -448 442 -448 318 -484 c 0,16,17
 282 -495 282 -495 246 -495 c 128,-1,18
 210 -495 210 -495 179 -483.5 c 128,-1,19
 148 -472 148 -472 126 -452 c 0,20,21
 80 -412 80 -412 80 -347 c 0,22,23
 80 -288 80 -288 106 -259 c 0,24,25
 152 -208 152 -208 194 -208 c 128,-1,26
 236 -208 236 -208 258 -218.5 c 128,-1,27
 280 -229 280 -229 294 -246 c 0,28,29
 322 -282 322 -282 322 -333 c 0,30,31
 322 -367 322 -367 305 -391 c 128,-1,32
 288 -415 288 -415 277 -423 c 1,33,-1
 277 -427 l 1,34,35
 369 -425 369 -425 438 -259 c 0,36,37
 455 -218 455 -218 467 -186 c 1,38,-1
 512 -34 l 1,0,-1
308 1283.5 m 128,-1,40
 277 1321 277 1321 277 1378.5 c 128,-1,41
 277 1436 277 1436 308 1473.5 c 128,-1,42
 339 1511 339 1511 393 1511 c 256,43,44
 447 1511 447 1511 478.5 1473.5 c 128,-1,45
 510 1436 510 1436 510 1378.5 c 128,-1,46
 510 1321 510 1321 478.5 1283.5 c 128,-1,47
 447 1246 447 1246 393 1246 c 256,48,39
 339 1246 339 1246 308 1283.5 c 128,-1,40
651 1283.5 m 128,-1,50
 620 1321 620 1321 620 1378.5 c 128,-1,51
 620 1436 620 1436 651 1473.5 c 128,-1,52
 682 1511 682 1511 736 1511 c 256,53,54
 790 1511 790 1511 821.5 1473.5 c 128,-1,55
 853 1436 853 1436 853 1378.5 c 128,-1,56
 853 1321 853 1321 821.5 1283.5 c 128,-1,57
 790 1246 790 1246 736 1246 c 256,58,49
 682 1246 682 1246 651 1283.5 c 128,-1,50
EndSplineSet
EndChar

StartChar: dotlessi
Encoding: 305 305 194
Width: 585
Flags: W
LayerCount: 2
Fore
SplineSet
424 51 m 1,0,-1
 527 41 l 1,1,-1
 527 0 l 1,2,-1
 76 0 l 1,3,-1
 76 41 l 1,4,-1
 179 51 l 1,5,-1
 179 926 l 1,6,-1
 58 924 l 1,7,-1
 56 965 l 1,8,-1
 265 987 l 1,9,-1
 406 1024 l 1,10,-1
 424 995 l 1,11,-1
 424 51 l 1,0,-1
EndSplineSet
EndChar

StartChar: OE
Encoding: 338 338 195
Width: 2013
Flags: W
LayerCount: 2
Fore
SplineSet
1496 1372 m 0,0,1
 1401 1372 1401 1372 1285 1362 c 1,2,-1
 1285 768 l 1,3,4
 1297 767 1297 767 1312 766 c 1,5,-1
 1342 766 l 1,6,7
 1358 765 1358 765 1372 765 c 2,8,-1
 1397 765 l 2,9,10
 1502 765 1502 765 1545 814 c 0,11,12
 1592 868 1592 868 1592 1004 c 1,13,-1
 1647 1004 l 1,14,-1
 1647 467 l 1,15,-1
 1592 467 l 1,16,17
 1592 663 1592 663 1484 698 c 0,18,19
 1448 710 1448 710 1420 710 c 2,20,-1
 1377 710 l 2,21,22
 1363 710 1363 710 1346.5 709.5 c 128,-1,23
 1330 709 1330 709 1313.5 708.5 c 128,-1,24
 1297 708 1297 708 1285 707 c 1,25,-1
 1285 65 l 1,26,27
 1430 55 1430 55 1530.5 55 c 128,-1,28
 1631 55 1631 55 1690.5 81.5 c 128,-1,29
 1750 108 1750 108 1788 156 c 0,30,31
 1852 237 1852 237 1872 408 c 1,32,-1
 1904 408 l 1,33,-1
 1904 0 l 1,34,-1
 1029 0 l 1,35,36
 906 -35 906 -35 768.5 -35 c 128,-1,37
 631 -35 631 -35 531 -7 c 128,-1,38
 431 21 431 21 357 71 c 128,-1,39
 283 121 283 121 233 189.5 c 128,-1,40
 183 258 183 258 153 338 c 0,41,42
 97 489 97 489 97 689 c 0,43,44
 97 982 97 982 245 1204 c 0,45,46
 352 1363 352 1363 532 1428 c 0,47,48
 624 1462 624 1462 732.5 1462 c 128,-1,49
 841 1462 841 1462 1029 1427 c 1,50,-1
 1873 1427 l 1,51,-1
 1873 1020 l 1,52,-1
 1818 1020 l 1,53,54
 1800 1191 1800 1191 1740 1272 c 0,55,56
 1666 1372 1666 1372 1496 1372 c 0,0,1
1029 1358 m 1,57,58
 951 1398 951 1398 823.5 1398 c 128,-1,59
 696 1398 696 1398 613.5 1346.5 c 128,-1,60
 531 1295 531 1295 476 1204 c 0,61,62
 363 1018 363 1018 363 716 c 0,63,64
 363 402 363 402 476 218 c 0,65,66
 594 27 594 27 810 27 c 0,67,68
 936 27 936 27 1029 64 c 1,69,-1
 1029 1358 l 1,57,58
EndSplineSet
EndChar

StartChar: oe
Encoding: 339 339 196
Width: 1620
Flags: W
LayerCount: 2
Fore
SplineSet
1544 195 m 1,0,1
 1416 -22 1416 -22 1177 -22 c 0,2,3
 1056 -22 1056 -22 1000 3.5 c 128,-1,4
 944 29 944 29 910.5 60 c 128,-1,5
 877 91 877 91 848 139 c 1,6,-1
 846 139 l 1,7,8
 766 3 766 3 629 -22 c 0,9,10
 586 -30 586 -30 539 -30 c 0,11,12
 310 -30 310 -30 189 126 c 0,13,14
 80 266 80 266 80 496 c 128,-1,15
 80 726 80 726 209 880 c 0,16,17
 339 1034 339 1034 540 1034 c 128,-1,18
 741 1034 741 1034 844 868 c 1,19,-1
 846 868 l 1,20,21
 951 1034 951 1034 1149 1034 c 0,22,23
 1535 1034 1535 1034 1535 565 c 1,24,-1
 1508 540 l 1,25,-1
 976 540 l 1,26,-1
 976 479 l 2,27,28
 976 43 976 43 1224 43 c 0,29,30
 1400 43 1400 43 1505 219 c 1,31,-1
 1544 195 l 1,0,1
336 508 m 0,32,33
 336 15 336 15 536 15 c 128,-1,34
 736 15 736 15 736 496 c 0,35,36
 736 866 736 866 632 956 c 0,37,38
 593 989 593 989 537 989 c 128,-1,39
 481 989 481 989 443 952.5 c 128,-1,40
 405 916 405 916 381 852 c 0,41,42
 336 732 336 732 336 508 c 0,32,33
1224 968.5 m 128,-1,44
 1195 989 1195 989 1149 989 c 128,-1,45
 1103 989 1103 989 1070 958 c 128,-1,46
 1037 927 1037 927 1017 872 c 0,47,48
 983 779 983 779 976 585 c 1,49,-1
 1299 598 l 1,50,51
 1302 649 1302 649 1302 706 c 128,-1,52
 1302 763 1302 763 1294.5 817.5 c 128,-1,53
 1287 872 1287 872 1270 910 c 128,-1,43
 1253 948 1253 948 1224 968.5 c 128,-1,44
EndSplineSet
EndChar

StartChar: florin
Encoding: 402 402 197
Width: 661
Flags: W
LayerCount: 2
Fore
SplineSet
510 1403 m 0,0,1
 421 1403 421 1403 421 1237 c 2,2,-1
 421 1004 l 1,3,-1
 669 1004 l 1,4,-1
 669 961 l 1,5,-1
 421 951 l 1,6,-1
 421 -38 l 2,7,8
 421 -394 421 -394 215 -474 c 0,9,10
 163 -495 163 -495 98 -495 c 128,-1,11
 33 -495 33 -495 -9 -482 c 128,-1,12
 -51 -469 -51 -469 -80 -446 c 0,13,14
 -137 -401 -137 -401 -137 -327 c 0,15,16
 -137 -278 -137 -278 -114 -252 c 0,17,18
 -74 -208 -74 -208 -33.5 -208 c 128,-1,19
 7 -208 7 -208 28 -218 c 128,-1,20
 49 -228 49 -228 63 -244 c 0,21,22
 92 -279 92 -279 92 -306.5 c 128,-1,23
 92 -334 92 -334 89.5 -348 c 128,-1,24
 87 -362 87 -362 82 -376 c 0,25,26
 69 -408 69 -408 49 -421 c 1,27,-1
 49 -425 l 1,28,29
 56 -450 56 -450 100 -450 c 0,30,31
 189 -450 189 -450 189 -284 c 2,32,-1
 189 955 l 1,33,-1
 5 961 l 1,34,-1
 5 1004 l 1,35,-1
 189 1004 l 1,36,37
 192 1350 192 1350 396 1428 c 0,38,39
 449 1448 449 1448 513 1448 c 128,-1,40
 577 1448 577 1448 619 1435 c 128,-1,41
 661 1422 661 1422 690 1400 c 1,42,43
 747 1354 747 1354 747 1280 c 0,44,45
 747 1231 747 1231 724 1205 c 0,46,47
 684 1161 684 1161 643.5 1161 c 128,-1,48
 603 1161 603 1161 582 1171 c 128,-1,49
 561 1181 561 1181 546 1198 c 0,50,51
 518 1230 518 1230 518 1276 c 0,52,53
 518 1319 518 1319 534 1343 c 128,-1,54
 550 1367 550 1367 561 1374 c 1,55,-1
 561 1378 l 1,56,57
 554 1403 554 1403 510 1403 c 0,0,1
EndSplineSet
EndChar

StartChar: circumflex
Encoding: 710 710 198
Width: 695
Flags: W
LayerCount: 2
Fore
SplineSet
361 1585 m 1,0,-1
 595 1213 l 1,1,-1
 514 1167 l 1,2,-1
 348 1379 l 1,3,-1
 344 1379 l 1,4,-1
 166 1168 l 1,5,-1
 90 1209 l 1,6,-1
 356 1585 l 1,7,-1
 361 1585 l 1,0,-1
EndSplineSet
EndChar

StartChar: caron
Encoding: 711 711 199
Width: 655
Flags: W
LayerCount: 2
Fore
SplineSet
324 1147 m 1,0,-1
 70 1541 l 1,1,-1
 116 1585 l 1,2,-1
 337 1353 l 1,3,-1
 341 1353 l 1,4,-1
 574 1584 l 1,5,-1
 615 1545 l 1,6,-1
 329 1147 l 1,7,-1
 324 1147 l 1,0,-1
EndSplineSet
EndChar

